<svg width="40" height="40" viewBox="0 0 40 40" fill="none" xmlns="http://www.w3.org/2000/svg">
<path d="M7.5 36.25C6.50544 36.25 5.55161 35.8549 4.84835 35.1517C4.14509 34.4484 3.75 33.4946 3.75 32.5V7.5C3.75 6.50544 4.14509 5.55161 4.84835 4.84835C5.55161 4.14509 6.50544 3.75 7.5 3.75H27.5C27.8315 3.75 28.1495 3.8817 28.3839 4.11612C28.6183 4.35054 28.75 4.66848 28.75 5C28.75 5.33152 28.6183 5.64946 28.3839 5.88388C28.1495 6.1183 27.8315 6.25 27.5 6.25H7.5C7.16848 6.25 6.85054 6.3817 6.61612 6.61612C6.3817 6.85054 6.25 7.16848 6.25 7.5V32.5C6.25 32.8315 6.3817 33.1495 6.61612 33.3839C6.85054 33.6183 7.16848 33.75 7.5 33.75H32.5C32.8315 33.75 33.1495 33.6183 33.3839 33.3839C33.6183 33.1495 33.75 32.8315 33.75 32.5V20C33.75 19.6685 33.8817 19.3505 34.1161 19.1161C34.3505 18.8817 34.6685 18.75 35 18.75C35.3315 18.75 35.6495 18.8817 35.8839 19.1161C36.1183 19.3505 36.25 19.6685 36.25 20V32.5C36.25 33.4946 35.8549 34.4484 35.1517 35.1517C34.4484 35.8549 33.4946 36.25 32.5 36.25H7.5Z" fill="#90B7FC"/>
<path d="M20.885 25.885L38.385 8.38501C38.5012 8.26879 38.5934 8.13081 38.6563 7.97897C38.7192 7.82712 38.7516 7.66437 38.7516 7.50001C38.7516 7.33565 38.7192 7.1729 38.6563 7.02105C38.5934 6.8692 38.5012 6.73123 38.385 6.61501C38.2688 6.49879 38.1308 6.4066 37.9789 6.3437C37.8271 6.2808 37.6643 6.24843 37.5 6.24843C37.3356 6.24843 37.1729 6.2808 37.021 6.3437C36.8692 6.4066 36.7312 6.49879 36.615 6.61501L20 23.2325L13.385 16.615C13.2688 16.4988 13.1308 16.4066 12.979 16.3437C12.8271 16.2808 12.6644 16.2484 12.5 16.2484C12.3356 16.2484 12.1729 16.2808 12.021 16.3437C11.8692 16.4066 11.7312 16.4988 11.615 16.615C11.4988 16.7312 11.4066 16.8692 11.3437 17.021C11.2808 17.1729 11.2484 17.3356 11.2484 17.5C11.2484 17.6644 11.2808 17.8271 11.3437 17.979C11.4066 18.1308 11.4988 18.2688 11.615 18.385L19.115 25.885C19.2311 26.0014 19.369 26.0938 19.5209 26.1568C19.6728 26.2198 19.8356 26.2522 20 26.2522C20.1644 26.2522 20.3272 26.2198 20.4791 26.1568C20.6309 26.0938 20.7689 26.0014 20.885 25.885Z" fill="#90B7FC"/>
</svg>
