<svg width="100" height="100" viewBox="0 0 100 100" fill="none" xmlns="http://www.w3.org/2000/svg">
<path d="M0 71.875C0 71.0462 0.32924 70.2513 0.915291 69.6653C1.50134 69.0792 2.2962 68.75 3.125 68.75H15.625C16.4538 68.75 17.2487 69.0792 17.8347 69.6653C18.4208 70.2513 18.75 71.0462 18.75 71.875V84.375C18.75 85.2038 18.4208 85.9987 17.8347 86.5847C17.2487 87.1708 16.4538 87.5 15.625 87.5H3.125C2.2962 87.5 1.50134 87.1708 0.915291 86.5847C0.32924 85.9987 0 85.2038 0 84.375V71.875ZM25 53.125C25 52.2962 25.3292 51.5013 25.9153 50.9153C26.5013 50.3292 27.2962 50 28.125 50H40.625C41.4538 50 42.2487 50.3292 42.8347 50.9153C43.4208 51.5013 43.75 52.2962 43.75 53.125V84.375C43.75 85.2038 43.4208 85.9987 42.8347 86.5847C42.2487 87.1708 41.4538 87.5 40.625 87.5H28.125C27.2962 87.5 26.5013 87.1708 25.9153 86.5847C25.3292 85.9987 25 85.2038 25 84.375V53.125ZM50 34.375C50 33.5462 50.3292 32.7513 50.9153 32.1653C51.5013 31.5792 52.2962 31.25 53.125 31.25H65.625C66.4538 31.25 67.2487 31.5792 67.8347 32.1653C68.4208 32.7513 68.75 33.5462 68.75 34.375V84.375C68.75 85.2038 68.4208 85.9987 67.8347 86.5847C67.2487 87.1708 66.4538 87.5 65.625 87.5H53.125C52.2962 87.5 51.5013 87.1708 50.9153 86.5847C50.3292 85.9987 50 85.2038 50 84.375V34.375ZM75 15.625C75 14.7962 75.3292 14.0013 75.9153 13.4153C76.5013 12.8292 77.2962 12.5 78.125 12.5H90.625C91.4538 12.5 92.2487 12.8292 92.8347 13.4153C93.4208 14.0013 93.75 14.7962 93.75 15.625V84.375C93.75 85.2038 93.4208 85.9987 92.8347 86.5847C92.2487 87.1708 91.4538 87.5 90.625 87.5H78.125C77.2962 87.5 76.5013 87.1708 75.9153 86.5847C75.3292 85.9987 75 85.2038 75 84.375V15.625Z" fill="black"/>
</svg>
