<svg width="25" height="25" viewBox="0 0 25 25" fill="none" xmlns="http://www.w3.org/2000/svg">
<path d="M11.8376 4.52069H4.83759C4.30715 4.52069 3.79844 4.7314 3.42337 5.10648C3.0483 5.48155 2.83759 5.99026 2.83759 6.52069V20.5207C2.83759 21.0511 3.0483 21.5598 3.42337 21.9349C3.79844 22.31 4.30715 22.5207 4.83759 22.5207H18.8376C19.368 22.5207 19.8767 22.31 20.2518 21.9349C20.6269 21.5598 20.8376 21.0511 20.8376 20.5207V13.5207" stroke="white" stroke-width="2" stroke-linecap="round" stroke-linejoin="round"/>
<path d="M19.3376 3.0207C19.7354 2.62288 20.275 2.39938 20.8376 2.39938C21.4002 2.39938 21.9398 2.62288 22.3376 3.0207C22.7354 3.41853 22.9589 3.95809 22.9589 4.5207C22.9589 5.08331 22.7354 5.62288 22.3376 6.0207L12.8376 15.5207L8.83759 16.5207L9.83759 12.5207L19.3376 3.0207Z" stroke="white" stroke-width="2" stroke-linecap="round" stroke-linejoin="round"/>
</svg>
