<svg width="51" height="51" viewBox="0 0 51 51" fill="none" xmlns="http://www.w3.org/2000/svg">
<path d="M23.657 8.38721H9.07368C7.96861 8.38721 6.9088 8.82619 6.1274 9.6076C5.346 10.389 4.90701 11.4488 4.90701 12.5539V41.7205C4.90701 42.8256 5.346 43.8854 6.1274 44.6668C6.9088 45.4482 7.96861 45.8872 9.07368 45.8872H38.2403C39.3454 45.8872 40.4052 45.4482 41.1866 44.6668C41.968 43.8854 42.407 42.8256 42.407 41.7205V27.1372" stroke="#90B7FC" stroke-width="2" stroke-linecap="round" stroke-linejoin="round"/>
<path d="M39.282 5.26219C40.1108 4.43339 41.2349 3.96777 42.407 3.96777C43.5791 3.96777 44.7032 4.43339 45.532 5.26219C46.3608 6.09099 46.8264 7.21509 46.8264 8.38719C46.8264 9.55929 46.3608 10.6834 45.532 11.5122L25.7403 31.3039L17.407 33.3872L19.4903 25.0539L39.282 5.26219Z" stroke="#90B7FC" stroke-width="2" stroke-linecap="round" stroke-linejoin="round"/>
</svg>
