<svg width="100" height="100" viewBox="0 0 100 100" fill="none" xmlns="http://www.w3.org/2000/svg">
<g clip-path="url(#clip0_80_7)">
<path d="M55.4 0.287507C49.425 -1.20624 43.875 3.31251 43.475 9.16251C43.025 15.7313 42.0375 21.7625 40.8 25.35C40.0187 27.6 37.8062 31.6813 34.3 35.5938C30.8187 39.4875 26.2875 42.9563 20.9813 44.4063C16.7813 45.55 12.5 49.1875 12.5 54.5V79.5063C12.5 84.7875 16.7625 88.6563 21.55 89.1625C28.2375 89.875 31.325 91.7563 34.475 93.6813L34.775 93.8688C36.475 94.9 38.3875 96.0438 40.8375 96.8938C43.3187 97.7438 46.2187 98.25 50 98.25H71.875C77.7312 98.25 81.8687 95.2688 83.9625 91.6C84.9744 89.8687 85.5213 87.9051 85.55 85.9C85.55 84.95 85.4062 83.95 85.0687 83C86.325 81.3563 87.4437 79.3875 88.1187 77.3688C88.8062 75.3063 89.1937 72.6063 88.1437 70.1875C88.575 69.375 88.8937 68.5063 89.1375 67.6688C89.6187 65.9813 89.8437 64.1188 89.8437 62.3125C89.8437 60.5125 89.6187 58.6563 89.1375 56.9625C88.9189 56.1839 88.6302 55.4266 88.275 54.7C89.3694 53.143 90.0735 51.3457 90.328 49.4596C90.5825 47.5736 90.38 45.6539 89.7375 43.8625C88.45 40.1625 85.475 36.9875 82.2375 35.9125C76.9437 34.15 70.9687 34.1875 66.5125 34.5938C65.5873 34.677 64.6642 34.7812 63.7437 34.9063C65.9119 25.6212 65.7789 15.947 63.3562 6.72501C62.9348 5.24744 62.1262 3.90929 61.0142 2.84894C59.9022 1.7886 58.5272 1.04455 57.0312 0.693758L55.4 0.287507ZM71.875 92.0063H50C46.8125 92.0063 44.6062 91.575 42.875 90.9813C41.1187 90.375 39.7125 89.5563 38.025 88.525L37.775 88.375C34.3062 86.2563 30.2875 83.8063 22.2125 82.95C20.1312 82.725 18.75 81.1375 18.75 79.5125V54.5C18.75 52.9125 20.1625 51.1063 22.625 50.4375C29.4687 48.5625 34.9812 44.2125 38.9625 39.7625C42.9312 35.325 45.6125 30.5438 46.7 27.4C48.2187 23.025 49.2437 16.35 49.7125 9.58751C49.8687 7.32501 51.9625 5.87501 53.8812 6.35001L55.5187 6.76251C56.5187 7.01251 57.1312 7.65626 57.3187 8.35626C59.8712 18.0814 59.5564 28.3372 56.4125 37.8875C56.2345 38.4187 56.2026 38.9879 56.3201 39.5356C56.4376 40.0834 56.7002 40.5894 57.0803 41.0009C57.4605 41.4124 57.9442 41.7141 58.481 41.8744C59.0177 42.0348 59.5877 42.048 60.1312 41.9125L60.15 41.9063L60.2375 41.8875L60.6 41.8C62.7372 41.3462 64.8993 41.0185 67.075 40.8188C71.2187 40.4438 76.1812 40.4813 80.2625 41.8438C81.3562 42.2063 83.075 43.7188 83.825 45.9063C84.4937 47.8313 84.3687 50.0938 82.1625 52.2938L79.9562 54.5L82.1625 56.7125C82.4312 56.9813 82.8187 57.5938 83.125 58.6813C83.425 59.725 83.5937 60.9938 83.5937 62.3125C83.5937 63.6375 83.425 64.9 83.125 65.95C82.8125 67.0375 82.4312 67.65 82.1625 67.9188L79.9562 70.125L82.1625 72.3375C82.4562 72.6313 82.8437 73.4438 82.1937 75.3875C81.5164 77.2724 80.4398 78.9887 79.0375 80.4188L76.8312 82.625L79.0375 84.8375C79.075 84.8688 79.2937 85.15 79.2937 85.9C79.266 86.8168 79.0058 87.7114 78.5375 88.5C77.5062 90.3 75.3937 92 71.875 92V92.0063Z" fill="black"/>
</g>
<defs>
<clipPath id="clip0_80_7">
<rect width="100" height="100" fill="white"/>
</clipPath>
</defs>
</svg>
