<svg width="24" height="21" viewBox="0 0 24 21" fill="none" xmlns="http://www.w3.org/2000/svg">
<path d="M20.6307 2.6565C20.1199 2.14551 19.5135 1.74015 18.846 1.46359C18.1786 1.18702 17.4632 1.04468 16.7407 1.04468C16.0182 1.04468 15.3028 1.18702 14.6353 1.46359C13.9679 1.74015 13.3614 2.14551 12.8507 2.6565L11.7907 3.7165L10.7307 2.6565C9.699 1.62481 8.29973 1.04521 6.84069 1.04521C5.38166 1.04521 3.98238 1.62481 2.95069 2.6565C1.919 3.6882 1.3394 5.08747 1.3394 6.5465C1.3394 8.00554 1.919 9.40481 2.95069 10.4365L4.01069 11.4965L11.7907 19.2765L19.5707 11.4965L20.6307 10.4365C21.1417 9.92575 21.547 9.31932 21.8236 8.65186C22.1002 7.9844 22.2425 7.26899 22.2425 6.5465C22.2425 5.82402 22.1002 5.10861 21.8236 4.44115C21.547 3.77369 21.1417 3.16726 20.6307 2.6565V2.6565Z" stroke="#EF6C6C" stroke-width="2" stroke-linecap="round" stroke-linejoin="round"/>
</svg>
