<svg width="24" height="24" viewBox="0 0 24 24" fill="none" xmlns="http://www.w3.org/2000/svg">
<path d="M17 3H7C4.23858 3 2 5.23858 2 8V18C2 20.7614 4.23858 23 7 23H17C19.7614 23 22 20.7614 22 18V8C22 5.23858 19.7614 3 17 3Z" stroke="white" stroke-linecap="round" stroke-linejoin="round"/>
<path d="M16 12.37C16.1234 13.2022 15.9813 14.0522 15.5938 14.799C15.2063 15.5458 14.5931 16.1514 13.8416 16.5297C13.0901 16.9079 12.2384 17.0396 11.4078 16.9059C10.5771 16.7723 9.80976 16.3801 9.21484 15.7852C8.61991 15.1902 8.22773 14.4229 8.09406 13.5922C7.9604 12.7615 8.09206 11.9099 8.47032 11.1584C8.84858 10.4069 9.45418 9.79374 10.201 9.40624C10.9478 9.01874 11.7978 8.87658 12.63 9C13.4789 9.12588 14.2648 9.52146 14.8717 10.1283C15.4785 10.7351 15.8741 11.5211 16 12.37Z" stroke="white" stroke-linecap="round" stroke-linejoin="round"/>
<path d="M17.5 6.5H17.51" stroke="white" stroke-linecap="round" stroke-linejoin="round"/>
</svg>
