<svg width="25" height="25" viewBox="0 0 25 25" fill="none" xmlns="http://www.w3.org/2000/svg">
<path d="M17.7655 2.41824H7.76549C5.00406 2.41824 2.76549 4.65682 2.76549 7.41824V17.4182C2.76549 20.1797 5.00406 22.4182 7.76549 22.4182H17.7655C20.5269 22.4182 22.7655 20.1797 22.7655 17.4182V7.41824C22.7655 4.65682 20.5269 2.41824 17.7655 2.41824Z" stroke="black" stroke-width="2" stroke-linecap="round" stroke-linejoin="round"/>
<path d="M16.7655 11.7882C16.8889 12.6205 16.7467 13.4705 16.3592 14.2173C15.9717 14.9641 15.3586 15.5697 14.6071 15.9479C13.8556 16.3262 13.0039 16.4578 12.1733 16.3242C11.3426 16.1905 10.5752 15.7983 9.98032 15.2034C9.3854 14.6085 8.99322 13.8411 8.85955 13.0105C8.72589 12.1798 8.85755 11.3281 9.23581 10.5766C9.61407 9.82509 10.2197 9.21198 10.9665 8.82448C11.7133 8.43698 12.5632 8.29483 13.3955 8.41824C14.2444 8.54412 15.0303 8.9397 15.6372 9.54655C16.244 10.1534 16.6396 10.9393 16.7655 11.7882Z" stroke="black" stroke-width="2" stroke-linecap="round" stroke-linejoin="round"/>
<path d="M18.2655 6.91824H18.2755" stroke="black" stroke-width="2" stroke-linecap="round" stroke-linejoin="round"/>
</svg>
