<svg width="25" height="25" viewBox="0 0 25 25" fill="none" xmlns="http://www.w3.org/2000/svg">
<path d="M16.7655 8.41824C18.3568 8.41824 19.8829 9.05038 21.0081 10.1756C22.1333 11.3008 22.7655 12.8269 22.7655 14.4182V21.4182H18.7655V14.4182C18.7655 13.8878 18.5548 13.3791 18.1797 13.004C17.8046 12.629 17.2959 12.4182 16.7655 12.4182C16.2351 12.4182 15.7263 12.629 15.3513 13.004C14.9762 13.3791 14.7655 13.8878 14.7655 14.4182V21.4182H10.7655V14.4182C10.7655 12.8269 11.3976 11.3008 12.5228 10.1756C13.6481 9.05038 15.1742 8.41824 16.7655 8.41824V8.41824Z" stroke="black" stroke-width="2" stroke-linecap="round" stroke-linejoin="round"/>
<path d="M6.76549 9.41824H2.76549V21.4182H6.76549V9.41824Z" stroke="black" stroke-width="2" stroke-linecap="round" stroke-linejoin="round"/>
<path d="M4.76549 6.41824C5.87006 6.41824 6.76549 5.52281 6.76549 4.41824C6.76549 3.31367 5.87006 2.41824 4.76549 2.41824C3.66092 2.41824 2.76549 3.31367 2.76549 4.41824C2.76549 5.52281 3.66092 6.41824 4.76549 6.41824Z" stroke="black" stroke-width="2" stroke-linecap="round" stroke-linejoin="round"/>
</svg>
