<svg width="25" height="25" viewBox="0 0 25 25" fill="none" xmlns="http://www.w3.org/2000/svg">
<g clip-path="url(#clip0_186_18)">
<path d="M1.62265 1.49054L23.6227 23.4905" stroke="white" stroke-width="2" stroke-linecap="round" stroke-linejoin="round"/>
<path d="M15.6227 9.83054V4.49054C15.6234 3.74657 15.3477 3.02886 14.849 2.47674C14.3504 1.92462 13.6644 1.57748 12.9241 1.50271C12.1839 1.42795 11.4424 1.63088 10.8434 2.07213C10.2444 2.51337 9.8307 3.16145 9.68265 3.89054M9.62265 9.49054V12.4905C9.62317 13.0835 9.7994 13.663 10.1291 14.1559C10.4588 14.6487 10.9271 15.0328 11.475 15.2597C12.0228 15.4865 12.6256 15.5459 13.2072 15.4304C13.7888 15.3149 14.3231 15.0296 14.7427 14.6105L9.62265 9.49054Z" stroke="white" stroke-width="2" stroke-linecap="round" stroke-linejoin="round"/>
<path d="M19.6227 10.4905V12.4905C19.6223 12.903 19.5855 13.3146 19.5127 13.7205M17.6227 17.4405C16.6464 18.437 15.3948 19.119 14.0283 19.3991C12.6617 19.6793 11.2427 19.5448 9.95315 19.0128C8.66361 18.4809 7.56241 17.5758 6.79082 16.4137C6.01924 15.2516 5.61245 13.8854 5.62265 12.4905V10.4905L17.6227 17.4405Z" stroke="white" stroke-width="2" stroke-linecap="round" stroke-linejoin="round"/>
<path d="M12.6227 19.4905V23.4905" stroke="white" stroke-width="2" stroke-linecap="round" stroke-linejoin="round"/>
<path d="M8.62265 23.4905H16.6227" stroke="white" stroke-width="2" stroke-linecap="round" stroke-linejoin="round"/>
</g>
<defs>
<clipPath id="clip0_186_18">
<rect width="24" height="24" fill="white" transform="translate(0.62265 0.49054)"/>
</clipPath>
</defs>
</svg>
