<svg width="25" height="25" viewBox="0 0 25 25" fill="none" xmlns="http://www.w3.org/2000/svg">
<path d="M12.088 13.8442C12.6403 13.8442 13.088 13.3965 13.088 12.8442C13.088 12.292 12.6403 11.8442 12.088 11.8442C11.5358 11.8442 11.088 12.292 11.088 12.8442C11.088 13.3965 11.5358 13.8442 12.088 13.8442Z" stroke="black" stroke-width="2" stroke-linecap="round" stroke-linejoin="round"/>
<path d="M12.088 6.84424C12.6403 6.84424 13.088 6.39652 13.088 5.84424C13.088 5.29195 12.6403 4.84424 12.088 4.84424C11.5358 4.84424 11.088 5.29195 11.088 5.84424C11.088 6.39652 11.5358 6.84424 12.088 6.84424Z" stroke="black" stroke-width="2" stroke-linecap="round" stroke-linejoin="round"/>
<path d="M12.088 20.8442C12.6403 20.8442 13.088 20.3965 13.088 19.8442C13.088 19.292 12.6403 18.8442 12.088 18.8442C11.5358 18.8442 11.088 19.292 11.088 19.8442C11.088 20.3965 11.5358 20.8442 12.088 20.8442Z" stroke="black" stroke-width="2" stroke-linecap="round" stroke-linejoin="round"/>
</svg>
