<svg width="25" height="25" viewBox="0 0 25 25" fill="none" xmlns="http://www.w3.org/2000/svg">
<g clip-path="url(#clip0_186_24)">
<path d="M5.81264 13.3005C4.1285 10.7035 3.077 7.74771 2.74264 4.67054C2.71765 4.39401 2.75052 4.11531 2.83914 3.85217C2.92777 3.58903 3.07022 3.34723 3.25741 3.14217C3.44461 2.9371 3.67245 2.77325 3.92644 2.66107C4.18042 2.54888 4.45498 2.49081 4.73264 2.49054H7.73264C8.21795 2.48577 8.68844 2.65762 9.05641 2.97408C9.42438 3.29053 9.66472 3.72999 9.73264 4.21054C9.85927 5.17061 10.0941 6.11327 10.4326 7.02055C10.5672 7.37847 10.5963 7.76746 10.5166 8.14143C10.4368 8.51539 10.2515 8.85866 9.98264 9.13055L8.71264 10.4005M11.3026 13.8005C12.3175 14.8163 13.4645 15.6908 14.7126 16.4005L15.9826 15.1305C16.2545 14.8617 16.5978 14.6764 16.9718 14.5966C17.3457 14.5169 17.7347 14.546 18.0926 14.6805C18.9999 15.0191 19.9426 15.2539 20.9026 15.3805C21.3832 15.4485 21.8227 15.6888 22.1391 16.0568C22.4556 16.4248 22.6274 16.8952 22.6226 17.3805V20.3805C22.6238 20.659 22.5667 20.9347 22.4552 21.1899C22.3436 21.4451 22.1799 21.6741 21.9747 21.8624C21.7695 22.0507 21.5272 22.194 21.2634 22.2833C20.9996 22.3725 20.72 22.4056 20.4426 22.3805C17.3655 22.0462 14.4096 20.9947 11.8126 19.3105C10.6079 18.5456 9.49117 17.6502 8.48264 16.6405L11.3026 13.8005Z" stroke="black" stroke-width="2" stroke-linecap="round" stroke-linejoin="round"/>
<path d="M23.6227 1.49054L1.62265 23.4905" stroke="black" stroke-width="2" stroke-linecap="round" stroke-linejoin="round"/>
</g>
<defs>
<clipPath id="clip0_186_24">
<rect width="24" height="24" fill="white" transform="translate(0.62265 0.49054)"/>
</clipPath>
</defs>
</svg>
