<svg width="25" height="25" viewBox="0 0 25 25" fill="none" xmlns="http://www.w3.org/2000/svg">
<g clip-path="url(#clip0_189_4)">
<path d="M16.0123 5.96225C16.989 6.15282 17.8867 6.63051 18.5903 7.33419C19.294 8.03786 19.7717 8.93551 19.9623 9.91225L16.0123 5.96225ZM16.0123 1.96225C18.0416 2.18769 19.9339 3.09642 21.3785 4.53926C22.8232 5.98209 23.7343 7.87326 23.9623 9.90225L16.0123 1.96225ZM22.9623 17.8822V20.8822C22.9634 21.1608 22.9064 21.4364 22.7948 21.6916C22.6832 21.9468 22.5196 22.1758 22.3144 22.3641C22.1091 22.5524 21.8668 22.6957 21.603 22.785C21.3392 22.8742 21.0596 22.9073 20.7823 22.8822C17.7051 22.5479 14.7493 21.4964 12.1523 19.8123C9.7361 18.2769 7.68761 16.2284 6.15227 13.8123C4.46225 11.2035 3.41052 8.23324 3.08227 5.14225C3.05728 4.86572 3.09015 4.58701 3.17877 4.32387C3.2674 4.06074 3.40985 3.81894 3.59704 3.61387C3.78424 3.4088 4.01208 3.24496 4.26607 3.13277C4.52005 3.02058 4.79462 2.96251 5.07227 2.96225H8.07227C8.55758 2.95747 9.02807 3.12933 9.39604 3.44578C9.76401 3.76224 10.0044 4.2017 10.0723 4.68225C10.1989 5.64232 10.4337 6.58498 10.7723 7.49225C10.9068 7.85017 10.9359 8.23916 10.8562 8.61313C10.7764 8.9871 10.5911 9.33036 10.3223 9.60225L9.05227 10.8722C10.4758 13.3758 12.5487 15.4487 15.0523 16.8722L16.3223 15.6023C16.5942 15.3334 16.9374 15.1481 17.3114 15.0683C17.6854 14.9886 18.0744 15.0177 18.4323 15.1522C19.3395 15.4908 20.2822 15.7256 21.2423 15.8523C21.728 15.9208 22.1717 16.1655 22.4888 16.5397C22.8059 16.914 22.9744 17.3918 22.9623 17.8822Z" stroke="black" stroke-width="2" stroke-linecap="round" stroke-linejoin="round"/>
</g>
<defs>
<clipPath id="clip0_189_4">
<rect width="24" height="24" fill="white" transform="translate(0.96228 0.96225)"/>
</clipPath>
</defs>
</svg>
