<svg width="25" height="25" viewBox="0 0 25 25" fill="none" xmlns="http://www.w3.org/2000/svg">
<g clip-path="url(#clip0_254_21)">
<path d="M17.4232 21.8338V19.8338C17.4232 18.773 17.0017 17.7556 16.2516 17.0054C15.5014 16.2553 14.484 15.8338 13.4232 15.8338H5.42316C4.36229 15.8338 3.34488 16.2553 2.59473 17.0054C1.84458 17.7556 1.42316 18.773 1.42316 19.8338V21.8338" stroke="#8C8C8C" stroke-width="2" stroke-linecap="round" stroke-linejoin="round"/>
<path d="M9.42316 11.8338C11.6323 11.8338 13.4232 10.043 13.4232 7.83383C13.4232 5.62469 11.6323 3.83383 9.42316 3.83383C7.21402 3.83383 5.42316 5.62469 5.42316 7.83383C5.42316 10.043 7.21402 11.8338 9.42316 11.8338Z" stroke="#8C8C8C" stroke-width="2" stroke-linecap="round" stroke-linejoin="round"/>
<path d="M23.4232 21.8338V19.8338C23.4225 18.9476 23.1275 18.0866 22.5845 17.3862C22.0415 16.6857 21.2813 16.1854 20.4232 15.9638" stroke="#8C8C8C" stroke-width="2" stroke-linecap="round" stroke-linejoin="round"/>
<path d="M16.4232 3.96384C17.2836 4.18414 18.0462 4.68454 18.5908 5.38615C19.1354 6.08776 19.431 6.95067 19.431 7.83884C19.431 8.72701 19.1354 9.58992 18.5908 10.2915C18.0462 10.9931 17.2836 11.4935 16.4232 11.7138" stroke="#8C8C8C" stroke-width="2" stroke-linecap="round" stroke-linejoin="round"/>
</g>
<defs>
<clipPath id="clip0_254_21">
<rect width="24" height="24" fill="white" transform="translate(0.423157 0.833832)"/>
</clipPath>
</defs>
</svg>
