<svg width="25" height="25" viewBox="0 0 25 25" fill="none" xmlns="http://www.w3.org/2000/svg">
<path d="M3.30188 6.49054H5.30188H21.3019" stroke="white" stroke-width="2" stroke-linecap="round" stroke-linejoin="round"/>
<path d="M19.3019 6.49054V20.4905C19.3019 21.021 19.0912 21.5297 18.7161 21.9048C18.341 22.2798 17.8323 22.4905 17.3019 22.4905H7.30188C6.77145 22.4905 6.26274 22.2798 5.88767 21.9048C5.51259 21.5297 5.30188 21.021 5.30188 20.4905V6.49054M8.30188 6.49054V4.49054C8.30188 3.96011 8.51259 3.4514 8.88767 3.07633C9.26274 2.70125 9.77145 2.49054 10.3019 2.49054H14.3019C14.8323 2.49054 15.341 2.70125 15.7161 3.07633C16.0912 3.4514 16.3019 3.96011 16.3019 4.49054V6.49054" stroke="white" stroke-width="2" stroke-linecap="round" stroke-linejoin="round"/>
<path d="M10.3019 11.4905V17.4905" stroke="white" stroke-width="2" stroke-linecap="round" stroke-linejoin="round"/>
<path d="M14.3019 11.4905V17.4905" stroke="white" stroke-width="2" stroke-linecap="round" stroke-linejoin="round"/>
</svg>
