<svg width="25" height="25" viewBox="0 0 25 25" fill="none" xmlns="http://www.w3.org/2000/svg">
<g clip-path="url(#clip0_82_17)">
<path d="M23.7655 3.41823C22.8079 4.09371 21.7476 4.61034 20.6255 4.94823C20.0232 4.25574 19.2228 3.76492 18.3325 3.54215C17.4422 3.31939 16.505 3.37542 15.6476 3.70268C14.7901 4.02994 14.0539 4.61263 13.5385 5.37195C13.023 6.13126 12.7532 7.03056 12.7655 7.94823V8.94823C11.0081 8.9938 9.26676 8.60404 7.69649 7.81367C6.12623 7.02331 4.7758 5.85686 3.76548 4.41823C3.76548 4.41823 -0.234516 13.4182 8.76548 17.4182C6.70601 18.8162 4.25264 19.5172 1.76548 19.4182C10.7655 24.4182 21.7655 19.4182 21.7655 7.91823C21.7646 7.63968 21.7378 7.36182 21.6855 7.08823C22.7061 6.08172 23.4263 4.81094 23.7655 3.41823V3.41823Z" stroke="black" stroke-width="2" stroke-linecap="round" stroke-linejoin="round"/>
</g>
<defs>
<clipPath id="clip0_82_17">
<rect width="24" height="24" fill="white" transform="translate(0.765484 0.418243)"/>
</clipPath>
</defs>
</svg>
