<svg width="1363" height="167" viewBox="0 0 1363 167" fill="none" xmlns="http://www.w3.org/2000/svg">
<rect width="1363" height="167" rx="15" fill="#F0F0F0"/>
<path d="M0 15C0 6.71573 6.71573 0 15 0H37V167H15C6.71573 167 0 160.284 0 152V15Z" fill="#424241"/>
<path d="M100.906 54.9219L93.3945 52.2383V49.0859L103.602 53.375V55.6367L100.906 54.9219ZM93.3945 57.1719L100.918 54.4297L103.602 53.7852V56.0352L93.3945 60.3242V57.1719ZM121.789 56.3398H125.293C125.223 57.4883 124.906 58.5078 124.344 59.3984C123.789 60.2891 123.012 60.9844 122.012 61.4844C121.02 61.9844 119.824 62.2344 118.426 62.2344C117.332 62.2344 116.352 62.0469 115.484 61.6719C114.617 61.2891 113.875 60.7422 113.258 60.0312C112.648 59.3203 112.184 58.4609 111.863 57.4531C111.543 56.4453 111.383 55.3164 111.383 54.0664V52.8828C111.383 51.6328 111.547 50.5039 111.875 49.4961C112.211 48.4805 112.688 47.6172 113.305 46.9062C113.93 46.1953 114.676 45.6484 115.543 45.2656C116.41 44.8828 117.379 44.6914 118.449 44.6914C119.871 44.6914 121.07 44.9492 122.047 45.4648C123.031 45.9805 123.793 46.6914 124.332 47.5977C124.879 48.5039 125.207 49.5352 125.316 50.6914H121.801C121.762 50.0039 121.625 49.4219 121.391 48.9453C121.156 48.4609 120.801 48.0977 120.324 47.8555C119.855 47.6055 119.23 47.4805 118.449 47.4805C117.863 47.4805 117.352 47.5898 116.914 47.8086C116.477 48.0273 116.109 48.3594 115.812 48.8047C115.516 49.25 115.293 49.8125 115.145 50.4922C115.004 51.1641 114.934 51.9531 114.934 52.8594V54.0664C114.934 54.9492 115 55.7266 115.133 56.3984C115.266 57.0625 115.469 57.625 115.742 58.0859C116.023 58.5391 116.383 58.8828 116.82 59.1172C117.266 59.3438 117.801 59.457 118.426 59.457C119.16 59.457 119.766 59.3398 120.242 59.1055C120.719 58.8711 121.082 58.5234 121.332 58.0625C121.59 57.6016 121.742 57.0273 121.789 56.3398ZM126.852 55.7891V55.543C126.852 54.6133 126.984 53.7578 127.25 52.9766C127.516 52.1875 127.902 51.5039 128.41 50.9258C128.918 50.3477 129.543 49.8984 130.285 49.5781C131.027 49.25 131.879 49.0859 132.84 49.0859C133.801 49.0859 134.656 49.25 135.406 49.5781C136.156 49.8984 136.785 50.3477 137.293 50.9258C137.809 51.5039 138.199 52.1875 138.465 52.9766C138.73 53.7578 138.863 54.6133 138.863 55.543V55.7891C138.863 56.7109 138.73 57.5664 138.465 58.3555C138.199 59.1367 137.809 59.8203 137.293 60.4062C136.785 60.9844 136.16 61.4336 135.418 61.7539C134.676 62.0742 133.824 62.2344 132.863 62.2344C131.902 62.2344 131.047 62.0742 130.297 61.7539C129.555 61.4336 128.926 60.9844 128.41 60.4062C127.902 59.8203 127.516 59.1367 127.25 58.3555C126.984 57.5664 126.852 56.7109 126.852 55.7891ZM130.227 55.543V55.7891C130.227 56.3203 130.273 56.8164 130.367 57.2773C130.461 57.7383 130.609 58.1445 130.812 58.4961C131.023 58.8398 131.297 59.1094 131.633 59.3047C131.969 59.5 132.379 59.5977 132.863 59.5977C133.332 59.5977 133.734 59.5 134.07 59.3047C134.406 59.1094 134.676 58.8398 134.879 58.4961C135.082 58.1445 135.23 57.7383 135.324 57.2773C135.426 56.8164 135.477 56.3203 135.477 55.7891V55.543C135.477 55.0273 135.426 54.543 135.324 54.0898C135.23 53.6289 135.078 53.2227 134.867 52.8711C134.664 52.5117 134.395 52.2305 134.059 52.0273C133.723 51.8242 133.316 51.7227 132.84 51.7227C132.363 51.7227 131.957 51.8242 131.621 52.0273C131.293 52.2305 131.023 52.5117 130.812 52.8711C130.609 53.2227 130.461 53.6289 130.367 54.0898C130.273 54.543 130.227 55.0273 130.227 55.543ZM144.242 52.0273V62H140.867V49.3203H144.031L144.242 52.0273ZM143.75 55.2148H142.836C142.836 54.2773 142.957 53.4336 143.199 52.6836C143.441 51.9258 143.781 51.2812 144.219 50.75C144.656 50.2109 145.176 49.8008 145.777 49.5195C146.387 49.2305 147.066 49.0859 147.816 49.0859C148.41 49.0859 148.953 49.1719 149.445 49.3438C149.938 49.5156 150.359 49.7891 150.711 50.1641C151.07 50.5391 151.344 51.0352 151.531 51.6523C151.727 52.2695 151.824 53.0234 151.824 53.9141V62H148.426V53.9023C148.426 53.3398 148.348 52.9023 148.191 52.5898C148.035 52.2773 147.805 52.0586 147.5 51.9336C147.203 51.8008 146.836 51.7344 146.398 51.7344C145.945 51.7344 145.551 51.8242 145.215 52.0039C144.887 52.1836 144.613 52.4336 144.395 52.7539C144.184 53.0664 144.023 53.4336 143.914 53.8555C143.805 54.2773 143.75 54.7305 143.75 55.2148ZM161.246 58.4961C161.246 58.2539 161.176 58.0352 161.035 57.8398C160.895 57.6445 160.633 57.4648 160.25 57.3008C159.875 57.1289 159.332 56.9727 158.621 56.832C157.98 56.6914 157.383 56.5156 156.828 56.3047C156.281 56.0859 155.805 55.8242 155.398 55.5195C155 55.2148 154.688 54.8555 154.461 54.4414C154.234 54.0195 154.121 53.5391 154.121 53C154.121 52.4688 154.234 51.9688 154.461 51.5C154.695 51.0312 155.027 50.6172 155.457 50.2578C155.895 49.8906 156.426 49.6055 157.051 49.4023C157.684 49.1914 158.395 49.0859 159.184 49.0859C160.285 49.0859 161.23 49.2617 162.02 49.6133C162.816 49.9648 163.426 50.4492 163.848 51.0664C164.277 51.6758 164.492 52.3711 164.492 53.1523H161.117C161.117 52.8242 161.047 52.5312 160.906 52.2734C160.773 52.0078 160.562 51.8008 160.273 51.6523C159.992 51.4961 159.625 51.418 159.172 51.418C158.797 51.418 158.473 51.4844 158.199 51.6172C157.926 51.7422 157.715 51.9141 157.566 52.1328C157.426 52.3438 157.355 52.5781 157.355 52.8359C157.355 53.0312 157.395 53.207 157.473 53.3633C157.559 53.5117 157.695 53.6484 157.883 53.7734C158.07 53.8984 158.312 54.0156 158.609 54.125C158.914 54.2266 159.289 54.3203 159.734 54.4062C160.648 54.5938 161.465 54.8398 162.184 55.1445C162.902 55.4414 163.473 55.8477 163.895 56.3633C164.316 56.8711 164.527 57.5391 164.527 58.3672C164.527 58.9297 164.402 59.4453 164.152 59.9141C163.902 60.3828 163.543 60.793 163.074 61.1445C162.605 61.4883 162.043 61.7578 161.387 61.9531C160.738 62.1406 160.008 62.2344 159.195 62.2344C158.016 62.2344 157.016 62.0234 156.195 61.6016C155.383 61.1797 154.766 60.6445 154.344 59.9961C153.93 59.3398 153.723 58.668 153.723 57.9805H156.922C156.938 58.4414 157.055 58.8125 157.273 59.0938C157.5 59.375 157.785 59.5781 158.129 59.7031C158.48 59.8281 158.859 59.8906 159.266 59.8906C159.703 59.8906 160.066 59.832 160.355 59.7148C160.645 59.5898 160.863 59.4258 161.012 59.2227C161.168 59.0117 161.246 58.7695 161.246 58.4961ZM174.219 58.9648V49.3203H177.594V62H174.418L174.219 58.9648ZM174.594 56.3633L175.59 56.3398C175.59 57.1836 175.492 57.9688 175.297 58.6953C175.102 59.4141 174.809 60.0391 174.418 60.5703C174.027 61.0938 173.535 61.5039 172.941 61.8008C172.348 62.0898 171.648 62.2344 170.844 62.2344C170.227 62.2344 169.656 62.1484 169.133 61.9766C168.617 61.7969 168.172 61.5195 167.797 61.1445C167.43 60.7617 167.141 60.2734 166.93 59.6797C166.727 59.0781 166.625 58.3555 166.625 57.5117V49.3203H170V57.5352C170 57.9102 170.043 58.2266 170.129 58.4844C170.223 58.7422 170.352 58.9531 170.516 59.1172C170.68 59.2812 170.871 59.3984 171.09 59.4688C171.316 59.5391 171.566 59.5742 171.84 59.5742C172.535 59.5742 173.082 59.4336 173.48 59.1523C173.887 58.8711 174.172 58.4883 174.336 58.0039C174.508 57.5117 174.594 56.9648 174.594 56.3633ZM183.734 44V62H180.348V44H183.734ZM192.734 49.3203V51.7109H185.352V49.3203H192.734ZM187.18 46.1914H190.555V58.1797C190.555 58.5469 190.602 58.8281 190.695 59.0234C190.797 59.2188 190.945 59.3555 191.141 59.4336C191.336 59.5039 191.582 59.5391 191.879 59.5391C192.09 59.5391 192.277 59.5312 192.441 59.5156C192.613 59.4922 192.758 59.4688 192.875 59.4453L192.887 61.9297C192.598 62.0234 192.285 62.0977 191.949 62.1523C191.613 62.207 191.242 62.2344 190.836 62.2344C190.094 62.2344 189.445 62.1133 188.891 61.8711C188.344 61.6211 187.922 61.2227 187.625 60.6758C187.328 60.1289 187.18 59.4102 187.18 58.5195V46.1914ZM207.477 59.1406V53.4922C207.477 53.0859 207.41 52.7383 207.277 52.4492C207.145 52.1523 206.938 51.9219 206.656 51.7578C206.383 51.5938 206.027 51.5117 205.59 51.5117C205.215 51.5117 204.891 51.5781 204.617 51.7109C204.344 51.8359 204.133 52.0195 203.984 52.2617C203.836 52.4961 203.762 52.7734 203.762 53.0938H200.387C200.387 52.5547 200.512 52.043 200.762 51.5586C201.012 51.0742 201.375 50.6484 201.852 50.2812C202.328 49.9062 202.895 49.6133 203.551 49.4023C204.215 49.1914 204.957 49.0859 205.777 49.0859C206.762 49.0859 207.637 49.25 208.402 49.5781C209.168 49.9062 209.77 50.3984 210.207 51.0547C210.652 51.7109 210.875 52.5312 210.875 53.5156V58.9414C210.875 59.6367 210.918 60.207 211.004 60.6523C211.09 61.0898 211.215 61.4727 211.379 61.8008V62H207.969C207.805 61.6562 207.68 61.2266 207.594 60.7109C207.516 60.1875 207.477 59.6641 207.477 59.1406ZM207.922 54.2773L207.945 56.1875H206.059C205.613 56.1875 205.227 56.2383 204.898 56.3398C204.57 56.4414 204.301 56.5859 204.09 56.7734C203.879 56.9531 203.723 57.1641 203.621 57.4062C203.527 57.6484 203.48 57.9141 203.48 58.2031C203.48 58.4922 203.547 58.7539 203.68 58.9883C203.812 59.2148 204.004 59.3945 204.254 59.5273C204.504 59.6523 204.797 59.7148 205.133 59.7148C205.641 59.7148 206.082 59.6133 206.457 59.4102C206.832 59.207 207.121 58.957 207.324 58.6602C207.535 58.3633 207.645 58.082 207.652 57.8164L208.543 59.2461C208.418 59.5664 208.246 59.8984 208.027 60.2422C207.816 60.5859 207.547 60.9102 207.219 61.2148C206.891 61.5117 206.496 61.7578 206.035 61.9531C205.574 62.1406 205.027 62.2344 204.395 62.2344C203.59 62.2344 202.859 62.0742 202.203 61.7539C201.555 61.4258 201.039 60.9766 200.656 60.4062C200.281 59.8281 200.094 59.1719 200.094 58.4375C200.094 57.7734 200.219 57.1836 200.469 56.668C200.719 56.1523 201.086 55.7188 201.57 55.3672C202.062 55.0078 202.676 54.7383 203.41 54.5586C204.145 54.3711 204.996 54.2773 205.965 54.2773H207.922ZM224.902 62H221.188L221.211 59.2578H224.902C225.824 59.2578 226.602 59.0508 227.234 58.6367C227.867 58.2148 228.344 57.6016 228.664 56.7969C228.992 55.9922 229.156 55.0195 229.156 53.8789V53.0469C229.156 52.1719 229.062 51.4023 228.875 50.7383C228.695 50.0742 228.426 49.5156 228.066 49.0625C227.707 48.6094 227.266 48.2695 226.742 48.043C226.219 47.8086 225.617 47.6914 224.938 47.6914H221.117V44.9375H224.938C226.078 44.9375 227.121 45.1328 228.066 45.5234C229.02 45.9062 229.844 46.457 230.539 47.1758C231.234 47.8945 231.77 48.7539 232.145 49.7539C232.527 50.7461 232.719 51.8516 232.719 53.0703V53.8789C232.719 55.0898 232.527 56.1953 232.145 57.1953C231.77 58.1953 231.234 59.0547 230.539 59.7734C229.852 60.4844 229.027 61.0352 228.066 61.4258C227.113 61.8086 226.059 62 224.902 62ZM223.18 44.9375V62H219.664V44.9375H223.18ZM234.523 55.7891V55.543C234.523 54.6133 234.656 53.7578 234.922 52.9766C235.188 52.1875 235.574 51.5039 236.082 50.9258C236.59 50.3477 237.215 49.8984 237.957 49.5781C238.699 49.25 239.551 49.0859 240.512 49.0859C241.473 49.0859 242.328 49.25 243.078 49.5781C243.828 49.8984 244.457 50.3477 244.965 50.9258C245.48 51.5039 245.871 52.1875 246.137 52.9766C246.402 53.7578 246.535 54.6133 246.535 55.543V55.7891C246.535 56.7109 246.402 57.5664 246.137 58.3555C245.871 59.1367 245.48 59.8203 244.965 60.4062C244.457 60.9844 243.832 61.4336 243.09 61.7539C242.348 62.0742 241.496 62.2344 240.535 62.2344C239.574 62.2344 238.719 62.0742 237.969 61.7539C237.227 61.4336 236.598 60.9844 236.082 60.4062C235.574 59.8203 235.188 59.1367 234.922 58.3555C234.656 57.5664 234.523 56.7109 234.523 55.7891ZM237.898 55.543V55.7891C237.898 56.3203 237.945 56.8164 238.039 57.2773C238.133 57.7383 238.281 58.1445 238.484 58.4961C238.695 58.8398 238.969 59.1094 239.305 59.3047C239.641 59.5 240.051 59.5977 240.535 59.5977C241.004 59.5977 241.406 59.5 241.742 59.3047C242.078 59.1094 242.348 58.8398 242.551 58.4961C242.754 58.1445 242.902 57.7383 242.996 57.2773C243.098 56.8164 243.148 56.3203 243.148 55.7891V55.543C243.148 55.0273 243.098 54.543 242.996 54.0898C242.902 53.6289 242.75 53.2227 242.539 52.8711C242.336 52.5117 242.066 52.2305 241.73 52.0273C241.395 51.8242 240.988 51.7227 240.512 51.7227C240.035 51.7227 239.629 51.8242 239.293 52.0273C238.965 52.2305 238.695 52.5117 238.484 52.8711C238.281 53.2227 238.133 53.6289 238.039 54.0898C237.945 54.543 237.898 55.0273 237.898 55.543ZM253.848 59.5977C254.262 59.5977 254.629 59.5195 254.949 59.3633C255.27 59.1992 255.52 58.9727 255.699 58.6836C255.887 58.3867 255.984 58.0391 255.992 57.6406H259.168C259.16 58.5312 258.922 59.3242 258.453 60.0195C257.984 60.707 257.355 61.25 256.566 61.6484C255.777 62.0391 254.895 62.2344 253.918 62.2344C252.934 62.2344 252.074 62.0703 251.34 61.7422C250.613 61.4141 250.008 60.9609 249.523 60.3828C249.039 59.7969 248.676 59.1172 248.434 58.3438C248.191 57.5625 248.07 56.7266 248.07 55.8359V55.4961C248.07 54.5977 248.191 53.7617 248.434 52.9883C248.676 52.207 249.039 51.5273 249.523 50.9492C250.008 50.3633 250.613 49.9062 251.34 49.5781C252.066 49.25 252.918 49.0859 253.895 49.0859C254.934 49.0859 255.844 49.2852 256.625 49.6836C257.414 50.082 258.031 50.6523 258.477 51.3945C258.93 52.1289 259.16 53 259.168 54.0078H255.992C255.984 53.5859 255.895 53.2031 255.723 52.8594C255.559 52.5156 255.316 52.2422 254.996 52.0391C254.684 51.8281 254.297 51.7227 253.836 51.7227C253.344 51.7227 252.941 51.8281 252.629 52.0391C252.316 52.2422 252.074 52.5234 251.902 52.8828C251.73 53.2344 251.609 53.6367 251.539 54.0898C251.477 54.5352 251.445 55.0039 251.445 55.4961V55.8359C251.445 56.3281 251.477 56.8008 251.539 57.2539C251.602 57.707 251.719 58.1094 251.891 58.4609C252.07 58.8125 252.316 59.0898 252.629 59.293C252.941 59.4961 253.348 59.5977 253.848 59.5977ZM267.336 49.3203V51.7109H259.953V49.3203H267.336ZM261.781 46.1914H265.156V58.1797C265.156 58.5469 265.203 58.8281 265.297 59.0234C265.398 59.2188 265.547 59.3555 265.742 59.4336C265.938 59.5039 266.184 59.5391 266.48 59.5391C266.691 59.5391 266.879 59.5312 267.043 59.5156C267.215 59.4922 267.359 59.4688 267.477 59.4453L267.488 61.9297C267.199 62.0234 266.887 62.0977 266.551 62.1523C266.215 62.207 265.844 62.2344 265.438 62.2344C264.695 62.2344 264.047 62.1133 263.492 61.8711C262.945 61.6211 262.523 61.2227 262.227 60.6758C261.93 60.1289 261.781 59.4102 261.781 58.5195V46.1914ZM268.414 55.7891V55.543C268.414 54.6133 268.547 53.7578 268.812 52.9766C269.078 52.1875 269.465 51.5039 269.973 50.9258C270.48 50.3477 271.105 49.8984 271.848 49.5781C272.59 49.25 273.441 49.0859 274.402 49.0859C275.363 49.0859 276.219 49.25 276.969 49.5781C277.719 49.8984 278.348 50.3477 278.855 50.9258C279.371 51.5039 279.762 52.1875 280.027 52.9766C280.293 53.7578 280.426 54.6133 280.426 55.543V55.7891C280.426 56.7109 280.293 57.5664 280.027 58.3555C279.762 59.1367 279.371 59.8203 278.855 60.4062C278.348 60.9844 277.723 61.4336 276.98 61.7539C276.238 62.0742 275.387 62.2344 274.426 62.2344C273.465 62.2344 272.609 62.0742 271.859 61.7539C271.117 61.4336 270.488 60.9844 269.973 60.4062C269.465 59.8203 269.078 59.1367 268.812 58.3555C268.547 57.5664 268.414 56.7109 268.414 55.7891ZM271.789 55.543V55.7891C271.789 56.3203 271.836 56.8164 271.93 57.2773C272.023 57.7383 272.172 58.1445 272.375 58.4961C272.586 58.8398 272.859 59.1094 273.195 59.3047C273.531 59.5 273.941 59.5977 274.426 59.5977C274.895 59.5977 275.297 59.5 275.633 59.3047C275.969 59.1094 276.238 58.8398 276.441 58.4961C276.645 58.1445 276.793 57.7383 276.887 57.2773C276.988 56.8164 277.039 56.3203 277.039 55.7891V55.543C277.039 55.0273 276.988 54.543 276.887 54.0898C276.793 53.6289 276.641 53.2227 276.43 52.8711C276.227 52.5117 275.957 52.2305 275.621 52.0273C275.285 51.8242 274.879 51.7227 274.402 51.7227C273.926 51.7227 273.52 51.8242 273.184 52.0273C272.855 52.2305 272.586 52.5117 272.375 52.8711C272.172 53.2227 272.023 53.6289 271.93 54.0898C271.836 54.543 271.789 55.0273 271.789 55.543ZM285.875 52.0859V62H282.5V49.3203H285.676L285.875 52.0859ZM289.695 49.2383L289.637 52.3672C289.473 52.3438 289.273 52.3242 289.039 52.3086C288.812 52.2852 288.605 52.2734 288.418 52.2734C287.941 52.2734 287.527 52.3359 287.176 52.4609C286.832 52.5781 286.543 52.7539 286.309 52.9883C286.082 53.2227 285.91 53.5078 285.793 53.8438C285.684 54.1797 285.621 54.5625 285.605 54.9922L284.926 54.7812C284.926 53.9609 285.008 53.207 285.172 52.5195C285.336 51.8242 285.574 51.2188 285.887 50.7031C286.207 50.1875 286.598 49.7891 287.059 49.5078C287.52 49.2266 288.047 49.0859 288.641 49.0859C288.828 49.0859 289.02 49.1016 289.215 49.1328C289.41 49.1562 289.57 49.1914 289.695 49.2383Z" fill="#888888"/>
<path d="M101.822 115.1L108.194 86.0078H111.995L114.061 88.4907L107.271 118H103.074L101.822 115.1ZM100.13 86.0078L105.513 115.319L104.129 118H99.2729L92.4834 86.0078H100.13ZM117.554 115.166L122.894 86.0078H130.518L123.729 118H118.895L117.554 115.166ZM114.742 86.0078L121.268 115.275L119.949 118H115.752L108.809 88.4468L110.962 86.0078H114.742ZM141.021 94.2256V118H133.594V94.2256H141.021ZM133.155 88.0952C133.155 87.0405 133.536 86.1763 134.297 85.5024C135.059 84.8286 136.048 84.4917 137.264 84.4917C138.479 84.4917 139.468 84.8286 140.23 85.5024C140.992 86.1763 141.373 87.0405 141.373 88.0952C141.373 89.1499 140.992 90.0142 140.23 90.688C139.468 91.3618 138.479 91.6987 137.264 91.6987C136.048 91.6987 135.059 91.3618 134.297 90.688C133.536 90.0142 133.155 89.1499 133.155 88.0952ZM153.062 100.114V118H145.657V94.2256H152.579L153.062 100.114ZM160.093 94.0498L159.961 100.927C159.668 100.898 159.273 100.861 158.775 100.817C158.277 100.773 157.859 100.751 157.522 100.751C156.658 100.751 155.911 100.854 155.281 101.059C154.666 101.25 154.153 101.542 153.743 101.938C153.348 102.319 153.055 102.802 152.864 103.388C152.688 103.974 152.608 104.655 152.623 105.432L151.282 104.553C151.282 102.956 151.436 101.506 151.744 100.202C152.066 98.8838 152.52 97.7485 153.106 96.7964C153.692 95.8296 154.402 95.0898 155.237 94.5771C156.072 94.0498 157.01 93.7861 158.05 93.7861C158.416 93.7861 158.775 93.8081 159.126 93.8521C159.493 93.896 159.815 93.9619 160.093 94.0498ZM173.716 118.439C171.783 118.439 170.054 118.139 168.531 117.539C167.007 116.923 165.718 116.081 164.664 115.012C163.624 113.942 162.825 112.712 162.269 111.32C161.727 109.929 161.456 108.457 161.456 106.904V106.069C161.456 104.326 161.697 102.714 162.181 101.235C162.664 99.7407 163.382 98.437 164.334 97.3237C165.286 96.2104 166.48 95.3462 167.916 94.731C169.351 94.1011 171.021 93.7861 172.925 93.7861C174.61 93.7861 176.119 94.0571 177.452 94.5991C178.785 95.1411 179.913 95.9175 180.835 96.9282C181.773 97.939 182.483 99.1621 182.967 100.598C183.465 102.033 183.714 103.645 183.714 105.432V108.442H164.29V103.806H176.485V103.234C176.5 102.443 176.36 101.77 176.067 101.213C175.789 100.656 175.379 100.231 174.837 99.9385C174.295 99.6455 173.636 99.499 172.859 99.499C172.054 99.499 171.387 99.6748 170.86 100.026C170.347 100.378 169.944 100.861 169.651 101.477C169.373 102.077 169.175 102.773 169.058 103.564C168.941 104.355 168.882 105.19 168.882 106.069V106.904C168.882 107.783 169 108.581 169.234 109.299C169.483 110.017 169.834 110.632 170.289 111.145C170.757 111.643 171.314 112.031 171.958 112.309C172.618 112.587 173.365 112.727 174.2 112.727C175.21 112.727 176.207 112.536 177.188 112.155C178.169 111.774 179.012 111.145 179.715 110.266L183.077 114.265C182.593 114.953 181.905 115.62 181.011 116.264C180.132 116.909 179.078 117.436 177.847 117.846C176.617 118.242 175.24 118.439 173.716 118.439ZM195.799 118H188.35V92.292C188.35 90.4463 188.724 88.8936 189.471 87.6338C190.218 86.374 191.272 85.4219 192.635 84.7773C193.997 84.1182 195.608 83.7886 197.469 83.7886C198.113 83.7886 198.721 83.8325 199.292 83.9204C199.864 84.0083 200.42 84.1182 200.962 84.25L200.984 89.6992C200.721 89.626 200.45 89.5747 200.171 89.5454C199.893 89.5161 199.549 89.5015 199.139 89.5015C198.421 89.5015 197.813 89.6113 197.315 89.8311C196.817 90.0361 196.436 90.3511 196.172 90.7759C195.923 91.186 195.799 91.6914 195.799 92.292V118ZM200.413 94.2256V99.3672H184.922V94.2256H200.413ZM210.542 100.114V118H203.138V94.2256H210.059L210.542 100.114ZM217.574 94.0498L217.442 100.927C217.149 100.898 216.753 100.861 216.255 100.817C215.757 100.773 215.34 100.751 215.003 100.751C214.139 100.751 213.392 100.854 212.762 101.059C212.146 101.25 211.634 101.542 211.224 101.938C210.828 102.319 210.535 102.802 210.345 103.388C210.169 103.974 210.088 104.655 210.103 105.432L208.763 104.553C208.763 102.956 208.917 101.506 209.224 100.202C209.546 98.8838 210 97.7485 210.586 96.7964C211.172 95.8296 211.883 95.0898 212.718 94.5771C213.553 94.0498 214.49 93.7861 215.53 93.7861C215.896 93.7861 216.255 93.8081 216.607 93.8521C216.973 93.896 217.295 93.9619 217.574 94.0498ZM231.812 112.023V102.224C231.812 101.55 231.717 100.971 231.526 100.488C231.336 100.004 231.036 99.6309 230.625 99.3672C230.215 99.0889 229.666 98.9497 228.978 98.9497C228.421 98.9497 227.945 99.0449 227.549 99.2354C227.154 99.4258 226.854 99.7114 226.648 100.092C226.443 100.473 226.341 100.957 226.341 101.542H218.936C218.936 100.444 219.178 99.4258 219.661 98.4883C220.159 97.5361 220.862 96.7085 221.771 96.0054C222.693 95.3022 223.792 94.7603 225.066 94.3794C226.355 93.9839 227.791 93.7861 229.373 93.7861C231.263 93.7861 232.947 94.1011 234.427 94.731C235.921 95.3608 237.1 96.3057 237.964 97.5654C238.829 98.8105 239.261 100.378 239.261 102.268V112.001C239.261 113.554 239.349 114.733 239.524 115.539C239.7 116.33 239.949 117.026 240.271 117.626V118H232.845C232.493 117.268 232.229 116.374 232.054 115.319C231.893 114.25 231.812 113.151 231.812 112.023ZM232.713 103.476L232.757 107.431H229.483C228.794 107.431 228.208 107.526 227.725 107.717C227.256 107.907 226.875 108.171 226.583 108.508C226.304 108.83 226.099 109.196 225.967 109.606C225.85 110.017 225.792 110.449 225.792 110.903C225.792 111.342 225.894 111.738 226.099 112.089C226.319 112.426 226.612 112.69 226.978 112.88C227.344 113.071 227.754 113.166 228.208 113.166C229.029 113.166 229.725 113.012 230.296 112.705C230.882 112.382 231.329 111.994 231.636 111.54C231.944 111.086 232.098 110.661 232.098 110.266L233.724 113.298C233.431 113.884 233.094 114.477 232.713 115.078C232.347 115.678 231.885 116.235 231.329 116.748C230.787 117.246 230.12 117.656 229.329 117.978C228.538 118.286 227.579 118.439 226.451 118.439C224.986 118.439 223.638 118.139 222.408 117.539C221.192 116.938 220.218 116.103 219.485 115.034C218.753 113.95 218.387 112.705 218.387 111.298C218.387 110.068 218.606 108.969 219.046 108.002C219.5 107.036 220.181 106.215 221.089 105.542C221.998 104.868 223.155 104.355 224.561 104.003C225.967 103.652 227.623 103.476 229.527 103.476H232.713ZM250.84 99.2573V118H243.436V94.2256H250.379L250.84 99.2573ZM249.939 105.3L248.248 105.344C248.248 103.674 248.445 102.136 248.841 100.729C249.236 99.3232 249.822 98.1001 250.599 97.0601C251.375 96.02 252.327 95.2144 253.455 94.6431C254.598 94.0718 255.916 93.7861 257.41 93.7861C258.45 93.7861 259.395 93.9473 260.245 94.2695C261.094 94.5771 261.827 95.0679 262.442 95.7417C263.057 96.4009 263.526 97.2651 263.848 98.3345C264.185 99.3892 264.354 100.656 264.354 102.136V118H256.949V103.081C256.949 102.07 256.832 101.308 256.597 100.795C256.377 100.283 256.055 99.9385 255.63 99.7627C255.206 99.5869 254.686 99.499 254.07 99.499C253.426 99.499 252.847 99.6455 252.334 99.9385C251.822 100.231 251.382 100.642 251.016 101.169C250.665 101.682 250.394 102.29 250.203 102.993C250.027 103.696 249.939 104.465 249.939 105.3ZM263.519 105.3L261.453 105.344C261.453 103.674 261.636 102.136 262.002 100.729C262.383 99.3232 262.947 98.1001 263.694 97.0601C264.456 96.02 265.401 95.2144 266.529 94.6431C267.657 94.0718 268.968 93.7861 270.462 93.7861C271.546 93.7861 272.542 93.9473 273.45 94.2695C274.358 94.5918 275.142 95.1118 275.801 95.8296C276.46 96.5474 276.973 97.4995 277.339 98.686C277.706 99.8579 277.889 101.308 277.889 103.037V118H270.462V103.037C270.462 102.055 270.345 101.315 270.11 100.817C269.891 100.305 269.568 99.9604 269.144 99.7847C268.719 99.5942 268.213 99.499 267.627 99.499C266.924 99.499 266.316 99.6455 265.804 99.9385C265.291 100.231 264.859 100.642 264.507 101.169C264.17 101.682 263.921 102.29 263.76 102.993C263.599 103.696 263.519 104.465 263.519 105.3ZM293.643 118.439C291.709 118.439 289.981 118.139 288.458 117.539C286.934 116.923 285.645 116.081 284.59 115.012C283.55 113.942 282.752 112.712 282.195 111.32C281.653 109.929 281.382 108.457 281.382 106.904V106.069C281.382 104.326 281.624 102.714 282.107 101.235C282.591 99.7407 283.309 98.437 284.261 97.3237C285.213 96.2104 286.407 95.3462 287.842 94.731C289.278 94.1011 290.948 93.7861 292.852 93.7861C294.537 93.7861 296.045 94.0571 297.378 94.5991C298.711 95.1411 299.839 95.9175 300.762 96.9282C301.7 97.939 302.41 99.1621 302.894 100.598C303.392 102.033 303.641 103.645 303.641 105.432V108.442H284.217V103.806H296.412V103.234C296.426 102.443 296.287 101.77 295.994 101.213C295.716 100.656 295.306 100.231 294.764 99.9385C294.222 99.6455 293.562 99.499 292.786 99.499C291.98 99.499 291.314 99.6748 290.787 100.026C290.274 100.378 289.871 100.861 289.578 101.477C289.3 102.077 289.102 102.773 288.985 103.564C288.868 104.355 288.809 105.19 288.809 106.069V106.904C288.809 107.783 288.926 108.581 289.161 109.299C289.41 110.017 289.761 110.632 290.215 111.145C290.684 111.643 291.241 112.031 291.885 112.309C292.544 112.587 293.292 112.727 294.126 112.727C295.137 112.727 296.133 112.536 297.115 112.155C298.096 111.774 298.938 111.145 299.642 110.266L303.003 114.265C302.52 114.953 301.832 115.62 300.938 116.264C300.059 116.909 299.004 117.436 297.774 117.846C296.543 118.242 295.167 118.439 293.643 118.439ZM319.109 111.32C319.109 110.91 318.97 110.559 318.692 110.266C318.428 109.958 317.959 109.68 317.286 109.431C316.612 109.167 315.667 108.903 314.451 108.64C313.294 108.391 312.203 108.061 311.177 107.651C310.167 107.241 309.28 106.743 308.519 106.157C307.757 105.571 307.156 104.875 306.717 104.069C306.292 103.264 306.08 102.341 306.08 101.301C306.08 100.29 306.292 99.3379 306.717 98.4443C307.156 97.5361 307.793 96.7378 308.628 96.0493C309.478 95.3462 310.511 94.7969 311.727 94.4014C312.942 93.9912 314.327 93.7861 315.879 93.7861C318.018 93.7861 319.864 94.1157 321.417 94.7749C322.969 95.4194 324.163 96.3276 324.998 97.4995C325.848 98.6567 326.272 99.9971 326.272 101.521H318.868C318.868 100.92 318.765 100.407 318.56 99.9824C318.37 99.5576 318.055 99.2354 317.615 99.0156C317.176 98.7812 316.59 98.6641 315.857 98.6641C315.345 98.6641 314.876 98.7593 314.451 98.9497C314.041 99.1401 313.711 99.4038 313.462 99.7407C313.213 100.078 313.089 100.473 313.089 100.927C313.089 101.25 313.162 101.542 313.309 101.806C313.47 102.055 313.711 102.29 314.034 102.509C314.356 102.714 314.766 102.905 315.264 103.081C315.762 103.242 316.363 103.388 317.066 103.52C318.663 103.813 320.157 104.23 321.548 104.772C322.94 105.314 324.068 106.083 324.932 107.08C325.811 108.076 326.25 109.416 326.25 111.101C326.25 112.155 326.009 113.129 325.525 114.023C325.042 114.902 324.346 115.678 323.438 116.352C322.53 117.011 321.438 117.524 320.164 117.89C318.89 118.256 317.454 118.439 315.857 118.439C313.587 118.439 311.668 118.037 310.101 117.231C308.533 116.411 307.347 115.385 306.541 114.155C305.75 112.91 305.354 111.65 305.354 110.375H312.254C312.283 111.108 312.459 111.708 312.781 112.177C313.118 112.646 313.565 112.99 314.122 113.21C314.678 113.43 315.323 113.54 316.055 113.54C316.729 113.54 317.286 113.444 317.725 113.254C318.179 113.063 318.523 112.807 318.758 112.485C318.992 112.148 319.109 111.76 319.109 111.32Z" fill="#424241"/>
<path d="M1363 15C1363 6.71573 1356.28 0 1348 0H1134V167H1348C1356.28 167 1363 160.284 1363 152V15Z" fill="#022E7A"/>
<path fill-rule="evenodd" clip-rule="evenodd" d="M1203 49C1203 47.8954 1203.9 47 1205 47H1292.5C1293.6 47 1294.5 47.8954 1294.5 49V118.996C1294.5 120.101 1293.6 120.996 1292.5 120.996H1205C1203.9 120.996 1203 120.101 1203 118.996V49ZM1207 51V55.4945H1290.5V51H1207ZM1290.5 59.4945H1235.44V116.996H1290.5V59.4945ZM1231.44 116.996V59.4945H1207V116.996H1231.44Z" fill="white"/>
<path fill-rule="evenodd" clip-rule="evenodd" d="M1209.97 64.8004C1209.97 63.6958 1210.87 62.8004 1211.97 62.8004H1225.97C1227.08 62.8004 1227.97 63.6958 1227.97 64.8004V84.1956C1227.97 85.3001 1227.08 86.1956 1225.97 86.1956H1211.97C1210.87 86.1956 1209.97 85.3001 1209.97 84.1956V64.8004ZM1213.97 66.8004V82.1956H1223.97V66.8004H1213.97ZM1239.58 65.6964C1239.58 64.5918 1240.47 63.6964 1241.58 63.6964H1284.5C1285.61 63.6964 1286.5 64.5918 1286.5 65.6964V111.905C1286.5 113.01 1285.61 113.905 1284.5 113.905H1241.58C1240.47 113.905 1239.58 113.01 1239.58 111.905V65.6964ZM1243.58 67.6964V109.905H1282.5V67.6964H1243.58ZM1209.81 95.9363C1209.81 94.8317 1210.71 93.9363 1211.81 93.9363H1220.73C1221.84 93.9363 1222.73 94.8317 1222.73 95.9363C1222.73 97.0409 1221.84 97.9363 1220.73 97.9363H1211.81C1210.71 97.9363 1209.81 97.0409 1209.81 95.9363ZM1209.81 102.936C1209.81 101.832 1210.71 100.936 1211.81 100.936H1226.35C1227.46 100.936 1228.35 101.832 1228.35 102.936C1228.35 104.041 1227.46 104.936 1226.35 104.936H1211.81C1210.71 104.936 1209.81 104.041 1209.81 102.936ZM1209.81 109.936C1209.81 108.832 1210.71 107.936 1211.81 107.936H1220.73C1221.84 107.936 1222.73 108.832 1222.73 109.936C1222.73 111.041 1221.84 111.936 1220.73 111.936H1211.81C1210.71 111.936 1209.81 111.041 1209.81 109.936Z" fill="white"/>
</svg>
