<svg width="1363" height="301" viewBox="0 0 1363 301" fill="none" xmlns="http://www.w3.org/2000/svg">
<rect width="1363" height="301" rx="15" fill="#F0F0F0"/>
<path d="M0 15C0 6.71573 6.71573 0 15 0H37V301H15C6.71573 301 0 294.284 0 286V15Z" fill="#022E7A"/>
<path d="M117.217 130.76H126.617C126.491 133.482 125.757 135.881 124.415 137.958C123.072 140.034 121.21 141.655 118.829 142.818C116.465 143.964 113.672 144.537 110.45 144.537C107.836 144.537 105.499 144.098 103.44 143.221C101.399 142.344 99.6628 141.082 98.2305 139.435C96.8161 137.787 95.7329 135.791 94.981 133.446C94.2469 131.1 93.8799 128.46 93.8799 125.523V123.402C93.8799 120.466 94.2648 117.825 95.0347 115.479C95.8224 113.116 96.9325 111.111 98.3647 109.464C99.8149 107.799 101.552 106.528 103.575 105.65C105.598 104.773 107.845 104.334 110.315 104.334C113.717 104.334 116.591 104.943 118.936 106.161C121.281 107.378 123.099 109.052 124.388 111.183C125.677 113.295 126.438 115.703 126.67 118.407H117.271C117.235 116.939 116.985 115.712 116.519 114.728C116.054 113.725 115.319 112.973 114.317 112.472C113.314 111.97 111.98 111.72 110.315 111.72C109.152 111.72 108.14 111.935 107.281 112.364C106.421 112.794 105.705 113.474 105.132 114.405C104.559 115.336 104.13 116.545 103.843 118.031C103.575 119.499 103.44 121.271 103.44 123.348V125.523C103.44 127.6 103.566 129.373 103.816 130.841C104.067 132.309 104.47 133.508 105.025 134.439C105.58 135.37 106.296 136.06 107.173 136.507C108.069 136.937 109.161 137.152 110.45 137.152C111.882 137.152 113.09 136.928 114.075 136.48C115.06 136.015 115.821 135.317 116.358 134.386C116.895 133.437 117.181 132.228 117.217 130.76ZM129.517 129.767V129.203C129.517 127.072 129.821 125.112 130.43 123.321C131.039 121.513 131.934 119.946 133.116 118.622C134.297 117.297 135.757 116.267 137.493 115.533C139.23 114.781 141.235 114.405 143.509 114.405C145.8 114.405 147.815 114.781 149.551 115.533C151.306 116.267 152.774 117.297 153.956 118.622C155.137 119.946 156.032 121.513 156.641 123.321C157.25 125.112 157.554 127.072 157.554 129.203V129.767C157.554 131.879 157.25 133.84 156.641 135.648C156.032 137.438 155.137 139.005 153.956 140.348C152.774 141.673 151.315 142.702 149.578 143.436C147.841 144.17 145.836 144.537 143.562 144.537C141.289 144.537 139.275 144.17 137.52 143.436C135.765 142.702 134.297 141.673 133.116 140.348C131.934 139.005 131.039 137.438 130.43 135.648C129.821 133.84 129.517 131.879 129.517 129.767ZM138.567 129.203V129.767C138.567 130.859 138.648 131.879 138.809 132.828C138.97 133.777 139.239 134.61 139.615 135.326C139.991 136.024 140.501 136.57 141.146 136.964C141.79 137.358 142.596 137.555 143.562 137.555C144.511 137.555 145.299 137.358 145.926 136.964C146.57 136.57 147.081 136.024 147.457 135.326C147.833 134.61 148.101 133.777 148.262 132.828C148.423 131.879 148.504 130.859 148.504 129.767V129.203C148.504 128.146 148.423 127.153 148.262 126.222C148.101 125.273 147.833 124.44 147.457 123.724C147.081 122.99 146.57 122.417 145.926 122.005C145.281 121.594 144.476 121.388 143.509 121.388C142.56 121.388 141.763 121.594 141.119 122.005C140.492 122.417 139.991 122.99 139.615 123.724C139.239 124.44 138.97 125.273 138.809 126.222C138.648 127.153 138.567 128.146 138.567 129.203ZM170.472 121.146V144H161.421V114.942H169.908L170.472 121.146ZM169.397 128.478L167.276 128.531C167.276 126.311 167.544 124.333 168.082 122.596C168.619 120.842 169.38 119.356 170.364 118.138C171.349 116.921 172.522 115.999 173.882 115.372C175.261 114.728 176.792 114.405 178.475 114.405C179.817 114.405 181.044 114.602 182.154 114.996C183.282 115.39 184.249 116.026 185.054 116.903C185.878 117.78 186.504 118.944 186.934 120.394C187.382 121.826 187.605 123.599 187.605 125.711V144H178.501V125.685C178.501 124.521 178.34 123.635 178.018 123.026C177.696 122.399 177.23 121.97 176.622 121.737C176.013 121.504 175.27 121.388 174.393 121.388C173.462 121.388 172.674 121.567 172.029 121.925C171.385 122.283 170.866 122.784 170.472 123.429C170.096 124.055 169.818 124.798 169.639 125.658C169.478 126.517 169.397 127.457 169.397 128.478ZM207.854 135.836C207.854 135.335 207.684 134.905 207.344 134.547C207.022 134.171 206.449 133.831 205.625 133.526C204.802 133.204 203.647 132.882 202.161 132.56C200.747 132.255 199.413 131.852 198.16 131.351C196.924 130.85 195.841 130.241 194.91 129.525C193.979 128.809 193.245 127.958 192.708 126.974C192.189 125.989 191.929 124.861 191.929 123.59C191.929 122.354 192.189 121.191 192.708 120.099C193.245 118.989 194.024 118.013 195.044 117.171C196.083 116.312 197.345 115.641 198.831 115.157C200.317 114.656 202.009 114.405 203.907 114.405C206.521 114.405 208.777 114.808 210.674 115.614C212.572 116.402 214.031 117.512 215.052 118.944C216.09 120.358 216.609 121.996 216.609 123.858H207.559C207.559 123.124 207.434 122.498 207.183 121.979C206.95 121.459 206.565 121.065 206.028 120.797C205.491 120.51 204.775 120.367 203.88 120.367C203.253 120.367 202.68 120.484 202.161 120.716C201.66 120.949 201.257 121.271 200.953 121.683C200.648 122.095 200.496 122.578 200.496 123.133C200.496 123.527 200.586 123.885 200.765 124.208C200.962 124.512 201.257 124.798 201.651 125.067C202.045 125.318 202.546 125.55 203.155 125.765C203.764 125.962 204.498 126.141 205.357 126.302C207.308 126.66 209.135 127.171 210.835 127.833C212.536 128.495 213.915 129.435 214.971 130.653C216.045 131.87 216.583 133.508 216.583 135.567C216.583 136.856 216.287 138.047 215.696 139.139C215.105 140.213 214.255 141.162 213.145 141.986C212.035 142.792 210.701 143.418 209.144 143.866C207.586 144.313 205.831 144.537 203.88 144.537C201.105 144.537 198.759 144.045 196.844 143.06C194.928 142.057 193.478 140.804 192.493 139.3C191.526 137.778 191.043 136.239 191.043 134.681H199.476C199.511 135.576 199.726 136.31 200.12 136.883C200.532 137.456 201.078 137.877 201.758 138.146C202.439 138.414 203.226 138.548 204.122 138.548C204.945 138.548 205.625 138.432 206.163 138.199C206.718 137.966 207.138 137.653 207.425 137.259C207.711 136.847 207.854 136.373 207.854 135.836ZM237.798 136.937V114.942H246.875V144H238.389L237.798 136.937ZM238.658 131.029L241.021 130.975C241.021 132.927 240.788 134.735 240.323 136.4C239.857 138.047 239.168 139.479 238.255 140.697C237.36 141.914 236.25 142.863 234.925 143.543C233.618 144.206 232.105 144.537 230.386 144.537C228.954 144.537 227.638 144.34 226.438 143.946C225.257 143.535 224.236 142.899 223.377 142.04C222.518 141.162 221.846 140.043 221.363 138.683C220.897 137.304 220.665 135.657 220.665 133.741V114.942H229.715V133.795C229.715 134.439 229.795 134.994 229.957 135.46C230.118 135.925 230.35 136.319 230.655 136.642C230.959 136.946 231.335 137.179 231.783 137.34C232.248 137.483 232.776 137.555 233.367 137.555C234.728 137.555 235.793 137.268 236.563 136.695C237.333 136.122 237.87 135.344 238.174 134.359C238.497 133.374 238.658 132.264 238.658 131.029ZM261.431 102.75V144H252.354V102.75H261.431ZM282.325 114.942V121.227H264.815V114.942H282.325ZM268.494 107.718H277.544V134.52C277.544 135.29 277.634 135.89 277.813 136.319C277.992 136.731 278.296 137.027 278.726 137.206C279.174 137.367 279.764 137.447 280.499 137.447C281.018 137.447 281.447 137.438 281.788 137.42C282.128 137.385 282.45 137.34 282.754 137.286V143.758C281.985 144.009 281.179 144.197 280.337 144.322C279.496 144.465 278.601 144.537 277.652 144.537C275.718 144.537 274.062 144.233 272.684 143.624C271.323 143.015 270.285 142.057 269.568 140.75C268.852 139.444 268.494 137.743 268.494 135.648V107.718ZM314.712 136.695V124.718C314.712 123.894 314.596 123.187 314.363 122.596C314.131 122.005 313.764 121.549 313.262 121.227C312.761 120.886 312.09 120.716 311.248 120.716C310.568 120.716 309.986 120.833 309.502 121.065C309.019 121.298 308.652 121.647 308.401 122.113C308.151 122.578 308.025 123.169 308.025 123.885H298.975C298.975 122.542 299.271 121.298 299.861 120.152C300.47 118.989 301.329 117.977 302.439 117.118C303.567 116.258 304.91 115.596 306.468 115.13C308.043 114.647 309.798 114.405 311.731 114.405C314.041 114.405 316.1 114.79 317.908 115.56C319.734 116.33 321.176 117.485 322.232 119.024C323.288 120.546 323.816 122.462 323.816 124.771V136.668C323.816 138.566 323.924 140.007 324.139 140.992C324.354 141.959 324.658 142.809 325.052 143.543V144H315.975C315.545 143.105 315.223 142.013 315.008 140.724C314.811 139.417 314.712 138.074 314.712 136.695ZM315.813 126.249L315.867 131.083H311.866C311.024 131.083 310.308 131.199 309.717 131.432C309.144 131.664 308.679 131.987 308.321 132.398C307.981 132.792 307.73 133.24 307.569 133.741C307.426 134.243 307.354 134.771 307.354 135.326C307.354 135.863 307.479 136.346 307.73 136.776C307.999 137.188 308.357 137.51 308.804 137.743C309.252 137.975 309.753 138.092 310.308 138.092C311.311 138.092 312.161 137.904 312.859 137.528C313.576 137.134 314.122 136.66 314.498 136.104C314.874 135.549 315.062 135.03 315.062 134.547L317.049 138.253C316.691 138.969 316.279 139.694 315.813 140.428C315.366 141.162 314.802 141.843 314.122 142.469C313.459 143.078 312.645 143.579 311.678 143.973C310.711 144.349 309.538 144.537 308.16 144.537C306.369 144.537 304.722 144.17 303.218 143.436C301.732 142.702 300.542 141.681 299.646 140.375C298.751 139.05 298.304 137.528 298.304 135.809C298.304 134.305 298.572 132.962 299.109 131.781C299.664 130.599 300.497 129.597 301.607 128.773C302.717 127.949 304.131 127.323 305.85 126.893C307.569 126.463 309.592 126.249 311.919 126.249H315.813ZM355.667 144H346.993L347.046 136.749H355.667C357.457 136.749 358.97 136.319 360.206 135.46C361.459 134.601 362.408 133.32 363.052 131.62C363.715 129.901 364.046 127.788 364.046 125.282V123.59C364.046 121.71 363.858 120.063 363.482 118.648C363.124 117.216 362.587 116.026 361.871 115.077C361.154 114.11 360.259 113.385 359.185 112.901C358.129 112.418 356.911 112.176 355.533 112.176H346.832V104.898H355.533C358.182 104.898 360.608 105.355 362.811 106.268C365.031 107.163 366.946 108.452 368.558 110.135C370.187 111.8 371.44 113.779 372.317 116.07C373.213 118.344 373.66 120.868 373.66 123.644V125.282C373.66 128.039 373.213 130.563 372.317 132.855C371.44 135.147 370.196 137.125 368.584 138.79C366.973 140.455 365.066 141.744 362.864 142.657C360.68 143.552 358.281 144 355.667 144ZM352.391 104.898V144H342.964V104.898H352.391ZM377.017 129.767V129.203C377.017 127.072 377.321 125.112 377.93 123.321C378.539 121.513 379.434 119.946 380.616 118.622C381.797 117.297 383.257 116.267 384.993 115.533C386.73 114.781 388.735 114.405 391.009 114.405C393.3 114.405 395.315 114.781 397.051 115.533C398.806 116.267 400.274 117.297 401.456 118.622C402.637 119.946 403.532 121.513 404.141 123.321C404.75 125.112 405.054 127.072 405.054 129.203V129.767C405.054 131.879 404.75 133.84 404.141 135.648C403.532 137.438 402.637 139.005 401.456 140.348C400.274 141.673 398.815 142.702 397.078 143.436C395.341 144.17 393.336 144.537 391.062 144.537C388.789 144.537 386.775 144.17 385.02 143.436C383.265 142.702 381.797 141.673 380.616 140.348C379.434 139.005 378.539 137.438 377.93 135.648C377.321 133.84 377.017 131.879 377.017 129.767ZM386.067 129.203V129.767C386.067 130.859 386.148 131.879 386.309 132.828C386.47 133.777 386.739 134.61 387.115 135.326C387.491 136.024 388.001 136.57 388.646 136.964C389.29 137.358 390.096 137.555 391.062 137.555C392.011 137.555 392.799 137.358 393.426 136.964C394.07 136.57 394.581 136.024 394.957 135.326C395.333 134.61 395.601 133.777 395.762 132.828C395.923 131.879 396.004 130.859 396.004 129.767V129.203C396.004 128.146 395.923 127.153 395.762 126.222C395.601 125.273 395.333 124.44 394.957 123.724C394.581 122.99 394.07 122.417 393.426 122.005C392.781 121.594 391.976 121.388 391.009 121.388C390.06 121.388 389.263 121.594 388.619 122.005C387.992 122.417 387.491 122.99 387.115 123.724C386.739 124.44 386.47 125.273 386.309 126.222C386.148 127.153 386.067 128.146 386.067 129.203ZM421.355 137.555C422.197 137.555 422.913 137.403 423.504 137.098C424.113 136.776 424.569 136.328 424.874 135.755C425.196 135.165 425.348 134.457 425.33 133.634H433.843C433.861 135.818 433.324 137.734 432.232 139.381C431.158 141.01 429.69 142.281 427.828 143.194C425.984 144.09 423.898 144.537 421.57 144.537C419.297 144.537 417.309 144.17 415.608 143.436C413.908 142.684 412.484 141.646 411.338 140.321C410.21 138.978 409.36 137.411 408.787 135.621C408.232 133.831 407.955 131.888 407.955 129.793V129.176C407.955 127.081 408.232 125.139 408.787 123.348C409.36 121.54 410.21 119.973 411.338 118.648C412.484 117.306 413.899 116.267 415.582 115.533C417.282 114.781 419.261 114.405 421.517 114.405C423.934 114.405 426.064 114.862 427.908 115.775C429.77 116.688 431.229 118.013 432.286 119.75C433.342 121.486 433.861 123.59 433.843 126.061H425.33C425.348 125.183 425.214 124.396 424.927 123.697C424.641 122.999 424.193 122.444 423.584 122.032C422.994 121.603 422.233 121.388 421.302 121.388C420.371 121.388 419.619 121.594 419.046 122.005C418.473 122.417 418.034 122.99 417.73 123.724C417.444 124.44 417.247 125.264 417.139 126.195C417.05 127.126 417.005 128.119 417.005 129.176V129.793C417.005 130.868 417.05 131.879 417.139 132.828C417.247 133.759 417.452 134.583 417.757 135.299C418.061 135.997 418.5 136.552 419.073 136.964C419.646 137.358 420.407 137.555 421.355 137.555ZM453.018 114.942V121.227H435.508V114.942H453.018ZM439.188 107.718H448.238V134.52C448.238 135.29 448.327 135.89 448.506 136.319C448.685 136.731 448.99 137.027 449.419 137.206C449.867 137.367 450.458 137.447 451.192 137.447C451.711 137.447 452.141 137.438 452.481 137.42C452.821 137.385 453.143 137.34 453.448 137.286V143.758C452.678 144.009 451.872 144.197 451.031 144.322C450.189 144.465 449.294 144.537 448.345 144.537C446.412 144.537 444.756 144.233 443.377 143.624C442.016 143.015 440.978 142.057 440.262 140.75C439.546 139.444 439.188 137.743 439.188 135.648V107.718ZM454.683 129.767V129.203C454.683 127.072 454.987 125.112 455.596 123.321C456.205 121.513 457.1 119.946 458.282 118.622C459.463 117.297 460.923 116.267 462.659 115.533C464.396 114.781 466.401 114.405 468.675 114.405C470.966 114.405 472.981 114.781 474.717 115.533C476.472 116.267 477.94 117.297 479.122 118.622C480.303 119.946 481.198 121.513 481.807 123.321C482.416 125.112 482.72 127.072 482.72 129.203V129.767C482.72 131.879 482.416 133.84 481.807 135.648C481.198 137.438 480.303 139.005 479.122 140.348C477.94 141.673 476.481 142.702 474.744 143.436C473.007 144.17 471.002 144.537 468.729 144.537C466.455 144.537 464.441 144.17 462.686 143.436C460.931 142.702 459.463 141.673 458.282 140.348C457.1 139.005 456.205 137.438 455.596 135.648C454.987 133.84 454.683 131.879 454.683 129.767ZM463.733 129.203V129.767C463.733 130.859 463.814 131.879 463.975 132.828C464.136 133.777 464.405 134.61 464.781 135.326C465.157 136.024 465.667 136.57 466.312 136.964C466.956 137.358 467.762 137.555 468.729 137.555C469.677 137.555 470.465 137.358 471.092 136.964C471.736 136.57 472.247 136.024 472.623 135.326C472.999 134.61 473.267 133.777 473.428 132.828C473.589 131.879 473.67 130.859 473.67 129.767V129.203C473.67 128.146 473.589 127.153 473.428 126.222C473.267 125.273 472.999 124.44 472.623 123.724C472.247 122.99 471.736 122.417 471.092 122.005C470.447 121.594 469.642 121.388 468.675 121.388C467.726 121.388 466.929 121.594 466.285 122.005C465.658 122.417 465.157 122.99 464.781 123.724C464.405 124.44 464.136 125.273 463.975 126.222C463.814 127.153 463.733 128.146 463.733 129.203ZM495.879 122.14V144H486.829V114.942H495.289L495.879 122.14ZM504.473 114.728L504.312 123.133C503.954 123.097 503.471 123.053 502.862 122.999C502.253 122.945 501.743 122.918 501.331 122.918C500.275 122.918 499.362 123.044 498.592 123.294C497.84 123.527 497.213 123.885 496.712 124.369C496.229 124.834 495.87 125.425 495.638 126.141C495.423 126.857 495.324 127.69 495.342 128.639L493.704 127.564C493.704 125.613 493.892 123.84 494.268 122.247C494.662 120.636 495.217 119.248 495.933 118.084C496.649 116.903 497.518 115.999 498.538 115.372C499.559 114.728 500.704 114.405 501.976 114.405C502.423 114.405 502.862 114.432 503.292 114.486C503.739 114.54 504.133 114.62 504.473 114.728Z" fill="black"/>
<path d="M104.339 59.3726L97.5713 80H92.1196L101.365 55.1172H104.834L104.339 59.3726ZM109.961 80L103.177 59.3726L102.63 55.1172H106.133L115.43 80H109.961ZM109.654 70.7373V74.7534H96.5117V70.7373H109.654ZM117.43 53.75H122.352V75.7617L121.856 80H117.43V53.75ZM134.058 70.5664V70.9253C134.058 72.3039 133.91 73.5685 133.614 74.7192C133.329 75.87 132.885 76.8669 132.281 77.71C131.677 78.5417 130.925 79.1911 130.025 79.6582C129.136 80.1139 128.088 80.3418 126.88 80.3418C125.752 80.3418 124.773 80.1139 123.941 79.6582C123.121 79.2025 122.431 78.5588 121.873 77.7271C121.315 76.8953 120.865 75.9212 120.523 74.8047C120.181 73.6882 119.925 72.4691 119.754 71.1475V70.3613C119.925 69.0397 120.181 67.8206 120.523 66.7041C120.865 65.5876 121.315 64.6134 121.873 63.7817C122.431 62.95 123.121 62.3063 123.941 61.8506C124.761 61.3949 125.73 61.167 126.846 61.167C128.065 61.167 129.125 61.4006 130.025 61.8677C130.936 62.3234 131.688 62.9728 132.281 63.8159C132.885 64.6476 133.329 65.6388 133.614 66.7896C133.91 67.9289 134.058 69.1878 134.058 70.5664ZM129.136 70.9253V70.5664C129.136 69.8145 129.079 69.1081 128.965 68.4473C128.863 67.7751 128.681 67.1883 128.418 66.687C128.156 66.1743 127.798 65.7699 127.342 65.4736C126.897 65.1774 126.322 65.0293 125.616 65.0293C124.944 65.0293 124.374 65.1432 123.907 65.3711C123.44 65.599 123.052 65.918 122.745 66.3281C122.448 66.7383 122.226 67.2282 122.078 67.7979C121.93 68.3561 121.839 68.9714 121.805 69.6436V71.8823C121.839 72.7824 121.987 73.5799 122.249 74.2749C122.522 74.9585 122.933 75.4997 123.479 75.8984C124.038 76.2858 124.761 76.4795 125.65 76.4795C126.345 76.4795 126.92 76.3428 127.376 76.0693C127.832 75.7959 128.185 75.4085 128.436 74.9072C128.698 74.4059 128.88 73.8192 128.982 73.147C129.085 72.4634 129.136 71.7228 129.136 70.9253ZM148.038 75.9668V53.75H152.994V80H148.533L148.038 75.9668ZM136.348 70.9766V70.6177C136.348 69.2049 136.508 67.9232 136.827 66.7725C137.146 65.6104 137.613 64.6134 138.228 63.7817C138.843 62.95 139.601 62.3063 140.501 61.8506C141.401 61.3949 142.426 61.167 143.577 61.167C144.66 61.167 145.605 61.3949 146.414 61.8506C147.234 62.3063 147.929 62.9557 148.499 63.7988C149.08 64.6305 149.547 65.616 149.9 66.7554C150.254 67.8833 150.51 69.1195 150.669 70.4639V71.25C150.51 72.5374 150.254 73.7337 149.9 74.8389C149.547 75.944 149.08 76.9124 148.499 77.7441C147.929 78.5645 147.234 79.2025 146.414 79.6582C145.594 80.1139 144.637 80.3418 143.543 80.3418C142.392 80.3418 141.367 80.1082 140.467 79.6411C139.578 79.174 138.826 78.5189 138.211 77.6758C137.607 76.8327 137.146 75.8415 136.827 74.7021C136.508 73.5628 136.348 72.321 136.348 70.9766ZM141.27 70.6177V70.9766C141.27 71.7399 141.327 72.452 141.441 73.1128C141.566 73.7736 141.766 74.3604 142.039 74.873C142.324 75.3743 142.688 75.7674 143.133 76.0522C143.589 76.3257 144.141 76.4624 144.791 76.4624C145.634 76.4624 146.329 76.2744 146.875 75.8984C147.422 75.5111 147.838 74.9813 148.123 74.3091C148.419 73.6369 148.59 72.8621 148.636 71.9849V69.7461C148.602 69.0283 148.499 68.3846 148.328 67.8149C148.169 67.2339 147.929 66.7383 147.61 66.3281C147.303 65.918 146.915 65.599 146.448 65.3711C145.993 65.1432 145.451 65.0293 144.825 65.0293C144.187 65.0293 143.64 65.1774 143.184 65.4736C142.728 65.7585 142.358 66.1515 142.073 66.6528C141.8 67.1541 141.595 67.7466 141.458 68.4302C141.333 69.1024 141.27 69.8315 141.27 70.6177ZM167.776 75.5737V61.5088H172.698V80H168.067L167.776 75.5737ZM168.323 71.7798L169.776 71.7456C169.776 72.9761 169.633 74.1211 169.349 75.1807C169.064 76.2288 168.637 77.1403 168.067 77.915C167.497 78.6784 166.779 79.2765 165.914 79.7095C165.048 80.131 164.028 80.3418 162.854 80.3418C161.954 80.3418 161.123 80.2165 160.359 79.9658C159.607 79.7038 158.958 79.2993 158.411 78.7524C157.876 78.1942 157.454 77.4821 157.146 76.6162C156.85 75.7389 156.702 74.6851 156.702 73.4546V61.5088H161.624V73.4888C161.624 74.0356 161.687 74.4971 161.812 74.873C161.949 75.249 162.137 75.5566 162.376 75.7959C162.615 76.0352 162.894 76.2061 163.213 76.3086C163.544 76.4111 163.908 76.4624 164.307 76.4624C165.321 76.4624 166.119 76.2573 166.7 75.8472C167.292 75.437 167.708 74.8787 167.947 74.1724C168.198 73.4546 168.323 72.6571 168.323 71.7798ZM181.653 53.75V80H176.714V53.75H181.653ZM204.861 59.3726L198.094 80H192.642L201.888 55.1172H205.357L204.861 59.3726ZM210.484 80L203.699 59.3726L203.152 55.1172H206.656L215.953 80H210.484ZM210.176 70.7373V74.7534H197.034V70.7373H210.176ZM232.872 76.1548V80H218.824V76.1548H232.872ZM232.598 64.3457L220.806 80H217.508V77.0776L229.249 61.5088H232.598V64.3457ZM230.855 61.5088V65.3711H217.781V61.5088H230.855ZM241.16 61.5088V80H236.221V61.5088H241.16ZM235.914 56.6895C235.914 55.9717 236.164 55.3792 236.666 54.9121C237.167 54.445 237.839 54.2114 238.682 54.2114C239.514 54.2114 240.18 54.445 240.682 54.9121C241.194 55.3792 241.451 55.9717 241.451 56.6895C241.451 57.4072 241.194 57.9997 240.682 58.4668C240.18 58.9339 239.514 59.1675 238.682 59.1675C237.839 59.1675 237.167 58.9339 236.666 58.4668C236.164 57.9997 235.914 57.4072 235.914 56.6895ZM259.942 76.1548V80H245.894V76.1548H259.942ZM259.668 64.3457L247.876 80H244.578V77.0776L256.319 61.5088H259.668V64.3457ZM257.925 61.5088V65.3711H244.852V61.5088H257.925ZM277.186 55.1172V80H272.059V55.1172H277.186ZM292.088 55.1172L282.227 67.4048L276.536 73.5229L275.613 68.6694L279.458 63.4058L285.799 55.1172H292.088ZM286.26 80L278.929 68.4985L282.723 65.3198L292.327 80H286.26ZM298.804 53.75V80H293.882V53.75H298.804ZM298.104 70.105H296.753C296.765 68.8175 296.936 67.6326 297.266 66.5503C297.597 65.4565 298.069 64.5109 298.685 63.7134C299.3 62.9045 300.035 62.2778 300.889 61.8335C301.755 61.3892 302.712 61.167 303.76 61.167C304.672 61.167 305.498 61.298 306.238 61.5601C306.99 61.8107 307.634 62.2209 308.169 62.7905C308.716 63.3488 309.138 64.0837 309.434 64.9951C309.73 65.9066 309.878 67.0117 309.878 68.3105V80H304.922V68.2764C304.922 67.4561 304.803 66.8123 304.563 66.3452C304.336 65.8667 304 65.5306 303.555 65.3369C303.122 65.1318 302.587 65.0293 301.949 65.0293C301.242 65.0293 300.639 65.1603 300.137 65.4224C299.647 65.6844 299.254 66.049 298.958 66.5161C298.662 66.9718 298.445 67.5073 298.309 68.1226C298.172 68.7378 298.104 69.3986 298.104 70.105ZM323.602 75.8301V67.5928C323.602 67.0003 323.505 66.4933 323.311 66.0718C323.117 65.6388 322.815 65.3027 322.405 65.0635C322.007 64.8242 321.488 64.7046 320.85 64.7046C320.303 64.7046 319.83 64.8014 319.432 64.9951C319.033 65.1774 318.725 65.4451 318.509 65.7983C318.292 66.1401 318.184 66.5446 318.184 67.0117H313.262C313.262 66.2256 313.444 65.4793 313.809 64.7729C314.174 64.0666 314.703 63.4456 315.398 62.9102C316.093 62.3633 316.919 61.936 317.876 61.6284C318.845 61.3208 319.927 61.167 321.124 61.167C322.559 61.167 323.835 61.4062 324.952 61.8848C326.068 62.3633 326.945 63.0811 327.583 64.0381C328.233 64.9951 328.558 66.1914 328.558 67.627V75.5396C328.558 76.5535 328.62 77.3853 328.746 78.0347C328.871 78.6727 329.053 79.231 329.292 79.7095V80H324.319C324.08 79.4987 323.898 78.8721 323.772 78.1201C323.659 77.3568 323.602 76.5934 323.602 75.8301ZM324.251 68.7378L324.285 71.5234H321.534C320.884 71.5234 320.32 71.5975 319.842 71.7456C319.363 71.8937 318.97 72.1045 318.663 72.3779C318.355 72.64 318.127 72.9476 317.979 73.3008C317.842 73.654 317.774 74.0413 317.774 74.4629C317.774 74.8844 317.871 75.2661 318.064 75.6079C318.258 75.9383 318.537 76.2004 318.902 76.394C319.266 76.5763 319.694 76.6675 320.184 76.6675C320.924 76.6675 321.568 76.5194 322.115 76.2231C322.662 75.9269 323.083 75.5623 323.379 75.1294C323.687 74.6965 323.847 74.2863 323.858 73.8989L325.157 75.9839C324.974 76.451 324.724 76.9352 324.405 77.4365C324.097 77.9378 323.704 78.4106 323.226 78.855C322.747 79.2879 322.172 79.6468 321.5 79.9316C320.827 80.2051 320.03 80.3418 319.107 80.3418C317.933 80.3418 316.868 80.1082 315.911 79.6411C314.965 79.1626 314.214 78.5075 313.655 77.6758C313.108 76.8327 312.835 75.8757 312.835 74.8047C312.835 73.8363 313.017 72.9761 313.382 72.2241C313.746 71.4722 314.282 70.8398 314.988 70.3271C315.706 69.8031 316.6 69.41 317.671 69.1479C318.742 68.8745 319.984 68.7378 321.397 68.7378H324.251ZM337.273 65.542V80H332.352V61.5088H336.983L337.273 65.542ZM342.845 61.3892L342.759 65.9521C342.52 65.918 342.229 65.8895 341.888 65.8667C341.557 65.8325 341.255 65.8154 340.982 65.8154C340.287 65.8154 339.683 65.9066 339.17 66.0889C338.669 66.2598 338.248 66.5161 337.906 66.8579C337.575 67.1997 337.325 67.6156 337.154 68.1055C336.994 68.5954 336.903 69.1536 336.88 69.7803L335.889 69.4727C335.889 68.2764 336.009 67.1769 336.248 66.1743C336.487 65.1603 336.835 64.2773 337.291 63.5254C337.758 62.7734 338.327 62.1924 339 61.7822C339.672 61.3721 340.441 61.167 341.307 61.167C341.58 61.167 341.859 61.1898 342.144 61.2354C342.429 61.2695 342.662 61.3208 342.845 61.3892ZM350.091 65.542V80H345.169V61.5088H349.8L350.091 65.542ZM355.662 61.3892L355.577 65.9521C355.337 65.918 355.047 65.8895 354.705 65.8667C354.375 65.8325 354.073 65.8154 353.799 65.8154C353.104 65.8154 352.5 65.9066 351.988 66.0889C351.486 66.2598 351.065 66.5161 350.723 66.8579C350.393 67.1997 350.142 67.6156 349.971 68.1055C349.812 68.5954 349.721 69.1536 349.698 69.7803L348.707 69.4727C348.707 68.2764 348.826 67.1769 349.065 66.1743C349.305 65.1603 349.652 64.2773 350.108 63.5254C350.575 62.7734 351.145 62.1924 351.817 61.7822C352.489 61.3721 353.258 61.167 354.124 61.167C354.397 61.167 354.677 61.1898 354.961 61.2354C355.246 61.2695 355.48 61.3208 355.662 61.3892ZM367.386 75.8301V67.5928C367.386 67.0003 367.289 66.4933 367.095 66.0718C366.902 65.6388 366.6 65.3027 366.189 65.0635C365.791 64.8242 365.272 64.7046 364.634 64.7046C364.087 64.7046 363.615 64.8014 363.216 64.9951C362.817 65.1774 362.509 65.4451 362.293 65.7983C362.076 66.1401 361.968 66.5446 361.968 67.0117H357.046C357.046 66.2256 357.229 65.4793 357.593 64.7729C357.958 64.0666 358.488 63.4456 359.183 62.9102C359.878 62.3633 360.704 61.936 361.661 61.6284C362.629 61.3208 363.711 61.167 364.908 61.167C366.343 61.167 367.619 61.4062 368.736 61.8848C369.852 62.3633 370.73 63.0811 371.368 64.0381C372.017 64.9951 372.342 66.1914 372.342 67.627V75.5396C372.342 76.5535 372.404 77.3853 372.53 78.0347C372.655 78.6727 372.837 79.231 373.077 79.7095V80H368.104C367.864 79.4987 367.682 78.8721 367.557 78.1201C367.443 77.3568 367.386 76.5934 367.386 75.8301ZM368.035 68.7378L368.069 71.5234H365.318C364.668 71.5234 364.104 71.5975 363.626 71.7456C363.147 71.8937 362.754 72.1045 362.447 72.3779C362.139 72.64 361.911 72.9476 361.763 73.3008C361.626 73.654 361.558 74.0413 361.558 74.4629C361.558 74.8844 361.655 75.2661 361.849 75.6079C362.042 75.9383 362.321 76.2004 362.686 76.394C363.051 76.5763 363.478 76.6675 363.968 76.6675C364.708 76.6675 365.352 76.5194 365.899 76.2231C366.446 75.9269 366.867 75.5623 367.164 75.1294C367.471 74.6965 367.631 74.2863 367.642 73.8989L368.941 75.9839C368.759 76.451 368.508 76.9352 368.189 77.4365C367.881 77.9378 367.488 78.4106 367.01 78.855C366.531 79.2879 365.956 79.6468 365.284 79.9316C364.611 80.2051 363.814 80.3418 362.891 80.3418C361.718 80.3418 360.652 80.1082 359.695 79.6411C358.75 79.1626 357.998 78.5075 357.439 77.6758C356.893 76.8327 356.619 75.8757 356.619 74.8047C356.619 73.8363 356.801 72.9761 357.166 72.2241C357.531 71.4722 358.066 70.8398 358.772 70.3271C359.49 69.8031 360.385 69.41 361.456 69.1479C362.527 68.8745 363.768 68.7378 365.181 68.7378H368.035ZM390.85 76.1548V80H376.802V76.1548H390.85ZM390.577 64.3457L378.785 80H375.486V77.0776L387.227 61.5088H390.577V64.3457ZM388.833 61.5088V65.3711H375.76V61.5088H388.833Z" fill="#888888"/>
<rect x="92" y="181" width="1179" height="80" rx="13.3333" fill="#CCCCCC"/>
<rect x="107" y="196.333" width="208" height="49.3333" rx="4.66667" fill="#888888" stroke="#888888" stroke-width="4"/>
<path d="M184.5 213.167H190.469C191.635 213.167 192.649 213.34 193.51 213.687C194.372 214.035 195.035 214.549 195.5 215.229C195.972 215.91 196.208 216.75 196.208 217.75C196.208 218.618 196.073 219.344 195.802 219.927C195.531 220.51 195.153 220.993 194.667 221.375C194.188 221.75 193.628 222.059 192.99 222.302L191.792 222.979H186.781L186.76 220.156H190.469C190.934 220.156 191.319 220.073 191.625 219.906C191.931 219.74 192.16 219.503 192.313 219.198C192.472 218.885 192.552 218.514 192.552 218.083C192.552 217.646 192.472 217.271 192.313 216.958C192.153 216.646 191.917 216.406 191.604 216.24C191.299 216.073 190.92 215.99 190.469 215.99H188.156V228.333H184.5V213.167ZM192.802 228.333L189.448 221.625L193.323 221.604L196.719 228.177V228.333H192.802ZM203.708 228.542C202.792 228.542 201.972 228.399 201.25 228.115C200.528 227.823 199.917 227.424 199.417 226.917C198.924 226.41 198.545 225.826 198.281 225.167C198.024 224.507 197.896 223.809 197.896 223.073V222.677C197.896 221.851 198.01 221.087 198.24 220.385C198.469 219.677 198.809 219.059 199.26 218.531C199.712 218.003 200.278 217.594 200.958 217.302C201.639 217.003 202.431 216.854 203.333 216.854C204.132 216.854 204.847 216.983 205.479 217.24C206.111 217.497 206.646 217.865 207.083 218.344C207.528 218.823 207.865 219.403 208.094 220.083C208.33 220.764 208.448 221.528 208.448 222.375V223.802H199.24V221.604H205.021V221.333C205.028 220.958 204.962 220.639 204.823 220.375C204.691 220.111 204.497 219.91 204.24 219.771C203.983 219.632 203.67 219.562 203.302 219.562C202.92 219.562 202.604 219.646 202.354 219.812C202.111 219.979 201.92 220.208 201.781 220.5C201.649 220.785 201.556 221.115 201.5 221.49C201.444 221.865 201.417 222.26 201.417 222.677V223.073C201.417 223.49 201.472 223.868 201.583 224.208C201.701 224.549 201.868 224.84 202.083 225.083C202.306 225.319 202.569 225.503 202.875 225.635C203.187 225.767 203.542 225.833 203.937 225.833C204.417 225.833 204.889 225.743 205.354 225.562C205.819 225.382 206.219 225.083 206.552 224.667L208.146 226.562C207.917 226.889 207.59 227.205 207.167 227.51C206.75 227.816 206.25 228.066 205.667 228.26C205.083 228.448 204.431 228.542 203.708 228.542ZM215.729 225.5V220.854C215.729 220.535 215.684 220.26 215.594 220.031C215.503 219.802 215.361 219.625 215.167 219.5C214.972 219.368 214.712 219.302 214.385 219.302C214.122 219.302 213.896 219.347 213.708 219.437C213.521 219.528 213.378 219.663 213.281 219.844C213.184 220.024 213.135 220.253 213.135 220.531H209.625C209.625 220.01 209.74 219.528 209.969 219.083C210.205 218.632 210.538 218.24 210.969 217.906C211.406 217.573 211.927 217.316 212.531 217.135C213.142 216.948 213.823 216.854 214.573 216.854C215.469 216.854 216.267 217.003 216.969 217.302C217.677 217.601 218.236 218.049 218.646 218.646C219.056 219.236 219.26 219.979 219.26 220.875V225.49C219.26 226.226 219.302 226.785 219.385 227.167C219.469 227.542 219.587 227.872 219.74 228.156V228.333H216.219C216.052 227.986 215.927 227.562 215.844 227.062C215.767 226.556 215.729 226.035 215.729 225.5ZM216.156 221.448L216.177 223.323H214.625C214.299 223.323 214.021 223.368 213.792 223.458C213.569 223.549 213.389 223.674 213.25 223.833C213.118 223.986 213.021 224.16 212.958 224.354C212.903 224.549 212.875 224.753 212.875 224.969C212.875 225.177 212.924 225.365 213.021 225.531C213.125 225.691 213.264 225.816 213.438 225.906C213.611 225.997 213.806 226.042 214.021 226.042C214.41 226.042 214.74 225.969 215.01 225.823C215.288 225.67 215.5 225.486 215.646 225.271C215.792 225.056 215.865 224.854 215.865 224.667L216.635 226.104C216.497 226.382 216.337 226.663 216.156 226.948C215.983 227.233 215.764 227.497 215.5 227.74C215.243 227.976 214.927 228.17 214.552 228.323C214.177 228.469 213.722 228.542 213.188 228.542C212.493 228.542 211.854 228.399 211.271 228.115C210.694 227.83 210.233 227.434 209.885 226.927C209.538 226.413 209.365 225.823 209.365 225.156C209.365 224.573 209.469 224.052 209.677 223.594C209.892 223.135 210.215 222.747 210.646 222.427C211.076 222.108 211.625 221.865 212.292 221.698C212.958 221.531 213.743 221.448 214.646 221.448H216.156ZM225.969 225.833C226.295 225.833 226.573 225.774 226.802 225.656C227.038 225.531 227.215 225.358 227.333 225.135C227.458 224.906 227.517 224.632 227.51 224.312H230.813C230.819 225.16 230.611 225.903 230.188 226.542C229.771 227.174 229.201 227.667 228.479 228.021C227.764 228.368 226.955 228.542 226.052 228.542C225.17 228.542 224.399 228.399 223.74 228.115C223.08 227.823 222.528 227.42 222.083 226.906C221.646 226.385 221.316 225.778 221.094 225.083C220.878 224.389 220.771 223.635 220.771 222.823V222.583C220.771 221.771 220.878 221.017 221.094 220.323C221.316 219.622 221.646 219.014 222.083 218.5C222.528 217.979 223.076 217.576 223.729 217.292C224.389 217 225.156 216.854 226.031 216.854C226.969 216.854 227.795 217.031 228.51 217.385C229.233 217.74 229.799 218.253 230.208 218.927C230.618 219.601 230.819 220.417 230.813 221.375H227.51C227.517 221.035 227.465 220.729 227.354 220.458C227.243 220.187 227.069 219.972 226.833 219.812C226.604 219.646 226.309 219.562 225.948 219.562C225.587 219.562 225.295 219.642 225.073 219.802C224.851 219.962 224.681 220.184 224.563 220.469C224.451 220.747 224.375 221.066 224.333 221.427C224.299 221.788 224.281 222.174 224.281 222.583V222.823C224.281 223.24 224.299 223.632 224.333 224C224.375 224.361 224.455 224.681 224.573 224.958C224.691 225.229 224.861 225.444 225.083 225.604C225.306 225.757 225.601 225.833 225.969 225.833ZM238.25 217.062V219.5H231.458V217.062H238.25ZM232.885 214.26H236.396V224.656C236.396 224.955 236.431 225.187 236.5 225.354C236.569 225.514 236.688 225.628 236.854 225.698C237.028 225.76 237.257 225.792 237.542 225.792C237.743 225.792 237.91 225.788 238.042 225.781C238.174 225.767 238.299 225.75 238.417 225.729V228.24C238.118 228.337 237.806 228.41 237.479 228.458C237.153 228.514 236.806 228.542 236.438 228.542C235.688 228.542 235.045 228.424 234.51 228.187C233.983 227.951 233.58 227.58 233.302 227.073C233.024 226.566 232.885 225.906 232.885 225.094V214.26Z" fill="white"/>
<rect x="339" y="196.333" width="208" height="49.3333" rx="4.66667" fill="#888888" stroke="#888888" stroke-width="4"/>
<path d="M419.073 225.521V228.333H411.406V225.521H419.073ZM412.708 213.167V228.333H409.052V213.167H412.708ZM426.302 225.5V220.854C426.302 220.535 426.257 220.26 426.167 220.031C426.076 219.802 425.934 219.625 425.74 219.5C425.545 219.368 425.285 219.302 424.958 219.302C424.694 219.302 424.469 219.347 424.281 219.437C424.094 219.528 423.951 219.663 423.854 219.844C423.757 220.024 423.708 220.253 423.708 220.531H420.198C420.198 220.01 420.312 219.528 420.542 219.083C420.778 218.632 421.111 218.24 421.542 217.906C421.979 217.573 422.5 217.316 423.104 217.135C423.715 216.948 424.396 216.854 425.146 216.854C426.042 216.854 426.84 217.003 427.542 217.302C428.25 217.601 428.809 218.049 429.219 218.646C429.628 219.236 429.833 219.979 429.833 220.875V225.49C429.833 226.226 429.875 226.785 429.958 227.167C430.042 227.542 430.16 227.872 430.312 228.156V228.333H426.792C426.625 227.986 426.5 227.562 426.417 227.062C426.34 226.556 426.302 226.035 426.302 225.5ZM426.729 221.448L426.75 223.323H425.198C424.872 223.323 424.594 223.368 424.365 223.458C424.142 223.549 423.962 223.674 423.823 223.833C423.691 223.986 423.594 224.16 423.531 224.354C423.476 224.549 423.448 224.753 423.448 224.969C423.448 225.177 423.497 225.365 423.594 225.531C423.698 225.691 423.837 225.816 424.01 225.906C424.184 225.997 424.378 226.042 424.594 226.042C424.983 226.042 425.312 225.969 425.583 225.823C425.861 225.67 426.073 225.486 426.219 225.271C426.365 225.056 426.437 224.854 426.437 224.667L427.208 226.104C427.069 226.382 426.91 226.663 426.729 226.948C426.556 227.233 426.337 227.497 426.073 227.74C425.816 227.976 425.5 228.17 425.125 228.323C424.75 228.469 424.295 228.542 423.76 228.542C423.066 228.542 422.427 228.399 421.844 228.115C421.267 227.83 420.806 227.434 420.458 226.927C420.111 226.413 419.937 225.823 419.937 225.156C419.937 224.573 420.042 224.052 420.25 223.594C420.465 223.135 420.788 222.747 421.219 222.427C421.649 222.108 422.198 221.865 422.865 221.698C423.531 221.531 424.316 221.448 425.219 221.448H426.729ZM435.323 219.854V228.333H431.812V217.062H435.094L435.323 219.854ZM438.656 216.979L438.594 220.24C438.455 220.226 438.267 220.208 438.031 220.187C437.795 220.167 437.597 220.156 437.437 220.156C437.028 220.156 436.674 220.205 436.375 220.302C436.083 220.392 435.84 220.531 435.646 220.719C435.458 220.899 435.319 221.128 435.229 221.406C435.146 221.684 435.108 222.007 435.115 222.375L434.479 221.958C434.479 221.201 434.552 220.514 434.698 219.896C434.851 219.271 435.066 218.733 435.344 218.281C435.622 217.823 435.958 217.472 436.354 217.229C436.75 216.979 437.194 216.854 437.687 216.854C437.861 216.854 438.031 216.865 438.198 216.885C438.372 216.906 438.524 216.937 438.656 216.979ZM445.406 225.5V220.854C445.406 220.535 445.361 220.26 445.271 220.031C445.181 219.802 445.038 219.625 444.844 219.5C444.649 219.368 444.389 219.302 444.063 219.302C443.799 219.302 443.573 219.347 443.385 219.437C443.198 219.528 443.056 219.663 442.958 219.844C442.861 220.024 442.813 220.253 442.813 220.531H439.302C439.302 220.01 439.417 219.528 439.646 219.083C439.882 218.632 440.215 218.24 440.646 217.906C441.083 217.573 441.604 217.316 442.208 217.135C442.819 216.948 443.5 216.854 444.25 216.854C445.146 216.854 445.944 217.003 446.646 217.302C447.354 217.601 447.913 218.049 448.323 218.646C448.733 219.236 448.938 219.979 448.938 220.875V225.49C448.938 226.226 448.979 226.785 449.063 227.167C449.146 227.542 449.264 227.872 449.417 228.156V228.333H445.896C445.729 227.986 445.604 227.562 445.521 227.062C445.444 226.556 445.406 226.035 445.406 225.5ZM445.833 221.448L445.854 223.323H444.302C443.976 223.323 443.698 223.368 443.469 223.458C443.247 223.549 443.066 223.674 442.927 223.833C442.795 223.986 442.698 224.16 442.635 224.354C442.58 224.549 442.552 224.753 442.552 224.969C442.552 225.177 442.601 225.365 442.698 225.531C442.802 225.691 442.941 225.816 443.115 225.906C443.288 225.997 443.483 226.042 443.698 226.042C444.087 226.042 444.417 225.969 444.688 225.823C444.965 225.67 445.177 225.486 445.323 225.271C445.469 225.056 445.542 224.854 445.542 224.667L446.313 226.104C446.174 226.382 446.014 226.663 445.833 226.948C445.66 227.233 445.441 227.497 445.177 227.74C444.92 227.976 444.604 228.17 444.229 228.323C443.854 228.469 443.399 228.542 442.865 228.542C442.17 228.542 441.531 228.399 440.948 228.115C440.372 227.83 439.91 227.434 439.563 226.927C439.215 226.413 439.042 225.823 439.042 225.156C439.042 224.573 439.146 224.052 439.354 223.594C439.569 223.135 439.892 222.747 440.323 222.427C440.753 222.108 441.302 221.865 441.969 221.698C442.635 221.531 443.42 221.448 444.323 221.448H445.833ZM454.781 225.927L457 217.062H460.698L457.01 228.333H454.823L454.781 225.927ZM453.469 217.062L455.656 225.927L455.635 228.333H453.437L449.76 217.062H453.469ZM467.052 228.542C466.135 228.542 465.316 228.399 464.594 228.115C463.872 227.823 463.26 227.424 462.76 226.917C462.267 226.41 461.889 225.826 461.625 225.167C461.368 224.507 461.24 223.809 461.24 223.073V222.677C461.24 221.851 461.354 221.087 461.583 220.385C461.812 219.677 462.153 219.059 462.604 218.531C463.056 218.003 463.622 217.594 464.302 217.302C464.983 217.003 465.774 216.854 466.677 216.854C467.476 216.854 468.191 216.983 468.823 217.24C469.455 217.497 469.99 217.865 470.427 218.344C470.872 218.823 471.208 219.403 471.437 220.083C471.674 220.764 471.792 221.528 471.792 222.375V223.802H462.583V221.604H468.365V221.333C468.372 220.958 468.306 220.639 468.167 220.375C468.035 220.111 467.84 219.91 467.583 219.771C467.326 219.632 467.014 219.562 466.646 219.562C466.264 219.562 465.948 219.646 465.698 219.812C465.455 219.979 465.264 220.208 465.125 220.5C464.993 220.785 464.899 221.115 464.844 221.49C464.788 221.865 464.76 222.26 464.76 222.677V223.073C464.76 223.49 464.816 223.868 464.927 224.208C465.045 224.549 465.212 224.84 465.427 225.083C465.649 225.319 465.913 225.503 466.219 225.635C466.531 225.767 466.885 225.833 467.281 225.833C467.76 225.833 468.233 225.743 468.698 225.562C469.163 225.382 469.562 225.083 469.896 224.667L471.49 226.562C471.26 226.889 470.934 227.205 470.51 227.51C470.094 227.816 469.594 228.066 469.01 228.26C468.427 228.448 467.774 228.542 467.052 228.542ZM476.927 212.333V228.333H473.406V212.333H476.927Z" fill="white"/>
<rect x="571" y="196.333" width="208" height="49.3333" rx="4.66667" fill="#888888" stroke="#888888" stroke-width="4"/>
<path d="M643.26 213.167H646.24L649.625 223.719L653.01 213.167H655.99L650.833 228.333H648.417L643.26 213.167ZM641.448 213.167H644.531L645.104 224.792V228.333H641.448V213.167ZM654.719 213.167H657.812V228.333H654.146V224.792L654.719 213.167ZM663.448 227.01L666.365 217.062H670.135L665.604 230.01C665.507 230.295 665.378 230.601 665.219 230.927C665.059 231.26 664.84 231.576 664.563 231.875C664.285 232.174 663.927 232.417 663.49 232.604C663.059 232.792 662.524 232.885 661.885 232.885C661.545 232.885 661.295 232.868 661.135 232.833C660.983 232.806 660.747 232.753 660.427 232.677V230.167C660.517 230.167 660.594 230.167 660.656 230.167C660.726 230.167 660.802 230.167 660.885 230.167C661.26 230.167 661.559 230.128 661.781 230.052C662.01 229.976 662.184 229.865 662.302 229.719C662.427 229.573 662.524 229.396 662.594 229.187L663.448 227.01ZM662.708 217.062L664.927 224.948L665.313 228.667H662.958L658.948 217.062H662.708ZM679.031 224.302C679.031 224.066 678.997 223.854 678.927 223.667C678.858 223.472 678.729 223.292 678.542 223.125C678.354 222.958 678.083 222.792 677.729 222.625C677.382 222.451 676.924 222.271 676.354 222.083C675.688 221.861 675.045 221.611 674.427 221.333C673.809 221.049 673.257 220.719 672.771 220.344C672.285 219.962 671.899 219.517 671.615 219.01C671.33 218.497 671.188 217.899 671.188 217.219C671.188 216.566 671.333 215.979 671.625 215.458C671.917 214.931 672.323 214.483 672.844 214.115C673.372 213.74 673.99 213.455 674.698 213.26C675.406 213.059 676.181 212.958 677.021 212.958C678.132 212.958 679.111 213.153 679.958 213.542C680.813 213.924 681.479 214.469 681.958 215.177C682.444 215.878 682.688 216.708 682.688 217.667H679.052C679.052 217.285 678.972 216.948 678.813 216.656C678.66 216.365 678.427 216.135 678.115 215.969C677.802 215.802 677.41 215.719 676.938 215.719C676.479 215.719 676.094 215.788 675.781 215.927C675.469 216.066 675.233 216.253 675.073 216.49C674.913 216.719 674.833 216.972 674.833 217.25C674.833 217.479 674.896 217.687 675.021 217.875C675.153 218.056 675.337 218.226 675.573 218.385C675.816 218.545 676.108 218.698 676.448 218.844C676.795 218.99 677.184 219.132 677.615 219.271C678.42 219.528 679.135 219.816 679.76 220.135C680.392 220.448 680.924 220.806 681.354 221.208C681.792 221.604 682.122 222.056 682.344 222.562C682.573 223.069 682.688 223.642 682.688 224.281C682.688 224.962 682.556 225.566 682.292 226.094C682.028 226.622 681.649 227.069 681.156 227.437C680.663 227.799 680.073 228.073 679.385 228.26C678.698 228.448 677.931 228.542 677.083 228.542C676.306 228.542 675.538 228.444 674.781 228.25C674.031 228.049 673.351 227.743 672.74 227.333C672.128 226.917 671.639 226.385 671.271 225.74C670.91 225.087 670.729 224.312 670.729 223.417H674.396C674.396 223.861 674.455 224.236 674.573 224.542C674.691 224.847 674.865 225.094 675.094 225.281C675.323 225.462 675.604 225.594 675.938 225.677C676.271 225.753 676.653 225.792 677.083 225.792C677.549 225.792 677.924 225.726 678.208 225.594C678.493 225.455 678.701 225.274 678.833 225.052C678.965 224.823 679.031 224.573 679.031 224.302ZM693.031 225.833L697.26 229.187L694.99 231.104L690.833 227.75L693.031 225.833ZM697.437 220.448V221.062C697.437 222.222 697.274 223.264 696.948 224.187C696.628 225.104 696.17 225.889 695.573 226.542C694.983 227.187 694.285 227.684 693.479 228.031C692.674 228.372 691.785 228.542 690.812 228.542C689.833 228.542 688.937 228.372 688.125 228.031C687.319 227.684 686.618 227.187 686.021 226.542C685.431 225.889 684.972 225.104 684.646 224.187C684.326 223.264 684.167 222.222 684.167 221.062V220.448C684.167 219.288 684.326 218.247 684.646 217.323C684.972 216.399 685.427 215.615 686.01 214.969C686.601 214.316 687.299 213.819 688.104 213.479C688.917 213.132 689.812 212.958 690.792 212.958C691.764 212.958 692.653 213.132 693.458 213.479C694.271 213.819 694.972 214.316 695.562 214.969C696.16 215.615 696.622 216.399 696.948 217.323C697.274 218.247 697.437 219.288 697.437 220.448ZM693.719 221.062V220.427C693.719 219.677 693.653 219.017 693.521 218.448C693.396 217.872 693.208 217.389 692.958 217C692.708 216.611 692.399 216.319 692.031 216.125C691.67 215.924 691.257 215.823 690.792 215.823C690.306 215.823 689.882 215.924 689.521 216.125C689.16 216.319 688.858 216.611 688.615 217C688.372 217.389 688.187 217.872 688.062 218.448C687.944 219.017 687.885 219.677 687.885 220.427V221.062C687.885 221.806 687.944 222.465 688.062 223.042C688.187 223.611 688.372 224.094 688.615 224.49C688.865 224.885 689.17 225.184 689.531 225.385C689.899 225.587 690.326 225.687 690.812 225.687C691.278 225.687 691.691 225.587 692.052 225.385C692.413 225.184 692.715 224.885 692.958 224.49C693.208 224.094 693.396 223.611 693.521 223.042C693.653 222.465 693.719 221.806 693.719 221.062ZM709.323 225.521V228.333H701.656V225.521H709.323ZM702.958 213.167V228.333H699.302V213.167H702.958Z" fill="white"/>
</svg>
