<svg width="1363" height="301" viewBox="0 0 1363 301" fill="none" xmlns="http://www.w3.org/2000/svg">
<rect width="1363" height="301" rx="15" fill="#F0F0F0"/>
<path d="M0 15C0 6.71573 6.71573 0 15 0H37V301H15C6.71573 301 0 294.284 0 286V15Z" fill="#022E7A"/>
<path d="M117.217 130.76H126.617C126.491 133.482 125.757 135.881 124.415 137.958C123.072 140.034 121.21 141.655 118.829 142.818C116.465 143.964 113.672 144.537 110.45 144.537C107.836 144.537 105.499 144.098 103.44 143.221C101.399 142.344 99.6628 141.082 98.2305 139.435C96.8161 137.787 95.7329 135.791 94.981 133.446C94.2469 131.1 93.8799 128.46 93.8799 125.523V123.402C93.8799 120.466 94.2648 117.825 95.0347 115.479C95.8224 113.116 96.9325 111.111 98.3647 109.464C99.8149 107.799 101.552 106.528 103.575 105.65C105.598 104.773 107.845 104.334 110.315 104.334C113.717 104.334 116.591 104.943 118.936 106.161C121.281 107.378 123.099 109.052 124.388 111.183C125.677 113.295 126.438 115.703 126.67 118.407H117.271C117.235 116.939 116.985 115.712 116.519 114.728C116.054 113.725 115.319 112.973 114.317 112.472C113.314 111.97 111.98 111.72 110.315 111.72C109.152 111.72 108.14 111.935 107.281 112.364C106.421 112.794 105.705 113.474 105.132 114.405C104.559 115.336 104.13 116.545 103.843 118.031C103.575 119.499 103.44 121.271 103.44 123.348V125.523C103.44 127.6 103.566 129.373 103.816 130.841C104.067 132.309 104.47 133.508 105.025 134.439C105.58 135.37 106.296 136.06 107.173 136.507C108.069 136.937 109.161 137.152 110.45 137.152C111.882 137.152 113.09 136.928 114.075 136.48C115.06 136.015 115.821 135.317 116.358 134.386C116.895 133.437 117.181 132.228 117.217 130.76ZM129.517 129.767V129.203C129.517 127.072 129.821 125.112 130.43 123.321C131.039 121.513 131.934 119.946 133.116 118.622C134.297 117.297 135.757 116.267 137.493 115.533C139.23 114.781 141.235 114.405 143.509 114.405C145.8 114.405 147.815 114.781 149.551 115.533C151.306 116.267 152.774 117.297 153.956 118.622C155.137 119.946 156.032 121.513 156.641 123.321C157.25 125.112 157.554 127.072 157.554 129.203V129.767C157.554 131.879 157.25 133.84 156.641 135.648C156.032 137.438 155.137 139.005 153.956 140.348C152.774 141.673 151.315 142.702 149.578 143.436C147.841 144.17 145.836 144.537 143.562 144.537C141.289 144.537 139.275 144.17 137.52 143.436C135.765 142.702 134.297 141.673 133.116 140.348C131.934 139.005 131.039 137.438 130.43 135.648C129.821 133.84 129.517 131.879 129.517 129.767ZM138.567 129.203V129.767C138.567 130.859 138.648 131.879 138.809 132.828C138.97 133.777 139.239 134.61 139.615 135.326C139.991 136.024 140.501 136.57 141.146 136.964C141.79 137.358 142.596 137.555 143.562 137.555C144.511 137.555 145.299 137.358 145.926 136.964C146.57 136.57 147.081 136.024 147.457 135.326C147.833 134.61 148.101 133.777 148.262 132.828C148.423 131.879 148.504 130.859 148.504 129.767V129.203C148.504 128.146 148.423 127.153 148.262 126.222C148.101 125.273 147.833 124.44 147.457 123.724C147.081 122.99 146.57 122.417 145.926 122.005C145.281 121.594 144.476 121.388 143.509 121.388C142.56 121.388 141.763 121.594 141.119 122.005C140.492 122.417 139.991 122.99 139.615 123.724C139.239 124.44 138.97 125.273 138.809 126.222C138.648 127.153 138.567 128.146 138.567 129.203ZM170.472 121.146V144H161.421V114.942H169.908L170.472 121.146ZM169.397 128.478L167.276 128.531C167.276 126.311 167.544 124.333 168.082 122.596C168.619 120.842 169.38 119.356 170.364 118.138C171.349 116.921 172.522 115.999 173.882 115.372C175.261 114.728 176.792 114.405 178.475 114.405C179.817 114.405 181.044 114.602 182.154 114.996C183.282 115.39 184.249 116.026 185.054 116.903C185.878 117.78 186.504 118.944 186.934 120.394C187.382 121.826 187.605 123.599 187.605 125.711V144H178.501V125.685C178.501 124.521 178.34 123.635 178.018 123.026C177.696 122.399 177.23 121.97 176.622 121.737C176.013 121.504 175.27 121.388 174.393 121.388C173.462 121.388 172.674 121.567 172.029 121.925C171.385 122.283 170.866 122.784 170.472 123.429C170.096 124.055 169.818 124.798 169.639 125.658C169.478 126.517 169.397 127.457 169.397 128.478ZM207.854 135.836C207.854 135.335 207.684 134.905 207.344 134.547C207.022 134.171 206.449 133.831 205.625 133.526C204.802 133.204 203.647 132.882 202.161 132.56C200.747 132.255 199.413 131.852 198.16 131.351C196.924 130.85 195.841 130.241 194.91 129.525C193.979 128.809 193.245 127.958 192.708 126.974C192.189 125.989 191.929 124.861 191.929 123.59C191.929 122.354 192.189 121.191 192.708 120.099C193.245 118.989 194.024 118.013 195.044 117.171C196.083 116.312 197.345 115.641 198.831 115.157C200.317 114.656 202.009 114.405 203.907 114.405C206.521 114.405 208.777 114.808 210.674 115.614C212.572 116.402 214.031 117.512 215.052 118.944C216.09 120.358 216.609 121.996 216.609 123.858H207.559C207.559 123.124 207.434 122.498 207.183 121.979C206.95 121.459 206.565 121.065 206.028 120.797C205.491 120.51 204.775 120.367 203.88 120.367C203.253 120.367 202.68 120.484 202.161 120.716C201.66 120.949 201.257 121.271 200.953 121.683C200.648 122.095 200.496 122.578 200.496 123.133C200.496 123.527 200.586 123.885 200.765 124.208C200.962 124.512 201.257 124.798 201.651 125.067C202.045 125.318 202.546 125.55 203.155 125.765C203.764 125.962 204.498 126.141 205.357 126.302C207.308 126.66 209.135 127.171 210.835 127.833C212.536 128.495 213.915 129.435 214.971 130.653C216.045 131.87 216.583 133.508 216.583 135.567C216.583 136.856 216.287 138.047 215.696 139.139C215.105 140.213 214.255 141.162 213.145 141.986C212.035 142.792 210.701 143.418 209.144 143.866C207.586 144.313 205.831 144.537 203.88 144.537C201.105 144.537 198.759 144.045 196.844 143.06C194.928 142.057 193.478 140.804 192.493 139.3C191.526 137.778 191.043 136.239 191.043 134.681H199.476C199.511 135.576 199.726 136.31 200.12 136.883C200.532 137.456 201.078 137.877 201.758 138.146C202.439 138.414 203.226 138.548 204.122 138.548C204.945 138.548 205.625 138.432 206.163 138.199C206.718 137.966 207.138 137.653 207.425 137.259C207.711 136.847 207.854 136.373 207.854 135.836ZM237.798 136.937V114.942H246.875V144H238.389L237.798 136.937ZM238.658 131.029L241.021 130.975C241.021 132.927 240.788 134.735 240.323 136.4C239.857 138.047 239.168 139.479 238.255 140.697C237.36 141.914 236.25 142.863 234.925 143.543C233.618 144.206 232.105 144.537 230.386 144.537C228.954 144.537 227.638 144.34 226.438 143.946C225.257 143.535 224.236 142.899 223.377 142.04C222.518 141.162 221.846 140.043 221.363 138.683C220.897 137.304 220.665 135.657 220.665 133.741V114.942H229.715V133.795C229.715 134.439 229.795 134.994 229.957 135.46C230.118 135.925 230.35 136.319 230.655 136.642C230.959 136.946 231.335 137.179 231.783 137.34C232.248 137.483 232.776 137.555 233.367 137.555C234.728 137.555 235.793 137.268 236.563 136.695C237.333 136.122 237.87 135.344 238.174 134.359C238.497 133.374 238.658 132.264 238.658 131.029ZM261.431 102.75V144H252.354V102.75H261.431ZM282.325 114.942V121.227H264.815V114.942H282.325ZM268.494 107.718H277.544V134.52C277.544 135.29 277.634 135.89 277.813 136.319C277.992 136.731 278.296 137.027 278.726 137.206C279.174 137.367 279.764 137.447 280.499 137.447C281.018 137.447 281.447 137.438 281.788 137.42C282.128 137.385 282.45 137.34 282.754 137.286V143.758C281.985 144.009 281.179 144.197 280.337 144.322C279.496 144.465 278.601 144.537 277.652 144.537C275.718 144.537 274.062 144.233 272.684 143.624C271.323 143.015 270.285 142.057 269.568 140.75C268.852 139.444 268.494 137.743 268.494 135.648V107.718ZM314.712 136.695V124.718C314.712 123.894 314.596 123.187 314.363 122.596C314.131 122.005 313.764 121.549 313.262 121.227C312.761 120.886 312.09 120.716 311.248 120.716C310.568 120.716 309.986 120.833 309.502 121.065C309.019 121.298 308.652 121.647 308.401 122.113C308.151 122.578 308.025 123.169 308.025 123.885H298.975C298.975 122.542 299.271 121.298 299.861 120.152C300.47 118.989 301.329 117.977 302.439 117.118C303.567 116.258 304.91 115.596 306.468 115.13C308.043 114.647 309.798 114.405 311.731 114.405C314.041 114.405 316.1 114.79 317.908 115.56C319.734 116.33 321.176 117.485 322.232 119.024C323.288 120.546 323.816 122.462 323.816 124.771V136.668C323.816 138.566 323.924 140.007 324.139 140.992C324.354 141.959 324.658 142.809 325.052 143.543V144H315.975C315.545 143.105 315.223 142.013 315.008 140.724C314.811 139.417 314.712 138.074 314.712 136.695ZM315.813 126.249L315.867 131.083H311.866C311.024 131.083 310.308 131.199 309.717 131.432C309.144 131.664 308.679 131.987 308.321 132.398C307.981 132.792 307.73 133.24 307.569 133.741C307.426 134.243 307.354 134.771 307.354 135.326C307.354 135.863 307.479 136.346 307.73 136.776C307.999 137.188 308.357 137.51 308.804 137.743C309.252 137.975 309.753 138.092 310.308 138.092C311.311 138.092 312.161 137.904 312.859 137.528C313.576 137.134 314.122 136.66 314.498 136.104C314.874 135.549 315.062 135.03 315.062 134.547L317.049 138.253C316.691 138.969 316.279 139.694 315.813 140.428C315.366 141.162 314.802 141.843 314.122 142.469C313.459 143.078 312.645 143.579 311.678 143.973C310.711 144.349 309.538 144.537 308.16 144.537C306.369 144.537 304.722 144.17 303.218 143.436C301.732 142.702 300.542 141.681 299.646 140.375C298.751 139.05 298.304 137.528 298.304 135.809C298.304 134.305 298.572 132.962 299.109 131.781C299.664 130.599 300.497 129.597 301.607 128.773C302.717 127.949 304.131 127.323 305.85 126.893C307.569 126.463 309.592 126.249 311.919 126.249H315.813ZM355.667 144H346.993L347.046 136.749H355.667C357.457 136.749 358.97 136.319 360.206 135.46C361.459 134.601 362.408 133.32 363.052 131.62C363.715 129.901 364.046 127.788 364.046 125.282V123.59C364.046 121.71 363.858 120.063 363.482 118.648C363.124 117.216 362.587 116.026 361.871 115.077C361.154 114.11 360.259 113.385 359.185 112.901C358.129 112.418 356.911 112.176 355.533 112.176H346.832V104.898H355.533C358.182 104.898 360.608 105.355 362.811 106.268C365.031 107.163 366.946 108.452 368.558 110.135C370.187 111.8 371.44 113.779 372.317 116.07C373.213 118.344 373.66 120.868 373.66 123.644V125.282C373.66 128.039 373.213 130.563 372.317 132.855C371.44 135.147 370.196 137.125 368.584 138.79C366.973 140.455 365.066 141.744 362.864 142.657C360.68 143.552 358.281 144 355.667 144ZM352.391 104.898V144H342.964V104.898H352.391ZM377.017 129.767V129.203C377.017 127.072 377.321 125.112 377.93 123.321C378.539 121.513 379.434 119.946 380.616 118.622C381.797 117.297 383.257 116.267 384.993 115.533C386.73 114.781 388.735 114.405 391.009 114.405C393.3 114.405 395.315 114.781 397.051 115.533C398.806 116.267 400.274 117.297 401.456 118.622C402.637 119.946 403.532 121.513 404.141 123.321C404.75 125.112 405.054 127.072 405.054 129.203V129.767C405.054 131.879 404.75 133.84 404.141 135.648C403.532 137.438 402.637 139.005 401.456 140.348C400.274 141.673 398.815 142.702 397.078 143.436C395.341 144.17 393.336 144.537 391.062 144.537C388.789 144.537 386.775 144.17 385.02 143.436C383.265 142.702 381.797 141.673 380.616 140.348C379.434 139.005 378.539 137.438 377.93 135.648C377.321 133.84 377.017 131.879 377.017 129.767ZM386.067 129.203V129.767C386.067 130.859 386.148 131.879 386.309 132.828C386.47 133.777 386.739 134.61 387.115 135.326C387.491 136.024 388.001 136.57 388.646 136.964C389.29 137.358 390.096 137.555 391.062 137.555C392.011 137.555 392.799 137.358 393.426 136.964C394.07 136.57 394.581 136.024 394.957 135.326C395.333 134.61 395.601 133.777 395.762 132.828C395.923 131.879 396.004 130.859 396.004 129.767V129.203C396.004 128.146 395.923 127.153 395.762 126.222C395.601 125.273 395.333 124.44 394.957 123.724C394.581 122.99 394.07 122.417 393.426 122.005C392.781 121.594 391.976 121.388 391.009 121.388C390.06 121.388 389.263 121.594 388.619 122.005C387.992 122.417 387.491 122.99 387.115 123.724C386.739 124.44 386.47 125.273 386.309 126.222C386.148 127.153 386.067 128.146 386.067 129.203ZM421.355 137.555C422.197 137.555 422.913 137.403 423.504 137.098C424.113 136.776 424.569 136.328 424.874 135.755C425.196 135.165 425.348 134.457 425.33 133.634H433.843C433.861 135.818 433.324 137.734 432.232 139.381C431.158 141.01 429.69 142.281 427.828 143.194C425.984 144.09 423.898 144.537 421.57 144.537C419.297 144.537 417.309 144.17 415.608 143.436C413.908 142.684 412.484 141.646 411.338 140.321C410.21 138.978 409.36 137.411 408.787 135.621C408.232 133.831 407.955 131.888 407.955 129.793V129.176C407.955 127.081 408.232 125.139 408.787 123.348C409.36 121.54 410.21 119.973 411.338 118.648C412.484 117.306 413.899 116.267 415.582 115.533C417.282 114.781 419.261 114.405 421.517 114.405C423.934 114.405 426.064 114.862 427.908 115.775C429.77 116.688 431.229 118.013 432.286 119.75C433.342 121.486 433.861 123.59 433.843 126.061H425.33C425.348 125.183 425.214 124.396 424.927 123.697C424.641 122.999 424.193 122.444 423.584 122.032C422.994 121.603 422.233 121.388 421.302 121.388C420.371 121.388 419.619 121.594 419.046 122.005C418.473 122.417 418.034 122.99 417.73 123.724C417.444 124.44 417.247 125.264 417.139 126.195C417.05 127.126 417.005 128.119 417.005 129.176V129.793C417.005 130.868 417.05 131.879 417.139 132.828C417.247 133.759 417.452 134.583 417.757 135.299C418.061 135.997 418.5 136.552 419.073 136.964C419.646 137.358 420.407 137.555 421.355 137.555ZM453.018 114.942V121.227H435.508V114.942H453.018ZM439.188 107.718H448.238V134.52C448.238 135.29 448.327 135.89 448.506 136.319C448.685 136.731 448.99 137.027 449.419 137.206C449.867 137.367 450.458 137.447 451.192 137.447C451.711 137.447 452.141 137.438 452.481 137.42C452.821 137.385 453.143 137.34 453.448 137.286V143.758C452.678 144.009 451.872 144.197 451.031 144.322C450.189 144.465 449.294 144.537 448.345 144.537C446.412 144.537 444.756 144.233 443.377 143.624C442.016 143.015 440.978 142.057 440.262 140.75C439.546 139.444 439.188 137.743 439.188 135.648V107.718ZM454.683 129.767V129.203C454.683 127.072 454.987 125.112 455.596 123.321C456.205 121.513 457.1 119.946 458.282 118.622C459.463 117.297 460.923 116.267 462.659 115.533C464.396 114.781 466.401 114.405 468.675 114.405C470.966 114.405 472.981 114.781 474.717 115.533C476.472 116.267 477.94 117.297 479.122 118.622C480.303 119.946 481.198 121.513 481.807 123.321C482.416 125.112 482.72 127.072 482.72 129.203V129.767C482.72 131.879 482.416 133.84 481.807 135.648C481.198 137.438 480.303 139.005 479.122 140.348C477.94 141.673 476.481 142.702 474.744 143.436C473.007 144.17 471.002 144.537 468.729 144.537C466.455 144.537 464.441 144.17 462.686 143.436C460.931 142.702 459.463 141.673 458.282 140.348C457.1 139.005 456.205 137.438 455.596 135.648C454.987 133.84 454.683 131.879 454.683 129.767ZM463.733 129.203V129.767C463.733 130.859 463.814 131.879 463.975 132.828C464.136 133.777 464.405 134.61 464.781 135.326C465.157 136.024 465.667 136.57 466.312 136.964C466.956 137.358 467.762 137.555 468.729 137.555C469.677 137.555 470.465 137.358 471.092 136.964C471.736 136.57 472.247 136.024 472.623 135.326C472.999 134.61 473.267 133.777 473.428 132.828C473.589 131.879 473.67 130.859 473.67 129.767V129.203C473.67 128.146 473.589 127.153 473.428 126.222C473.267 125.273 472.999 124.44 472.623 123.724C472.247 122.99 471.736 122.417 471.092 122.005C470.447 121.594 469.642 121.388 468.675 121.388C467.726 121.388 466.929 121.594 466.285 122.005C465.658 122.417 465.157 122.99 464.781 123.724C464.405 124.44 464.136 125.273 463.975 126.222C463.814 127.153 463.733 128.146 463.733 129.203ZM495.879 122.14V144H486.829V114.942H495.289L495.879 122.14ZM504.473 114.728L504.312 123.133C503.954 123.097 503.471 123.053 502.862 122.999C502.253 122.945 501.743 122.918 501.331 122.918C500.275 122.918 499.362 123.044 498.592 123.294C497.84 123.527 497.213 123.885 496.712 124.369C496.229 124.834 495.87 125.425 495.638 126.141C495.423 126.857 495.324 127.69 495.342 128.639L493.704 127.564C493.704 125.613 493.892 123.84 494.268 122.247C494.662 120.636 495.217 119.248 495.933 118.084C496.649 116.903 497.518 115.999 498.538 115.372C499.559 114.728 500.704 114.405 501.976 114.405C502.423 114.405 502.862 114.432 503.292 114.486C503.739 114.54 504.133 114.62 504.473 114.728Z" fill="black"/>
<path d="M104.339 59.3726L97.5713 80H92.1196L101.365 55.1172H104.834L104.339 59.3726ZM109.961 80L103.177 59.3726L102.63 55.1172H106.133L115.43 80H109.961ZM109.654 70.7373V74.7534H96.5117V70.7373H109.654ZM117.43 53.75H122.352V75.7617L121.856 80H117.43V53.75ZM134.058 70.5664V70.9253C134.058 72.3039 133.91 73.5685 133.614 74.7192C133.329 75.87 132.885 76.8669 132.281 77.71C131.677 78.5417 130.925 79.1911 130.025 79.6582C129.136 80.1139 128.088 80.3418 126.88 80.3418C125.752 80.3418 124.773 80.1139 123.941 79.6582C123.121 79.2025 122.431 78.5588 121.873 77.7271C121.315 76.8953 120.865 75.9212 120.523 74.8047C120.181 73.6882 119.925 72.4691 119.754 71.1475V70.3613C119.925 69.0397 120.181 67.8206 120.523 66.7041C120.865 65.5876 121.315 64.6134 121.873 63.7817C122.431 62.95 123.121 62.3063 123.941 61.8506C124.761 61.3949 125.73 61.167 126.846 61.167C128.065 61.167 129.125 61.4006 130.025 61.8677C130.936 62.3234 131.688 62.9728 132.281 63.8159C132.885 64.6476 133.329 65.6388 133.614 66.7896C133.91 67.9289 134.058 69.1878 134.058 70.5664ZM129.136 70.9253V70.5664C129.136 69.8145 129.079 69.1081 128.965 68.4473C128.863 67.7751 128.681 67.1883 128.418 66.687C128.156 66.1743 127.798 65.7699 127.342 65.4736C126.897 65.1774 126.322 65.0293 125.616 65.0293C124.944 65.0293 124.374 65.1432 123.907 65.3711C123.44 65.599 123.052 65.918 122.745 66.3281C122.448 66.7383 122.226 67.2282 122.078 67.7979C121.93 68.3561 121.839 68.9714 121.805 69.6436V71.8823C121.839 72.7824 121.987 73.5799 122.249 74.2749C122.522 74.9585 122.933 75.4997 123.479 75.8984C124.038 76.2858 124.761 76.4795 125.65 76.4795C126.345 76.4795 126.92 76.3428 127.376 76.0693C127.832 75.7959 128.185 75.4085 128.436 74.9072C128.698 74.4059 128.88 73.8192 128.982 73.147C129.085 72.4634 129.136 71.7228 129.136 70.9253ZM148.038 75.9668V53.75H152.994V80H148.533L148.038 75.9668ZM136.348 70.9766V70.6177C136.348 69.2049 136.508 67.9232 136.827 66.7725C137.146 65.6104 137.613 64.6134 138.228 63.7817C138.843 62.95 139.601 62.3063 140.501 61.8506C141.401 61.3949 142.426 61.167 143.577 61.167C144.66 61.167 145.605 61.3949 146.414 61.8506C147.234 62.3063 147.929 62.9557 148.499 63.7988C149.08 64.6305 149.547 65.616 149.9 66.7554C150.254 67.8833 150.51 69.1195 150.669 70.4639V71.25C150.51 72.5374 150.254 73.7337 149.9 74.8389C149.547 75.944 149.08 76.9124 148.499 77.7441C147.929 78.5645 147.234 79.2025 146.414 79.6582C145.594 80.1139 144.637 80.3418 143.543 80.3418C142.392 80.3418 141.367 80.1082 140.467 79.6411C139.578 79.174 138.826 78.5189 138.211 77.6758C137.607 76.8327 137.146 75.8415 136.827 74.7021C136.508 73.5628 136.348 72.321 136.348 70.9766ZM141.27 70.6177V70.9766C141.27 71.7399 141.327 72.452 141.441 73.1128C141.566 73.7736 141.766 74.3604 142.039 74.873C142.324 75.3743 142.688 75.7674 143.133 76.0522C143.589 76.3257 144.141 76.4624 144.791 76.4624C145.634 76.4624 146.329 76.2744 146.875 75.8984C147.422 75.5111 147.838 74.9813 148.123 74.3091C148.419 73.6369 148.59 72.8621 148.636 71.9849V69.7461C148.602 69.0283 148.499 68.3846 148.328 67.8149C148.169 67.2339 147.929 66.7383 147.61 66.3281C147.303 65.918 146.915 65.599 146.448 65.3711C145.993 65.1432 145.451 65.0293 144.825 65.0293C144.187 65.0293 143.64 65.1774 143.184 65.4736C142.728 65.7585 142.358 66.1515 142.073 66.6528C141.8 67.1541 141.595 67.7466 141.458 68.4302C141.333 69.1024 141.27 69.8315 141.27 70.6177ZM167.776 75.5737V61.5088H172.698V80H168.067L167.776 75.5737ZM168.323 71.7798L169.776 71.7456C169.776 72.9761 169.633 74.1211 169.349 75.1807C169.064 76.2288 168.637 77.1403 168.067 77.915C167.497 78.6784 166.779 79.2765 165.914 79.7095C165.048 80.131 164.028 80.3418 162.854 80.3418C161.954 80.3418 161.123 80.2165 160.359 79.9658C159.607 79.7038 158.958 79.2993 158.411 78.7524C157.876 78.1942 157.454 77.4821 157.146 76.6162C156.85 75.7389 156.702 74.6851 156.702 73.4546V61.5088H161.624V73.4888C161.624 74.0356 161.687 74.4971 161.812 74.873C161.949 75.249 162.137 75.5566 162.376 75.7959C162.615 76.0352 162.894 76.2061 163.213 76.3086C163.544 76.4111 163.908 76.4624 164.307 76.4624C165.321 76.4624 166.119 76.2573 166.7 75.8472C167.292 75.437 167.708 74.8787 167.947 74.1724C168.198 73.4546 168.323 72.6571 168.323 71.7798ZM181.653 53.75V80H176.714V53.75H181.653ZM204.861 59.3726L198.094 80H192.642L201.888 55.1172H205.357L204.861 59.3726ZM210.484 80L203.699 59.3726L203.152 55.1172H206.656L215.953 80H210.484ZM210.176 70.7373V74.7534H197.034V70.7373H210.176ZM232.872 76.1548V80H218.824V76.1548H232.872ZM232.598 64.3457L220.806 80H217.508V77.0776L229.249 61.5088H232.598V64.3457ZM230.855 61.5088V65.3711H217.781V61.5088H230.855ZM241.16 61.5088V80H236.221V61.5088H241.16ZM235.914 56.6895C235.914 55.9717 236.164 55.3792 236.666 54.9121C237.167 54.445 237.839 54.2114 238.682 54.2114C239.514 54.2114 240.18 54.445 240.682 54.9121C241.194 55.3792 241.451 55.9717 241.451 56.6895C241.451 57.4072 241.194 57.9997 240.682 58.4668C240.18 58.9339 239.514 59.1675 238.682 59.1675C237.839 59.1675 237.167 58.9339 236.666 58.4668C236.164 57.9997 235.914 57.4072 235.914 56.6895ZM259.942 76.1548V80H245.894V76.1548H259.942ZM259.668 64.3457L247.876 80H244.578V77.0776L256.319 61.5088H259.668V64.3457ZM257.925 61.5088V65.3711H244.852V61.5088H257.925ZM277.186 55.1172V80H272.059V55.1172H277.186ZM292.088 55.1172L282.227 67.4048L276.536 73.5229L275.613 68.6694L279.458 63.4058L285.799 55.1172H292.088ZM286.26 80L278.929 68.4985L282.723 65.3198L292.327 80H286.26ZM298.804 53.75V80H293.882V53.75H298.804ZM298.104 70.105H296.753C296.765 68.8175 296.936 67.6326 297.266 66.5503C297.597 65.4565 298.069 64.5109 298.685 63.7134C299.3 62.9045 300.035 62.2778 300.889 61.8335C301.755 61.3892 302.712 61.167 303.76 61.167C304.672 61.167 305.498 61.298 306.238 61.5601C306.99 61.8107 307.634 62.2209 308.169 62.7905C308.716 63.3488 309.138 64.0837 309.434 64.9951C309.73 65.9066 309.878 67.0117 309.878 68.3105V80H304.922V68.2764C304.922 67.4561 304.803 66.8123 304.563 66.3452C304.336 65.8667 304 65.5306 303.555 65.3369C303.122 65.1318 302.587 65.0293 301.949 65.0293C301.242 65.0293 300.639 65.1603 300.137 65.4224C299.647 65.6844 299.254 66.049 298.958 66.5161C298.662 66.9718 298.445 67.5073 298.309 68.1226C298.172 68.7378 298.104 69.3986 298.104 70.105ZM323.602 75.8301V67.5928C323.602 67.0003 323.505 66.4933 323.311 66.0718C323.117 65.6388 322.815 65.3027 322.405 65.0635C322.007 64.8242 321.488 64.7046 320.85 64.7046C320.303 64.7046 319.83 64.8014 319.432 64.9951C319.033 65.1774 318.725 65.4451 318.509 65.7983C318.292 66.1401 318.184 66.5446 318.184 67.0117H313.262C313.262 66.2256 313.444 65.4793 313.809 64.7729C314.174 64.0666 314.703 63.4456 315.398 62.9102C316.093 62.3633 316.919 61.936 317.876 61.6284C318.845 61.3208 319.927 61.167 321.124 61.167C322.559 61.167 323.835 61.4062 324.952 61.8848C326.068 62.3633 326.945 63.0811 327.583 64.0381C328.233 64.9951 328.558 66.1914 328.558 67.627V75.5396C328.558 76.5535 328.62 77.3853 328.746 78.0347C328.871 78.6727 329.053 79.231 329.292 79.7095V80H324.319C324.08 79.4987 323.898 78.8721 323.772 78.1201C323.659 77.3568 323.602 76.5934 323.602 75.8301ZM324.251 68.7378L324.285 71.5234H321.534C320.884 71.5234 320.32 71.5975 319.842 71.7456C319.363 71.8937 318.97 72.1045 318.663 72.3779C318.355 72.64 318.127 72.9476 317.979 73.3008C317.842 73.654 317.774 74.0413 317.774 74.4629C317.774 74.8844 317.871 75.2661 318.064 75.6079C318.258 75.9383 318.537 76.2004 318.902 76.394C319.266 76.5763 319.694 76.6675 320.184 76.6675C320.924 76.6675 321.568 76.5194 322.115 76.2231C322.662 75.9269 323.083 75.5623 323.379 75.1294C323.687 74.6965 323.847 74.2863 323.858 73.8989L325.157 75.9839C324.974 76.451 324.724 76.9352 324.405 77.4365C324.097 77.9378 323.704 78.4106 323.226 78.855C322.747 79.2879 322.172 79.6468 321.5 79.9316C320.827 80.2051 320.03 80.3418 319.107 80.3418C317.933 80.3418 316.868 80.1082 315.911 79.6411C314.965 79.1626 314.214 78.5075 313.655 77.6758C313.108 76.8327 312.835 75.8757 312.835 74.8047C312.835 73.8363 313.017 72.9761 313.382 72.2241C313.746 71.4722 314.282 70.8398 314.988 70.3271C315.706 69.8031 316.6 69.41 317.671 69.1479C318.742 68.8745 319.984 68.7378 321.397 68.7378H324.251ZM337.273 65.542V80H332.352V61.5088H336.983L337.273 65.542ZM342.845 61.3892L342.759 65.9521C342.52 65.918 342.229 65.8895 341.888 65.8667C341.557 65.8325 341.255 65.8154 340.982 65.8154C340.287 65.8154 339.683 65.9066 339.17 66.0889C338.669 66.2598 338.248 66.5161 337.906 66.8579C337.575 67.1997 337.325 67.6156 337.154 68.1055C336.994 68.5954 336.903 69.1536 336.88 69.7803L335.889 69.4727C335.889 68.2764 336.009 67.1769 336.248 66.1743C336.487 65.1603 336.835 64.2773 337.291 63.5254C337.758 62.7734 338.327 62.1924 339 61.7822C339.672 61.3721 340.441 61.167 341.307 61.167C341.58 61.167 341.859 61.1898 342.144 61.2354C342.429 61.2695 342.662 61.3208 342.845 61.3892ZM350.091 65.542V80H345.169V61.5088H349.8L350.091 65.542ZM355.662 61.3892L355.577 65.9521C355.337 65.918 355.047 65.8895 354.705 65.8667C354.375 65.8325 354.073 65.8154 353.799 65.8154C353.104 65.8154 352.5 65.9066 351.988 66.0889C351.486 66.2598 351.065 66.5161 350.723 66.8579C350.393 67.1997 350.142 67.6156 349.971 68.1055C349.812 68.5954 349.721 69.1536 349.698 69.7803L348.707 69.4727C348.707 68.2764 348.826 67.1769 349.065 66.1743C349.305 65.1603 349.652 64.2773 350.108 63.5254C350.575 62.7734 351.145 62.1924 351.817 61.7822C352.489 61.3721 353.258 61.167 354.124 61.167C354.397 61.167 354.677 61.1898 354.961 61.2354C355.246 61.2695 355.48 61.3208 355.662 61.3892ZM367.386 75.8301V67.5928C367.386 67.0003 367.289 66.4933 367.095 66.0718C366.902 65.6388 366.6 65.3027 366.189 65.0635C365.791 64.8242 365.272 64.7046 364.634 64.7046C364.087 64.7046 363.615 64.8014 363.216 64.9951C362.817 65.1774 362.509 65.4451 362.293 65.7983C362.076 66.1401 361.968 66.5446 361.968 67.0117H357.046C357.046 66.2256 357.229 65.4793 357.593 64.7729C357.958 64.0666 358.488 63.4456 359.183 62.9102C359.878 62.3633 360.704 61.936 361.661 61.6284C362.629 61.3208 363.711 61.167 364.908 61.167C366.343 61.167 367.619 61.4062 368.736 61.8848C369.852 62.3633 370.73 63.0811 371.368 64.0381C372.017 64.9951 372.342 66.1914 372.342 67.627V75.5396C372.342 76.5535 372.404 77.3853 372.53 78.0347C372.655 78.6727 372.837 79.231 373.077 79.7095V80H368.104C367.864 79.4987 367.682 78.8721 367.557 78.1201C367.443 77.3568 367.386 76.5934 367.386 75.8301ZM368.035 68.7378L368.069 71.5234H365.318C364.668 71.5234 364.104 71.5975 363.626 71.7456C363.147 71.8937 362.754 72.1045 362.447 72.3779C362.139 72.64 361.911 72.9476 361.763 73.3008C361.626 73.654 361.558 74.0413 361.558 74.4629C361.558 74.8844 361.655 75.2661 361.849 75.6079C362.042 75.9383 362.321 76.2004 362.686 76.394C363.051 76.5763 363.478 76.6675 363.968 76.6675C364.708 76.6675 365.352 76.5194 365.899 76.2231C366.446 75.9269 366.867 75.5623 367.164 75.1294C367.471 74.6965 367.631 74.2863 367.642 73.8989L368.941 75.9839C368.759 76.451 368.508 76.9352 368.189 77.4365C367.881 77.9378 367.488 78.4106 367.01 78.855C366.531 79.2879 365.956 79.6468 365.284 79.9316C364.611 80.2051 363.814 80.3418 362.891 80.3418C361.718 80.3418 360.652 80.1082 359.695 79.6411C358.75 79.1626 357.998 78.5075 357.439 77.6758C356.893 76.8327 356.619 75.8757 356.619 74.8047C356.619 73.8363 356.801 72.9761 357.166 72.2241C357.531 71.4722 358.066 70.8398 358.772 70.3271C359.49 69.8031 360.385 69.41 361.456 69.1479C362.527 68.8745 363.768 68.7378 365.181 68.7378H368.035ZM390.85 76.1548V80H376.802V76.1548H390.85ZM390.577 64.3457L378.785 80H375.486V77.0776L387.227 61.5088H390.577V64.3457ZM388.833 61.5088V65.3711H375.76V61.5088H388.833Z" fill="#888888"/>
<rect x="92" y="181" width="1179" height="80" rx="13.3333" fill="#CCCCCC"/>
<rect x="107" y="196.333" width="208" height="49.3333" rx="4.66667" fill="#888888" stroke="#888888" stroke-width="4"/>
<path d="M171.823 213.167H177.792C178.958 213.167 179.972 213.34 180.833 213.687C181.694 214.035 182.358 214.549 182.823 215.229C183.295 215.91 183.531 216.75 183.531 217.75C183.531 218.618 183.396 219.344 183.125 219.927C182.854 220.51 182.476 220.993 181.99 221.375C181.51 221.75 180.951 222.059 180.312 222.302L179.115 222.979H174.104L174.083 220.156H177.792C178.257 220.156 178.642 220.073 178.948 219.906C179.253 219.74 179.483 219.503 179.635 219.198C179.795 218.885 179.875 218.514 179.875 218.083C179.875 217.646 179.795 217.271 179.635 216.958C179.476 216.646 179.24 216.406 178.927 216.24C178.622 216.073 178.243 215.99 177.792 215.99H175.479V228.333H171.823V213.167ZM180.125 228.333L176.771 221.625L180.646 221.604L184.042 228.177V228.333H180.125ZM191.031 228.542C190.115 228.542 189.295 228.399 188.573 228.115C187.851 227.823 187.24 227.424 186.74 226.917C186.247 226.41 185.868 225.826 185.604 225.167C185.347 224.507 185.219 223.809 185.219 223.073V222.677C185.219 221.851 185.333 221.087 185.562 220.385C185.792 219.677 186.132 219.059 186.583 218.531C187.035 218.003 187.601 217.594 188.281 217.302C188.962 217.003 189.753 216.854 190.656 216.854C191.455 216.854 192.17 216.983 192.802 217.24C193.434 217.497 193.969 217.865 194.406 218.344C194.851 218.823 195.187 219.403 195.417 220.083C195.653 220.764 195.771 221.528 195.771 222.375V223.802H186.562V221.604H192.344V221.333C192.351 220.958 192.285 220.639 192.146 220.375C192.014 220.111 191.819 219.91 191.562 219.771C191.306 219.632 190.993 219.562 190.625 219.562C190.243 219.562 189.927 219.646 189.677 219.812C189.434 219.979 189.243 220.208 189.104 220.5C188.972 220.785 188.878 221.115 188.823 221.49C188.767 221.865 188.74 222.26 188.74 222.677V223.073C188.74 223.49 188.795 223.868 188.906 224.208C189.024 224.549 189.191 224.84 189.406 225.083C189.628 225.319 189.892 225.503 190.198 225.635C190.51 225.767 190.865 225.833 191.26 225.833C191.74 225.833 192.212 225.743 192.677 225.562C193.142 225.382 193.542 225.083 193.875 224.667L195.469 226.562C195.24 226.889 194.913 227.205 194.49 227.51C194.073 227.816 193.573 228.066 192.99 228.26C192.406 228.448 191.753 228.542 191.031 228.542ZM203.052 225.5V220.854C203.052 220.535 203.007 220.26 202.917 220.031C202.826 219.802 202.684 219.625 202.49 219.5C202.295 219.368 202.035 219.302 201.708 219.302C201.444 219.302 201.219 219.347 201.031 219.437C200.844 219.528 200.701 219.663 200.604 219.844C200.507 220.024 200.458 220.253 200.458 220.531H196.948C196.948 220.01 197.062 219.528 197.292 219.083C197.528 218.632 197.861 218.24 198.292 217.906C198.729 217.573 199.25 217.316 199.854 217.135C200.465 216.948 201.146 216.854 201.896 216.854C202.792 216.854 203.59 217.003 204.292 217.302C205 217.601 205.559 218.049 205.969 218.646C206.378 219.236 206.583 219.979 206.583 220.875V225.49C206.583 226.226 206.625 226.785 206.708 227.167C206.792 227.542 206.91 227.872 207.062 228.156V228.333H203.542C203.375 227.986 203.25 227.562 203.167 227.062C203.09 226.556 203.052 226.035 203.052 225.5ZM203.479 221.448L203.5 223.323H201.948C201.622 223.323 201.344 223.368 201.115 223.458C200.892 223.549 200.712 223.674 200.573 223.833C200.441 223.986 200.344 224.16 200.281 224.354C200.226 224.549 200.198 224.753 200.198 224.969C200.198 225.177 200.247 225.365 200.344 225.531C200.448 225.691 200.587 225.816 200.76 225.906C200.934 225.997 201.128 226.042 201.344 226.042C201.733 226.042 202.062 225.969 202.333 225.823C202.611 225.67 202.823 225.486 202.969 225.271C203.115 225.056 203.187 224.854 203.187 224.667L203.958 226.104C203.819 226.382 203.66 226.663 203.479 226.948C203.306 227.233 203.087 227.497 202.823 227.74C202.566 227.976 202.25 228.17 201.875 228.323C201.5 228.469 201.045 228.542 200.51 228.542C199.816 228.542 199.177 228.399 198.594 228.115C198.017 227.83 197.556 227.434 197.208 226.927C196.861 226.413 196.687 225.823 196.687 225.156C196.687 224.573 196.792 224.052 197 223.594C197.215 223.135 197.538 222.747 197.969 222.427C198.399 222.108 198.948 221.865 199.615 221.698C200.281 221.531 201.066 221.448 201.969 221.448H203.479ZM213.292 225.833C213.618 225.833 213.896 225.774 214.125 225.656C214.361 225.531 214.538 225.358 214.656 225.135C214.781 224.906 214.84 224.632 214.833 224.312H218.135C218.142 225.16 217.934 225.903 217.51 226.542C217.094 227.174 216.524 227.667 215.802 228.021C215.087 228.368 214.278 228.542 213.375 228.542C212.493 228.542 211.722 228.399 211.062 228.115C210.403 227.823 209.851 227.42 209.406 226.906C208.969 226.385 208.639 225.778 208.417 225.083C208.201 224.389 208.094 223.635 208.094 222.823V222.583C208.094 221.771 208.201 221.017 208.417 220.323C208.639 219.622 208.969 219.014 209.406 218.5C209.851 217.979 210.399 217.576 211.052 217.292C211.712 217 212.479 216.854 213.354 216.854C214.292 216.854 215.118 217.031 215.833 217.385C216.556 217.74 217.122 218.253 217.531 218.927C217.941 219.601 218.142 220.417 218.135 221.375H214.833C214.84 221.035 214.788 220.729 214.677 220.458C214.566 220.187 214.392 219.972 214.156 219.812C213.927 219.646 213.632 219.562 213.271 219.562C212.91 219.562 212.618 219.642 212.396 219.802C212.174 219.962 212.003 220.184 211.885 220.469C211.774 220.747 211.698 221.066 211.656 221.427C211.622 221.788 211.604 222.174 211.604 222.583V222.823C211.604 223.24 211.622 223.632 211.656 224C211.698 224.361 211.778 224.681 211.896 224.958C212.014 225.229 212.184 225.444 212.406 225.604C212.628 225.757 212.924 225.833 213.292 225.833ZM225.573 217.062V219.5H218.781V217.062H225.573ZM220.208 214.26H223.719V224.656C223.719 224.955 223.753 225.187 223.823 225.354C223.892 225.514 224.01 225.628 224.177 225.698C224.351 225.76 224.58 225.792 224.865 225.792C225.066 225.792 225.233 225.788 225.365 225.781C225.497 225.767 225.622 225.75 225.74 225.729V228.24C225.441 228.337 225.128 228.41 224.802 228.458C224.476 228.514 224.128 228.542 223.76 228.542C223.01 228.542 222.368 228.424 221.833 228.187C221.306 227.951 220.903 227.58 220.625 227.073C220.347 226.566 220.208 225.906 220.208 225.094V214.26ZM233.167 223.573V213.167H236.812V223.573C236.812 224.587 236.58 225.465 236.115 226.208C235.656 226.951 235.031 227.528 234.24 227.937C233.455 228.34 232.573 228.542 231.594 228.542C230.58 228.542 229.677 228.372 228.885 228.031C228.101 227.691 227.483 227.167 227.031 226.458C226.587 225.75 226.365 224.847 226.365 223.75H230.031C230.031 224.264 230.09 224.667 230.208 224.958C230.326 225.243 230.5 225.444 230.729 225.562C230.965 225.674 231.253 225.729 231.594 225.729C231.927 225.729 232.208 225.646 232.437 225.479C232.674 225.306 232.854 225.059 232.979 224.74C233.104 224.413 233.167 224.024 233.167 223.573ZM246.948 224.302C246.948 224.066 246.913 223.854 246.844 223.667C246.774 223.472 246.646 223.292 246.458 223.125C246.271 222.958 246 222.792 245.646 222.625C245.299 222.451 244.84 222.271 244.271 222.083C243.604 221.861 242.962 221.611 242.344 221.333C241.726 221.049 241.174 220.719 240.687 220.344C240.201 219.962 239.816 219.517 239.531 219.01C239.247 218.497 239.104 217.899 239.104 217.219C239.104 216.566 239.25 215.979 239.542 215.458C239.833 214.931 240.24 214.483 240.76 214.115C241.288 213.74 241.906 213.455 242.615 213.26C243.323 213.059 244.097 212.958 244.937 212.958C246.049 212.958 247.028 213.153 247.875 213.542C248.729 213.924 249.396 214.469 249.875 215.177C250.361 215.878 250.604 216.708 250.604 217.667H246.969C246.969 217.285 246.889 216.948 246.729 216.656C246.576 216.365 246.344 216.135 246.031 215.969C245.719 215.802 245.326 215.719 244.854 215.719C244.396 215.719 244.01 215.788 243.698 215.927C243.385 216.066 243.149 216.253 242.99 216.49C242.83 216.719 242.75 216.972 242.75 217.25C242.75 217.479 242.812 217.687 242.937 217.875C243.069 218.056 243.253 218.226 243.49 218.385C243.733 218.545 244.024 218.698 244.365 218.844C244.712 218.99 245.101 219.132 245.531 219.271C246.337 219.528 247.052 219.816 247.677 220.135C248.309 220.448 248.84 220.806 249.271 221.208C249.708 221.604 250.038 222.056 250.26 222.562C250.49 223.069 250.604 223.642 250.604 224.281C250.604 224.962 250.472 225.566 250.208 226.094C249.944 226.622 249.566 227.069 249.073 227.437C248.58 227.799 247.99 228.073 247.302 228.26C246.615 228.448 245.847 228.542 245 228.542C244.222 228.542 243.455 228.444 242.698 228.25C241.948 228.049 241.267 227.743 240.656 227.333C240.045 226.917 239.556 226.385 239.187 225.74C238.826 225.087 238.646 224.312 238.646 223.417H242.312C242.312 223.861 242.372 224.236 242.49 224.542C242.608 224.847 242.781 225.094 243.01 225.281C243.24 225.462 243.521 225.594 243.854 225.677C244.187 225.753 244.569 225.792 245 225.792C245.465 225.792 245.84 225.726 246.125 225.594C246.41 225.455 246.618 225.274 246.75 225.052C246.882 224.823 246.948 224.573 246.948 224.302Z" fill="white"/>
<rect x="339" y="196.333" width="208" height="49.3333" rx="4.66667" fill="#888888" stroke="#888888" stroke-width="4"/>
<path d="M419.073 225.521V228.333H411.406V225.521H419.073ZM412.708 213.167V228.333H409.052V213.167H412.708ZM426.302 225.5V220.854C426.302 220.535 426.257 220.26 426.167 220.031C426.076 219.802 425.934 219.625 425.74 219.5C425.545 219.368 425.285 219.302 424.958 219.302C424.694 219.302 424.469 219.347 424.281 219.437C424.094 219.528 423.951 219.663 423.854 219.844C423.757 220.024 423.708 220.253 423.708 220.531H420.198C420.198 220.01 420.312 219.528 420.542 219.083C420.778 218.632 421.111 218.24 421.542 217.906C421.979 217.573 422.5 217.316 423.104 217.135C423.715 216.948 424.396 216.854 425.146 216.854C426.042 216.854 426.84 217.003 427.542 217.302C428.25 217.601 428.809 218.049 429.219 218.646C429.628 219.236 429.833 219.979 429.833 220.875V225.49C429.833 226.226 429.875 226.785 429.958 227.167C430.042 227.542 430.16 227.872 430.312 228.156V228.333H426.792C426.625 227.986 426.5 227.562 426.417 227.062C426.34 226.556 426.302 226.035 426.302 225.5ZM426.729 221.448L426.75 223.323H425.198C424.872 223.323 424.594 223.368 424.365 223.458C424.142 223.549 423.962 223.674 423.823 223.833C423.691 223.986 423.594 224.16 423.531 224.354C423.476 224.549 423.448 224.753 423.448 224.969C423.448 225.177 423.497 225.365 423.594 225.531C423.698 225.691 423.837 225.816 424.01 225.906C424.184 225.997 424.378 226.042 424.594 226.042C424.983 226.042 425.312 225.969 425.583 225.823C425.861 225.67 426.073 225.486 426.219 225.271C426.365 225.056 426.437 224.854 426.437 224.667L427.208 226.104C427.069 226.382 426.91 226.663 426.729 226.948C426.556 227.233 426.337 227.497 426.073 227.74C425.816 227.976 425.5 228.17 425.125 228.323C424.75 228.469 424.295 228.542 423.76 228.542C423.066 228.542 422.427 228.399 421.844 228.115C421.267 227.83 420.806 227.434 420.458 226.927C420.111 226.413 419.937 225.823 419.937 225.156C419.937 224.573 420.042 224.052 420.25 223.594C420.465 223.135 420.788 222.747 421.219 222.427C421.649 222.108 422.198 221.865 422.865 221.698C423.531 221.531 424.316 221.448 425.219 221.448H426.729ZM435.323 219.854V228.333H431.812V217.062H435.094L435.323 219.854ZM438.656 216.979L438.594 220.24C438.455 220.226 438.267 220.208 438.031 220.187C437.795 220.167 437.597 220.156 437.437 220.156C437.028 220.156 436.674 220.205 436.375 220.302C436.083 220.392 435.84 220.531 435.646 220.719C435.458 220.899 435.319 221.128 435.229 221.406C435.146 221.684 435.108 222.007 435.115 222.375L434.479 221.958C434.479 221.201 434.552 220.514 434.698 219.896C434.851 219.271 435.066 218.733 435.344 218.281C435.622 217.823 435.958 217.472 436.354 217.229C436.75 216.979 437.194 216.854 437.687 216.854C437.861 216.854 438.031 216.865 438.198 216.885C438.372 216.906 438.524 216.937 438.656 216.979ZM445.406 225.5V220.854C445.406 220.535 445.361 220.26 445.271 220.031C445.181 219.802 445.038 219.625 444.844 219.5C444.649 219.368 444.389 219.302 444.063 219.302C443.799 219.302 443.573 219.347 443.385 219.437C443.198 219.528 443.056 219.663 442.958 219.844C442.861 220.024 442.813 220.253 442.813 220.531H439.302C439.302 220.01 439.417 219.528 439.646 219.083C439.882 218.632 440.215 218.24 440.646 217.906C441.083 217.573 441.604 217.316 442.208 217.135C442.819 216.948 443.5 216.854 444.25 216.854C445.146 216.854 445.944 217.003 446.646 217.302C447.354 217.601 447.913 218.049 448.323 218.646C448.733 219.236 448.938 219.979 448.938 220.875V225.49C448.938 226.226 448.979 226.785 449.063 227.167C449.146 227.542 449.264 227.872 449.417 228.156V228.333H445.896C445.729 227.986 445.604 227.562 445.521 227.062C445.444 226.556 445.406 226.035 445.406 225.5ZM445.833 221.448L445.854 223.323H444.302C443.976 223.323 443.698 223.368 443.469 223.458C443.247 223.549 443.066 223.674 442.927 223.833C442.795 223.986 442.698 224.16 442.635 224.354C442.58 224.549 442.552 224.753 442.552 224.969C442.552 225.177 442.601 225.365 442.698 225.531C442.802 225.691 442.941 225.816 443.115 225.906C443.288 225.997 443.483 226.042 443.698 226.042C444.087 226.042 444.417 225.969 444.688 225.823C444.965 225.67 445.177 225.486 445.323 225.271C445.469 225.056 445.542 224.854 445.542 224.667L446.313 226.104C446.174 226.382 446.014 226.663 445.833 226.948C445.66 227.233 445.441 227.497 445.177 227.74C444.92 227.976 444.604 228.17 444.229 228.323C443.854 228.469 443.399 228.542 442.865 228.542C442.17 228.542 441.531 228.399 440.948 228.115C440.372 227.83 439.91 227.434 439.563 226.927C439.215 226.413 439.042 225.823 439.042 225.156C439.042 224.573 439.146 224.052 439.354 223.594C439.569 223.135 439.892 222.747 440.323 222.427C440.753 222.108 441.302 221.865 441.969 221.698C442.635 221.531 443.42 221.448 444.323 221.448H445.833ZM454.781 225.927L457 217.062H460.698L457.01 228.333H454.823L454.781 225.927ZM453.469 217.062L455.656 225.927L455.635 228.333H453.437L449.76 217.062H453.469ZM467.052 228.542C466.135 228.542 465.316 228.399 464.594 228.115C463.872 227.823 463.26 227.424 462.76 226.917C462.267 226.41 461.889 225.826 461.625 225.167C461.368 224.507 461.24 223.809 461.24 223.073V222.677C461.24 221.851 461.354 221.087 461.583 220.385C461.812 219.677 462.153 219.059 462.604 218.531C463.056 218.003 463.622 217.594 464.302 217.302C464.983 217.003 465.774 216.854 466.677 216.854C467.476 216.854 468.191 216.983 468.823 217.24C469.455 217.497 469.99 217.865 470.427 218.344C470.872 218.823 471.208 219.403 471.437 220.083C471.674 220.764 471.792 221.528 471.792 222.375V223.802H462.583V221.604H468.365V221.333C468.372 220.958 468.306 220.639 468.167 220.375C468.035 220.111 467.84 219.91 467.583 219.771C467.326 219.632 467.014 219.562 466.646 219.562C466.264 219.562 465.948 219.646 465.698 219.812C465.455 219.979 465.264 220.208 465.125 220.5C464.993 220.785 464.899 221.115 464.844 221.49C464.788 221.865 464.76 222.26 464.76 222.677V223.073C464.76 223.49 464.816 223.868 464.927 224.208C465.045 224.549 465.212 224.84 465.427 225.083C465.649 225.319 465.913 225.503 466.219 225.635C466.531 225.767 466.885 225.833 467.281 225.833C467.76 225.833 468.233 225.743 468.698 225.562C469.163 225.382 469.562 225.083 469.896 224.667L471.49 226.562C471.26 226.889 470.934 227.205 470.51 227.51C470.094 227.816 469.594 228.066 469.01 228.26C468.427 228.448 467.774 228.542 467.052 228.542ZM476.927 212.333V228.333H473.406V212.333H476.927Z" fill="white"/>
<rect x="571" y="196.333" width="208" height="49.3333" rx="4.66667" fill="#888888" stroke="#888888" stroke-width="4"/>
<path d="M635.198 225.521V228.333H627.115V225.521H635.198ZM628.417 213.167V228.333H624.76V213.167H628.417ZM634.156 219.187V221.906H627.115V219.187H634.156ZM635.229 213.167V215.99H627.115V213.167H635.229ZM640.24 212.333V228.333H636.719V212.333H640.24ZM647.865 228.542C646.948 228.542 646.128 228.399 645.406 228.115C644.684 227.823 644.073 227.424 643.573 226.917C643.08 226.41 642.701 225.826 642.437 225.167C642.181 224.507 642.052 223.809 642.052 223.073V222.677C642.052 221.851 642.167 221.087 642.396 220.385C642.625 219.677 642.965 219.059 643.417 218.531C643.868 218.003 644.434 217.594 645.115 217.302C645.795 217.003 646.587 216.854 647.49 216.854C648.288 216.854 649.003 216.983 649.635 217.24C650.267 217.497 650.802 217.865 651.24 218.344C651.684 218.823 652.021 219.403 652.25 220.083C652.486 220.764 652.604 221.528 652.604 222.375V223.802H643.396V221.604H649.177V221.333C649.184 220.958 649.118 220.639 648.979 220.375C648.847 220.111 648.653 219.91 648.396 219.771C648.139 219.632 647.826 219.562 647.458 219.562C647.076 219.562 646.76 219.646 646.51 219.812C646.267 219.979 646.076 220.208 645.937 220.5C645.806 220.785 645.712 221.115 645.656 221.49C645.601 221.865 645.573 222.26 645.573 222.677V223.073C645.573 223.49 645.628 223.868 645.74 224.208C645.858 224.549 646.024 224.84 646.24 225.083C646.462 225.319 646.726 225.503 647.031 225.635C647.344 225.767 647.698 225.833 648.094 225.833C648.573 225.833 649.045 225.743 649.51 225.562C649.976 225.382 650.375 225.083 650.708 224.667L652.302 226.562C652.073 226.889 651.747 227.205 651.323 227.51C650.906 227.816 650.406 228.066 649.823 228.26C649.24 228.448 648.587 228.542 647.865 228.542ZM658.792 225.833C659.118 225.833 659.396 225.774 659.625 225.656C659.861 225.531 660.038 225.358 660.156 225.135C660.281 224.906 660.34 224.632 660.333 224.312H663.635C663.642 225.16 663.434 225.903 663.01 226.542C662.594 227.174 662.024 227.667 661.302 228.021C660.587 228.368 659.778 228.542 658.875 228.542C657.993 228.542 657.222 228.399 656.562 228.115C655.903 227.823 655.351 227.42 654.906 226.906C654.469 226.385 654.139 225.778 653.917 225.083C653.701 224.389 653.594 223.635 653.594 222.823V222.583C653.594 221.771 653.701 221.017 653.917 220.323C654.139 219.622 654.469 219.014 654.906 218.5C655.351 217.979 655.899 217.576 656.552 217.292C657.212 217 657.979 216.854 658.854 216.854C659.792 216.854 660.618 217.031 661.333 217.385C662.056 217.74 662.622 218.253 663.031 218.927C663.441 219.601 663.642 220.417 663.635 221.375H660.333C660.34 221.035 660.288 220.729 660.177 220.458C660.066 220.187 659.892 219.972 659.656 219.812C659.427 219.646 659.132 219.562 658.771 219.562C658.41 219.562 658.118 219.642 657.896 219.802C657.674 219.962 657.503 220.184 657.385 220.469C657.274 220.747 657.198 221.066 657.156 221.427C657.122 221.788 657.104 222.174 657.104 222.583V222.823C657.104 223.24 657.122 223.632 657.156 224C657.198 224.361 657.278 224.681 657.396 224.958C657.514 225.229 657.684 225.444 657.906 225.604C658.128 225.757 658.424 225.833 658.792 225.833ZM671.073 217.062V219.5H664.281V217.062H671.073ZM665.708 214.26H669.219V224.656C669.219 224.955 669.253 225.187 669.323 225.354C669.392 225.514 669.51 225.628 669.677 225.698C669.851 225.76 670.08 225.792 670.365 225.792C670.566 225.792 670.733 225.788 670.865 225.781C670.997 225.767 671.122 225.75 671.24 225.729V228.24C670.941 228.337 670.628 228.41 670.302 228.458C669.976 228.514 669.628 228.542 669.26 228.542C668.51 228.542 667.868 228.424 667.333 228.187C666.806 227.951 666.403 227.58 666.125 227.073C665.847 226.566 665.708 225.906 665.708 225.094V214.26ZM676.01 219.854V228.333H672.5V217.062H675.781L676.01 219.854ZM679.344 216.979L679.281 220.24C679.142 220.226 678.955 220.208 678.719 220.187C678.483 220.167 678.285 220.156 678.125 220.156C677.715 220.156 677.361 220.205 677.062 220.302C676.771 220.392 676.528 220.531 676.333 220.719C676.146 220.899 676.007 221.128 675.917 221.406C675.833 221.684 675.795 222.007 675.802 222.375L675.167 221.958C675.167 221.201 675.24 220.514 675.385 219.896C675.538 219.271 675.753 218.733 676.031 218.281C676.309 217.823 676.646 217.472 677.042 217.229C677.437 216.979 677.882 216.854 678.375 216.854C678.549 216.854 678.719 216.865 678.885 216.885C679.059 216.906 679.212 216.937 679.344 216.979ZM679.74 222.812V222.594C679.74 221.767 679.858 221.007 680.094 220.312C680.33 219.611 680.677 219.003 681.135 218.49C681.594 217.976 682.16 217.576 682.833 217.292C683.507 217 684.285 216.854 685.167 216.854C686.056 216.854 686.837 217 687.51 217.292C688.191 217.576 688.76 217.976 689.219 218.49C689.677 219.003 690.024 219.611 690.26 220.312C690.497 221.007 690.615 221.767 690.615 222.594V222.812C690.615 223.632 690.497 224.392 690.26 225.094C690.024 225.788 689.677 226.396 689.219 226.917C688.76 227.431 688.194 227.83 687.521 228.115C686.847 228.399 686.069 228.542 685.188 228.542C684.306 228.542 683.524 228.399 682.844 228.115C682.163 227.83 681.594 227.431 681.135 226.917C680.677 226.396 680.33 225.788 680.094 225.094C679.858 224.392 679.74 223.632 679.74 222.812ZM683.25 222.594V222.812C683.25 223.236 683.281 223.632 683.344 224C683.406 224.368 683.51 224.691 683.656 224.969C683.802 225.24 684 225.451 684.25 225.604C684.5 225.757 684.813 225.833 685.188 225.833C685.556 225.833 685.861 225.757 686.104 225.604C686.354 225.451 686.552 225.24 686.698 224.969C686.844 224.691 686.948 224.368 687.01 224C687.073 223.632 687.104 223.236 687.104 222.812V222.594C687.104 222.184 687.073 221.799 687.01 221.437C686.948 221.069 686.844 220.747 686.698 220.469C686.552 220.184 686.354 219.962 686.104 219.802C685.854 219.642 685.542 219.562 685.167 219.562C684.799 219.562 684.49 219.642 684.24 219.802C683.997 219.962 683.802 220.184 683.656 220.469C683.51 220.747 683.406 221.069 683.344 221.437C683.281 221.799 683.25 222.184 683.25 222.594ZM695.625 219.469V228.333H692.115V217.062H695.406L695.625 219.469ZM695.208 222.312L694.385 222.333C694.385 221.472 694.49 220.705 694.698 220.031C694.906 219.351 695.201 218.774 695.583 218.302C695.965 217.83 696.42 217.472 696.948 217.229C697.483 216.979 698.076 216.854 698.729 216.854C699.25 216.854 699.726 216.931 700.156 217.083C700.594 217.236 700.969 217.483 701.281 217.823C701.601 218.163 701.844 218.615 702.01 219.177C702.184 219.733 702.271 220.42 702.271 221.24V228.333H698.74V221.229C698.74 220.778 698.677 220.434 698.552 220.198C698.427 219.955 698.247 219.788 698.01 219.698C697.774 219.608 697.486 219.562 697.146 219.562C696.785 219.562 696.479 219.632 696.229 219.771C695.979 219.91 695.778 220.104 695.625 220.354C695.479 220.597 695.372 220.885 695.302 221.219C695.24 221.552 695.208 221.917 695.208 222.312ZM704.448 226.687C704.448 226.187 704.628 225.771 704.99 225.437C705.351 225.097 705.816 224.927 706.385 224.927C706.962 224.927 707.427 225.097 707.781 225.437C708.142 225.771 708.323 226.187 708.323 226.687C708.323 227.187 708.142 227.608 707.781 227.948C707.427 228.281 706.962 228.448 706.385 228.448C705.816 228.448 705.351 228.281 704.99 227.948C704.628 227.608 704.448 227.187 704.448 226.687ZM710.938 217.062H714.458V228.698C714.458 229.601 714.285 230.361 713.938 230.979C713.59 231.604 713.094 232.076 712.448 232.396C711.802 232.722 711.031 232.885 710.135 232.885C709.837 232.885 709.562 232.872 709.312 232.844C709.056 232.823 708.774 232.778 708.469 232.708V230.052C708.649 230.08 708.816 230.101 708.969 230.115C709.122 230.135 709.288 230.146 709.469 230.146C709.788 230.146 710.056 230.094 710.271 229.99C710.486 229.885 710.649 229.726 710.76 229.51C710.878 229.295 710.938 229.024 710.938 228.698V217.062ZM710.677 214.156C710.677 213.656 710.858 213.247 711.219 212.927C711.58 212.608 712.049 212.448 712.625 212.448C713.201 212.448 713.67 212.608 714.031 212.927C714.392 213.247 714.573 213.656 714.573 214.156C714.573 214.656 714.392 215.066 714.031 215.385C713.67 215.705 713.201 215.865 712.625 215.865C712.049 215.865 711.58 215.705 711.219 215.385C710.858 215.066 710.677 214.656 710.677 214.156ZM722.354 225.167C722.354 224.972 722.288 224.806 722.156 224.667C722.031 224.521 721.809 224.389 721.49 224.271C721.17 224.146 720.722 224.021 720.146 223.896C719.597 223.778 719.08 223.622 718.594 223.427C718.115 223.233 717.694 222.997 717.333 222.719C716.972 222.441 716.688 222.111 716.479 221.729C716.278 221.347 716.177 220.91 716.177 220.417C716.177 219.937 716.278 219.486 716.479 219.062C716.688 218.632 716.99 218.253 717.385 217.927C717.788 217.594 718.278 217.333 718.854 217.146C719.431 216.951 720.087 216.854 720.823 216.854C721.837 216.854 722.712 217.01 723.448 217.323C724.184 217.628 724.75 218.059 725.146 218.615C725.549 219.163 725.75 219.799 725.75 220.521H722.24C722.24 220.236 722.191 219.993 722.094 219.792C722.003 219.59 721.854 219.437 721.646 219.333C721.438 219.222 721.16 219.167 720.813 219.167C720.569 219.167 720.347 219.212 720.146 219.302C719.951 219.392 719.795 219.517 719.677 219.677C719.559 219.837 719.5 220.024 719.5 220.24C719.5 220.392 719.535 220.531 719.604 220.656C719.681 220.774 719.795 220.885 719.948 220.99C720.101 221.087 720.295 221.177 720.531 221.26C720.767 221.337 721.052 221.406 721.385 221.469C722.142 221.608 722.851 221.806 723.51 222.062C724.17 222.319 724.705 222.684 725.115 223.156C725.531 223.628 725.74 224.264 725.74 225.062C725.74 225.562 725.625 226.024 725.396 226.448C725.167 226.865 724.837 227.233 724.406 227.552C723.976 227.865 723.458 228.108 722.854 228.281C722.25 228.455 721.569 228.542 720.813 228.542C719.736 228.542 718.826 228.351 718.083 227.969C717.34 227.58 716.778 227.094 716.396 226.51C716.021 225.92 715.833 225.323 715.833 224.719H719.104C719.118 225.066 719.201 225.351 719.354 225.573C719.514 225.795 719.726 225.958 719.99 226.062C720.253 226.167 720.559 226.219 720.906 226.219C721.226 226.219 721.49 226.174 721.698 226.083C721.913 225.993 722.076 225.872 722.188 225.719C722.299 225.559 722.354 225.375 722.354 225.167Z" fill="white"/>
</svg>
