<svg width="1363" height="167" viewBox="0 0 1363 167" fill="none" xmlns="http://www.w3.org/2000/svg">
<rect width="1363" height="167" rx="15" fill="#F0F0F0"/>
<path d="M0 15C0 6.71573 6.71573 0 15 0H37V167H15C6.71573 167 0 160.284 0 152V15Z" fill="#424241"/>
<path d="M100.906 54.9219L93.3945 52.2383V49.0859L103.602 53.375V55.6367L100.906 54.9219ZM93.3945 57.1719L100.918 54.4297L103.602 53.7852V56.0352L93.3945 60.3242V57.1719ZM121.789 56.3398H125.293C125.223 57.4883 124.906 58.5078 124.344 59.3984C123.789 60.2891 123.012 60.9844 122.012 61.4844C121.02 61.9844 119.824 62.2344 118.426 62.2344C117.332 62.2344 116.352 62.0469 115.484 61.6719C114.617 61.2891 113.875 60.7422 113.258 60.0312C112.648 59.3203 112.184 58.4609 111.863 57.4531C111.543 56.4453 111.383 55.3164 111.383 54.0664V52.8828C111.383 51.6328 111.547 50.5039 111.875 49.4961C112.211 48.4805 112.688 47.6172 113.305 46.9062C113.93 46.1953 114.676 45.6484 115.543 45.2656C116.41 44.8828 117.379 44.6914 118.449 44.6914C119.871 44.6914 121.07 44.9492 122.047 45.4648C123.031 45.9805 123.793 46.6914 124.332 47.5977C124.879 48.5039 125.207 49.5352 125.316 50.6914H121.801C121.762 50.0039 121.625 49.4219 121.391 48.9453C121.156 48.4609 120.801 48.0977 120.324 47.8555C119.855 47.6055 119.23 47.4805 118.449 47.4805C117.863 47.4805 117.352 47.5898 116.914 47.8086C116.477 48.0273 116.109 48.3594 115.812 48.8047C115.516 49.25 115.293 49.8125 115.145 50.4922C115.004 51.1641 114.934 51.9531 114.934 52.8594V54.0664C114.934 54.9492 115 55.7266 115.133 56.3984C115.266 57.0625 115.469 57.625 115.742 58.0859C116.023 58.5391 116.383 58.8828 116.82 59.1172C117.266 59.3438 117.801 59.457 118.426 59.457C119.16 59.457 119.766 59.3398 120.242 59.1055C120.719 58.8711 121.082 58.5234 121.332 58.0625C121.59 57.6016 121.742 57.0273 121.789 56.3398ZM126.852 55.7891V55.543C126.852 54.6133 126.984 53.7578 127.25 52.9766C127.516 52.1875 127.902 51.5039 128.41 50.9258C128.918 50.3477 129.543 49.8984 130.285 49.5781C131.027 49.25 131.879 49.0859 132.84 49.0859C133.801 49.0859 134.656 49.25 135.406 49.5781C136.156 49.8984 136.785 50.3477 137.293 50.9258C137.809 51.5039 138.199 52.1875 138.465 52.9766C138.73 53.7578 138.863 54.6133 138.863 55.543V55.7891C138.863 56.7109 138.73 57.5664 138.465 58.3555C138.199 59.1367 137.809 59.8203 137.293 60.4062C136.785 60.9844 136.16 61.4336 135.418 61.7539C134.676 62.0742 133.824 62.2344 132.863 62.2344C131.902 62.2344 131.047 62.0742 130.297 61.7539C129.555 61.4336 128.926 60.9844 128.41 60.4062C127.902 59.8203 127.516 59.1367 127.25 58.3555C126.984 57.5664 126.852 56.7109 126.852 55.7891ZM130.227 55.543V55.7891C130.227 56.3203 130.273 56.8164 130.367 57.2773C130.461 57.7383 130.609 58.1445 130.812 58.4961C131.023 58.8398 131.297 59.1094 131.633 59.3047C131.969 59.5 132.379 59.5977 132.863 59.5977C133.332 59.5977 133.734 59.5 134.07 59.3047C134.406 59.1094 134.676 58.8398 134.879 58.4961C135.082 58.1445 135.23 57.7383 135.324 57.2773C135.426 56.8164 135.477 56.3203 135.477 55.7891V55.543C135.477 55.0273 135.426 54.543 135.324 54.0898C135.23 53.6289 135.078 53.2227 134.867 52.8711C134.664 52.5117 134.395 52.2305 134.059 52.0273C133.723 51.8242 133.316 51.7227 132.84 51.7227C132.363 51.7227 131.957 51.8242 131.621 52.0273C131.293 52.2305 131.023 52.5117 130.812 52.8711C130.609 53.2227 130.461 53.6289 130.367 54.0898C130.273 54.543 130.227 55.0273 130.227 55.543ZM144.242 52.0273V62H140.867V49.3203H144.031L144.242 52.0273ZM143.75 55.2148H142.836C142.836 54.2773 142.957 53.4336 143.199 52.6836C143.441 51.9258 143.781 51.2812 144.219 50.75C144.656 50.2109 145.176 49.8008 145.777 49.5195C146.387 49.2305 147.066 49.0859 147.816 49.0859C148.41 49.0859 148.953 49.1719 149.445 49.3438C149.938 49.5156 150.359 49.7891 150.711 50.1641C151.07 50.5391 151.344 51.0352 151.531 51.6523C151.727 52.2695 151.824 53.0234 151.824 53.9141V62H148.426V53.9023C148.426 53.3398 148.348 52.9023 148.191 52.5898C148.035 52.2773 147.805 52.0586 147.5 51.9336C147.203 51.8008 146.836 51.7344 146.398 51.7344C145.945 51.7344 145.551 51.8242 145.215 52.0039C144.887 52.1836 144.613 52.4336 144.395 52.7539C144.184 53.0664 144.023 53.4336 143.914 53.8555C143.805 54.2773 143.75 54.7305 143.75 55.2148ZM161.246 58.4961C161.246 58.2539 161.176 58.0352 161.035 57.8398C160.895 57.6445 160.633 57.4648 160.25 57.3008C159.875 57.1289 159.332 56.9727 158.621 56.832C157.98 56.6914 157.383 56.5156 156.828 56.3047C156.281 56.0859 155.805 55.8242 155.398 55.5195C155 55.2148 154.688 54.8555 154.461 54.4414C154.234 54.0195 154.121 53.5391 154.121 53C154.121 52.4688 154.234 51.9688 154.461 51.5C154.695 51.0312 155.027 50.6172 155.457 50.2578C155.895 49.8906 156.426 49.6055 157.051 49.4023C157.684 49.1914 158.395 49.0859 159.184 49.0859C160.285 49.0859 161.23 49.2617 162.02 49.6133C162.816 49.9648 163.426 50.4492 163.848 51.0664C164.277 51.6758 164.492 52.3711 164.492 53.1523H161.117C161.117 52.8242 161.047 52.5312 160.906 52.2734C160.773 52.0078 160.562 51.8008 160.273 51.6523C159.992 51.4961 159.625 51.418 159.172 51.418C158.797 51.418 158.473 51.4844 158.199 51.6172C157.926 51.7422 157.715 51.9141 157.566 52.1328C157.426 52.3438 157.355 52.5781 157.355 52.8359C157.355 53.0312 157.395 53.207 157.473 53.3633C157.559 53.5117 157.695 53.6484 157.883 53.7734C158.07 53.8984 158.312 54.0156 158.609 54.125C158.914 54.2266 159.289 54.3203 159.734 54.4062C160.648 54.5938 161.465 54.8398 162.184 55.1445C162.902 55.4414 163.473 55.8477 163.895 56.3633C164.316 56.8711 164.527 57.5391 164.527 58.3672C164.527 58.9297 164.402 59.4453 164.152 59.9141C163.902 60.3828 163.543 60.793 163.074 61.1445C162.605 61.4883 162.043 61.7578 161.387 61.9531C160.738 62.1406 160.008 62.2344 159.195 62.2344C158.016 62.2344 157.016 62.0234 156.195 61.6016C155.383 61.1797 154.766 60.6445 154.344 59.9961C153.93 59.3398 153.723 58.668 153.723 57.9805H156.922C156.938 58.4414 157.055 58.8125 157.273 59.0938C157.5 59.375 157.785 59.5781 158.129 59.7031C158.48 59.8281 158.859 59.8906 159.266 59.8906C159.703 59.8906 160.066 59.832 160.355 59.7148C160.645 59.5898 160.863 59.4258 161.012 59.2227C161.168 59.0117 161.246 58.7695 161.246 58.4961ZM174.219 58.9648V49.3203H177.594V62H174.418L174.219 58.9648ZM174.594 56.3633L175.59 56.3398C175.59 57.1836 175.492 57.9688 175.297 58.6953C175.102 59.4141 174.809 60.0391 174.418 60.5703C174.027 61.0938 173.535 61.5039 172.941 61.8008C172.348 62.0898 171.648 62.2344 170.844 62.2344C170.227 62.2344 169.656 62.1484 169.133 61.9766C168.617 61.7969 168.172 61.5195 167.797 61.1445C167.43 60.7617 167.141 60.2734 166.93 59.6797C166.727 59.0781 166.625 58.3555 166.625 57.5117V49.3203H170V57.5352C170 57.9102 170.043 58.2266 170.129 58.4844C170.223 58.7422 170.352 58.9531 170.516 59.1172C170.68 59.2812 170.871 59.3984 171.09 59.4688C171.316 59.5391 171.566 59.5742 171.84 59.5742C172.535 59.5742 173.082 59.4336 173.48 59.1523C173.887 58.8711 174.172 58.4883 174.336 58.0039C174.508 57.5117 174.594 56.9648 174.594 56.3633ZM183.734 44V62H180.348V44H183.734ZM192.734 49.3203V51.7109H185.352V49.3203H192.734ZM187.18 46.1914H190.555V58.1797C190.555 58.5469 190.602 58.8281 190.695 59.0234C190.797 59.2188 190.945 59.3555 191.141 59.4336C191.336 59.5039 191.582 59.5391 191.879 59.5391C192.09 59.5391 192.277 59.5312 192.441 59.5156C192.613 59.4922 192.758 59.4688 192.875 59.4453L192.887 61.9297C192.598 62.0234 192.285 62.0977 191.949 62.1523C191.613 62.207 191.242 62.2344 190.836 62.2344C190.094 62.2344 189.445 62.1133 188.891 61.8711C188.344 61.6211 187.922 61.2227 187.625 60.6758C187.328 60.1289 187.18 59.4102 187.18 58.5195V46.1914ZM207.477 59.1406V53.4922C207.477 53.0859 207.41 52.7383 207.277 52.4492C207.145 52.1523 206.938 51.9219 206.656 51.7578C206.383 51.5938 206.027 51.5117 205.59 51.5117C205.215 51.5117 204.891 51.5781 204.617 51.7109C204.344 51.8359 204.133 52.0195 203.984 52.2617C203.836 52.4961 203.762 52.7734 203.762 53.0938H200.387C200.387 52.5547 200.512 52.043 200.762 51.5586C201.012 51.0742 201.375 50.6484 201.852 50.2812C202.328 49.9062 202.895 49.6133 203.551 49.4023C204.215 49.1914 204.957 49.0859 205.777 49.0859C206.762 49.0859 207.637 49.25 208.402 49.5781C209.168 49.9062 209.77 50.3984 210.207 51.0547C210.652 51.7109 210.875 52.5312 210.875 53.5156V58.9414C210.875 59.6367 210.918 60.207 211.004 60.6523C211.09 61.0898 211.215 61.4727 211.379 61.8008V62H207.969C207.805 61.6562 207.68 61.2266 207.594 60.7109C207.516 60.1875 207.477 59.6641 207.477 59.1406ZM207.922 54.2773L207.945 56.1875H206.059C205.613 56.1875 205.227 56.2383 204.898 56.3398C204.57 56.4414 204.301 56.5859 204.09 56.7734C203.879 56.9531 203.723 57.1641 203.621 57.4062C203.527 57.6484 203.48 57.9141 203.48 58.2031C203.48 58.4922 203.547 58.7539 203.68 58.9883C203.812 59.2148 204.004 59.3945 204.254 59.5273C204.504 59.6523 204.797 59.7148 205.133 59.7148C205.641 59.7148 206.082 59.6133 206.457 59.4102C206.832 59.207 207.121 58.957 207.324 58.6602C207.535 58.3633 207.645 58.082 207.652 57.8164L208.543 59.2461C208.418 59.5664 208.246 59.8984 208.027 60.2422C207.816 60.5859 207.547 60.9102 207.219 61.2148C206.891 61.5117 206.496 61.7578 206.035 61.9531C205.574 62.1406 205.027 62.2344 204.395 62.2344C203.59 62.2344 202.859 62.0742 202.203 61.7539C201.555 61.4258 201.039 60.9766 200.656 60.4062C200.281 59.8281 200.094 59.1719 200.094 58.4375C200.094 57.7734 200.219 57.1836 200.469 56.668C200.719 56.1523 201.086 55.7188 201.57 55.3672C202.062 55.0078 202.676 54.7383 203.41 54.5586C204.145 54.3711 204.996 54.2773 205.965 54.2773H207.922ZM224.902 62H221.188L221.211 59.2578H224.902C225.824 59.2578 226.602 59.0508 227.234 58.6367C227.867 58.2148 228.344 57.6016 228.664 56.7969C228.992 55.9922 229.156 55.0195 229.156 53.8789V53.0469C229.156 52.1719 229.062 51.4023 228.875 50.7383C228.695 50.0742 228.426 49.5156 228.066 49.0625C227.707 48.6094 227.266 48.2695 226.742 48.043C226.219 47.8086 225.617 47.6914 224.938 47.6914H221.117V44.9375H224.938C226.078 44.9375 227.121 45.1328 228.066 45.5234C229.02 45.9062 229.844 46.457 230.539 47.1758C231.234 47.8945 231.77 48.7539 232.145 49.7539C232.527 50.7461 232.719 51.8516 232.719 53.0703V53.8789C232.719 55.0898 232.527 56.1953 232.145 57.1953C231.77 58.1953 231.234 59.0547 230.539 59.7734C229.852 60.4844 229.027 61.0352 228.066 61.4258C227.113 61.8086 226.059 62 224.902 62ZM223.18 44.9375V62H219.664V44.9375H223.18ZM234.523 55.7891V55.543C234.523 54.6133 234.656 53.7578 234.922 52.9766C235.188 52.1875 235.574 51.5039 236.082 50.9258C236.59 50.3477 237.215 49.8984 237.957 49.5781C238.699 49.25 239.551 49.0859 240.512 49.0859C241.473 49.0859 242.328 49.25 243.078 49.5781C243.828 49.8984 244.457 50.3477 244.965 50.9258C245.48 51.5039 245.871 52.1875 246.137 52.9766C246.402 53.7578 246.535 54.6133 246.535 55.543V55.7891C246.535 56.7109 246.402 57.5664 246.137 58.3555C245.871 59.1367 245.48 59.8203 244.965 60.4062C244.457 60.9844 243.832 61.4336 243.09 61.7539C242.348 62.0742 241.496 62.2344 240.535 62.2344C239.574 62.2344 238.719 62.0742 237.969 61.7539C237.227 61.4336 236.598 60.9844 236.082 60.4062C235.574 59.8203 235.188 59.1367 234.922 58.3555C234.656 57.5664 234.523 56.7109 234.523 55.7891ZM237.898 55.543V55.7891C237.898 56.3203 237.945 56.8164 238.039 57.2773C238.133 57.7383 238.281 58.1445 238.484 58.4961C238.695 58.8398 238.969 59.1094 239.305 59.3047C239.641 59.5 240.051 59.5977 240.535 59.5977C241.004 59.5977 241.406 59.5 241.742 59.3047C242.078 59.1094 242.348 58.8398 242.551 58.4961C242.754 58.1445 242.902 57.7383 242.996 57.2773C243.098 56.8164 243.148 56.3203 243.148 55.7891V55.543C243.148 55.0273 243.098 54.543 242.996 54.0898C242.902 53.6289 242.75 53.2227 242.539 52.8711C242.336 52.5117 242.066 52.2305 241.73 52.0273C241.395 51.8242 240.988 51.7227 240.512 51.7227C240.035 51.7227 239.629 51.8242 239.293 52.0273C238.965 52.2305 238.695 52.5117 238.484 52.8711C238.281 53.2227 238.133 53.6289 238.039 54.0898C237.945 54.543 237.898 55.0273 237.898 55.543ZM253.848 59.5977C254.262 59.5977 254.629 59.5195 254.949 59.3633C255.27 59.1992 255.52 58.9727 255.699 58.6836C255.887 58.3867 255.984 58.0391 255.992 57.6406H259.168C259.16 58.5312 258.922 59.3242 258.453 60.0195C257.984 60.707 257.355 61.25 256.566 61.6484C255.777 62.0391 254.895 62.2344 253.918 62.2344C252.934 62.2344 252.074 62.0703 251.34 61.7422C250.613 61.4141 250.008 60.9609 249.523 60.3828C249.039 59.7969 248.676 59.1172 248.434 58.3438C248.191 57.5625 248.07 56.7266 248.07 55.8359V55.4961C248.07 54.5977 248.191 53.7617 248.434 52.9883C248.676 52.207 249.039 51.5273 249.523 50.9492C250.008 50.3633 250.613 49.9062 251.34 49.5781C252.066 49.25 252.918 49.0859 253.895 49.0859C254.934 49.0859 255.844 49.2852 256.625 49.6836C257.414 50.082 258.031 50.6523 258.477 51.3945C258.93 52.1289 259.16 53 259.168 54.0078H255.992C255.984 53.5859 255.895 53.2031 255.723 52.8594C255.559 52.5156 255.316 52.2422 254.996 52.0391C254.684 51.8281 254.297 51.7227 253.836 51.7227C253.344 51.7227 252.941 51.8281 252.629 52.0391C252.316 52.2422 252.074 52.5234 251.902 52.8828C251.73 53.2344 251.609 53.6367 251.539 54.0898C251.477 54.5352 251.445 55.0039 251.445 55.4961V55.8359C251.445 56.3281 251.477 56.8008 251.539 57.2539C251.602 57.707 251.719 58.1094 251.891 58.4609C252.07 58.8125 252.316 59.0898 252.629 59.293C252.941 59.4961 253.348 59.5977 253.848 59.5977ZM267.336 49.3203V51.7109H259.953V49.3203H267.336ZM261.781 46.1914H265.156V58.1797C265.156 58.5469 265.203 58.8281 265.297 59.0234C265.398 59.2188 265.547 59.3555 265.742 59.4336C265.938 59.5039 266.184 59.5391 266.48 59.5391C266.691 59.5391 266.879 59.5312 267.043 59.5156C267.215 59.4922 267.359 59.4688 267.477 59.4453L267.488 61.9297C267.199 62.0234 266.887 62.0977 266.551 62.1523C266.215 62.207 265.844 62.2344 265.438 62.2344C264.695 62.2344 264.047 62.1133 263.492 61.8711C262.945 61.6211 262.523 61.2227 262.227 60.6758C261.93 60.1289 261.781 59.4102 261.781 58.5195V46.1914ZM268.414 55.7891V55.543C268.414 54.6133 268.547 53.7578 268.812 52.9766C269.078 52.1875 269.465 51.5039 269.973 50.9258C270.48 50.3477 271.105 49.8984 271.848 49.5781C272.59 49.25 273.441 49.0859 274.402 49.0859C275.363 49.0859 276.219 49.25 276.969 49.5781C277.719 49.8984 278.348 50.3477 278.855 50.9258C279.371 51.5039 279.762 52.1875 280.027 52.9766C280.293 53.7578 280.426 54.6133 280.426 55.543V55.7891C280.426 56.7109 280.293 57.5664 280.027 58.3555C279.762 59.1367 279.371 59.8203 278.855 60.4062C278.348 60.9844 277.723 61.4336 276.98 61.7539C276.238 62.0742 275.387 62.2344 274.426 62.2344C273.465 62.2344 272.609 62.0742 271.859 61.7539C271.117 61.4336 270.488 60.9844 269.973 60.4062C269.465 59.8203 269.078 59.1367 268.812 58.3555C268.547 57.5664 268.414 56.7109 268.414 55.7891ZM271.789 55.543V55.7891C271.789 56.3203 271.836 56.8164 271.93 57.2773C272.023 57.7383 272.172 58.1445 272.375 58.4961C272.586 58.8398 272.859 59.1094 273.195 59.3047C273.531 59.5 273.941 59.5977 274.426 59.5977C274.895 59.5977 275.297 59.5 275.633 59.3047C275.969 59.1094 276.238 58.8398 276.441 58.4961C276.645 58.1445 276.793 57.7383 276.887 57.2773C276.988 56.8164 277.039 56.3203 277.039 55.7891V55.543C277.039 55.0273 276.988 54.543 276.887 54.0898C276.793 53.6289 276.641 53.2227 276.43 52.8711C276.227 52.5117 275.957 52.2305 275.621 52.0273C275.285 51.8242 274.879 51.7227 274.402 51.7227C273.926 51.7227 273.52 51.8242 273.184 52.0273C272.855 52.2305 272.586 52.5117 272.375 52.8711C272.172 53.2227 272.023 53.6289 271.93 54.0898C271.836 54.543 271.789 55.0273 271.789 55.543ZM285.875 52.0859V62H282.5V49.3203H285.676L285.875 52.0859ZM289.695 49.2383L289.637 52.3672C289.473 52.3438 289.273 52.3242 289.039 52.3086C288.812 52.2852 288.605 52.2734 288.418 52.2734C287.941 52.2734 287.527 52.3359 287.176 52.4609C286.832 52.5781 286.543 52.7539 286.309 52.9883C286.082 53.2227 285.91 53.5078 285.793 53.8438C285.684 54.1797 285.621 54.5625 285.605 54.9922L284.926 54.7812C284.926 53.9609 285.008 53.207 285.172 52.5195C285.336 51.8242 285.574 51.2188 285.887 50.7031C286.207 50.1875 286.598 49.7891 287.059 49.5078C287.52 49.2266 288.047 49.0859 288.641 49.0859C288.828 49.0859 289.02 49.1016 289.215 49.1328C289.41 49.1562 289.57 49.1914 289.695 49.2383Z" fill="#888888"/>
<path d="M115.994 98.708V104.641H99.5806V98.708H115.994ZM102.151 86.0078V118H94.439V86.0078H102.151ZM121.18 86.0078V118H113.489V86.0078H121.18ZM124.805 106.354V105.893C124.805 104.15 125.054 102.546 125.552 101.081C126.05 99.6016 126.783 98.3198 127.75 97.2358C128.716 96.1519 129.91 95.3096 131.331 94.709C132.752 94.0938 134.393 93.7861 136.253 93.7861C138.128 93.7861 139.776 94.0938 141.197 94.709C142.632 95.3096 143.833 96.1519 144.8 97.2358C145.767 98.3198 146.5 99.6016 146.998 101.081C147.496 102.546 147.745 104.15 147.745 105.893V106.354C147.745 108.083 147.496 109.687 146.998 111.167C146.5 112.631 145.767 113.913 144.8 115.012C143.833 116.096 142.64 116.938 141.219 117.539C139.798 118.139 138.157 118.439 136.297 118.439C134.437 118.439 132.789 118.139 131.353 117.539C129.917 116.938 128.716 116.096 127.75 115.012C126.783 113.913 126.05 112.631 125.552 111.167C125.054 109.687 124.805 108.083 124.805 106.354ZM132.21 105.893V106.354C132.21 107.248 132.276 108.083 132.408 108.859C132.54 109.636 132.759 110.317 133.067 110.903C133.375 111.474 133.792 111.921 134.319 112.243C134.847 112.565 135.506 112.727 136.297 112.727C137.073 112.727 137.718 112.565 138.23 112.243C138.758 111.921 139.175 111.474 139.483 110.903C139.791 110.317 140.01 109.636 140.142 108.859C140.274 108.083 140.34 107.248 140.34 106.354V105.893C140.34 105.029 140.274 104.216 140.142 103.454C140.01 102.678 139.791 101.997 139.483 101.411C139.175 100.81 138.758 100.341 138.23 100.004C137.703 99.6675 137.044 99.499 136.253 99.499C135.477 99.499 134.825 99.6675 134.297 100.004C133.785 100.341 133.375 100.81 133.067 101.411C132.759 101.997 132.54 102.678 132.408 103.454C132.276 104.216 132.21 105.029 132.21 105.893ZM158.27 110.925L162.664 94.2256H167.3L165.652 102.597L161.302 118H157.588L158.27 110.925ZM156.534 94.2256L159.258 110.793L159.566 118H155.062L149.437 94.2256H156.534ZM171.211 110.441L173.958 94.2256H181.055L175.474 118H170.97L171.211 110.441ZM167.828 94.2256L172.266 110.881L172.947 118H169.19L164.927 102.641L163.345 94.2256H167.828ZM209.466 86.0078V118H201.753V86.0078H209.466ZM219.09 86.0078V91.9624H192.349V86.0078H219.09ZM216.475 106.354V105.893C216.475 104.15 216.724 102.546 217.222 101.081C217.72 99.6016 218.453 98.3198 219.419 97.2358C220.386 96.1519 221.58 95.3096 223.001 94.709C224.422 94.0938 226.062 93.7861 227.923 93.7861C229.798 93.7861 231.446 94.0938 232.867 94.709C234.302 95.3096 235.503 96.1519 236.47 97.2358C237.437 98.3198 238.169 99.6016 238.667 101.081C239.166 102.546 239.415 104.15 239.415 105.893V106.354C239.415 108.083 239.166 109.687 238.667 111.167C238.169 112.631 237.437 113.913 236.47 115.012C235.503 116.096 234.31 116.938 232.889 117.539C231.468 118.139 229.827 118.439 227.967 118.439C226.106 118.439 224.458 118.139 223.023 117.539C221.587 116.938 220.386 116.096 219.419 115.012C218.453 113.913 217.72 112.631 217.222 111.167C216.724 109.687 216.475 108.083 216.475 106.354ZM223.88 105.893V106.354C223.88 107.248 223.946 108.083 224.078 108.859C224.209 109.636 224.429 110.317 224.737 110.903C225.044 111.474 225.462 111.921 225.989 112.243C226.517 112.565 227.176 112.727 227.967 112.727C228.743 112.727 229.388 112.565 229.9 112.243C230.428 111.921 230.845 111.474 231.153 110.903C231.46 110.317 231.68 109.636 231.812 108.859C231.944 108.083 232.01 107.248 232.01 106.354V105.893C232.01 105.029 231.944 104.216 231.812 103.454C231.68 102.678 231.46 101.997 231.153 101.411C230.845 100.81 230.428 100.341 229.9 100.004C229.373 99.6675 228.714 99.499 227.923 99.499C227.146 99.499 226.495 99.6675 225.967 100.004C225.455 100.341 225.044 100.81 224.737 101.411C224.429 101.997 224.209 102.678 224.078 103.454C223.946 104.216 223.88 105.029 223.88 105.893ZM254.268 86.0078H266.858C269.319 86.0078 271.458 86.374 273.274 87.1064C275.091 87.8389 276.49 88.9229 277.471 90.3584C278.467 91.7939 278.965 93.5664 278.965 95.6758C278.965 97.5068 278.68 99.0376 278.108 100.268C277.537 101.499 276.739 102.517 275.713 103.322C274.703 104.113 273.523 104.765 272.176 105.278L269.649 106.706H259.08L259.036 100.751H266.858C267.84 100.751 268.653 100.576 269.297 100.224C269.942 99.8726 270.425 99.3745 270.748 98.73C271.084 98.0708 271.253 97.2871 271.253 96.3789C271.253 95.4561 271.084 94.665 270.748 94.0059C270.411 93.3467 269.913 92.8413 269.253 92.4897C268.609 92.1382 267.811 91.9624 266.858 91.9624H261.98V118H254.268V86.0078ZM271.78 118L264.705 103.85L272.879 103.806L280.042 117.67V118H271.78ZM297.159 112.221V94.2256H304.585V118H297.642L297.159 112.221ZM297.862 107.387L299.795 107.343C299.795 108.94 299.605 110.419 299.224 111.782C298.843 113.129 298.279 114.301 297.532 115.297C296.8 116.293 295.892 117.07 294.808 117.626C293.738 118.168 292.5 118.439 291.094 118.439C289.922 118.439 288.846 118.278 287.864 117.956C286.897 117.619 286.062 117.099 285.359 116.396C284.656 115.678 284.107 114.763 283.711 113.649C283.331 112.521 283.14 111.174 283.14 109.606V94.2256H290.545V109.65C290.545 110.178 290.611 110.632 290.743 111.013C290.875 111.394 291.065 111.716 291.314 111.979C291.563 112.229 291.871 112.419 292.237 112.551C292.618 112.668 293.05 112.727 293.533 112.727C294.646 112.727 295.518 112.492 296.148 112.023C296.778 111.555 297.217 110.917 297.466 110.112C297.73 109.306 297.862 108.398 297.862 107.387ZM315.945 99.3013V118H308.541V94.2256H315.484L315.945 99.3013ZM315.066 105.3L313.331 105.344C313.331 103.527 313.55 101.909 313.99 100.488C314.429 99.0522 315.052 97.8364 315.857 96.8403C316.663 95.8442 317.623 95.0898 318.736 94.5771C319.864 94.0498 321.116 93.7861 322.493 93.7861C323.592 93.7861 324.595 93.9473 325.503 94.2695C326.426 94.5918 327.217 95.1118 327.876 95.8296C328.55 96.5474 329.063 97.4995 329.415 98.686C329.781 99.8579 329.964 101.308 329.964 103.037V118H322.515V103.015C322.515 102.062 322.383 101.337 322.12 100.839C321.856 100.327 321.475 99.9751 320.977 99.7847C320.479 99.5942 319.871 99.499 319.153 99.499C318.392 99.499 317.747 99.6455 317.22 99.9385C316.692 100.231 316.268 100.642 315.945 101.169C315.638 101.682 315.411 102.29 315.264 102.993C315.132 103.696 315.066 104.465 315.066 105.3ZM345.85 107.871H339.544C339.544 106.582 339.632 105.446 339.808 104.465C339.998 103.469 340.32 102.575 340.774 101.784C341.229 100.993 341.844 100.261 342.62 99.5869C343.309 99.0156 343.902 98.4663 344.4 97.939C344.898 97.4116 345.279 96.877 345.542 96.335C345.806 95.793 345.938 95.2144 345.938 94.5991C345.938 93.8374 345.828 93.2148 345.608 92.7314C345.403 92.248 345.088 91.8892 344.664 91.6548C344.253 91.4058 343.733 91.2812 343.104 91.2812C342.591 91.2812 342.107 91.4058 341.653 91.6548C341.214 91.9038 340.855 92.292 340.577 92.8193C340.298 93.332 340.145 94.0132 340.115 94.8628H332.667C332.71 92.6802 333.194 90.9077 334.117 89.5454C335.054 88.1685 336.299 87.165 337.852 86.5352C339.419 85.8906 341.17 85.5684 343.104 85.5684C345.242 85.5684 347.081 85.8979 348.619 86.5571C350.157 87.2163 351.336 88.1978 352.156 89.5015C352.977 90.7905 353.387 92.3799 353.387 94.2695C353.387 95.5293 353.145 96.6279 352.662 97.5654C352.193 98.4883 351.556 99.3525 350.75 100.158C349.959 100.949 349.073 101.799 348.091 102.707C347.242 103.454 346.663 104.216 346.355 104.992C346.048 105.754 345.879 106.713 345.85 107.871ZM338.643 114.55C338.643 113.496 339.024 112.617 339.786 111.914C340.547 111.196 341.536 110.837 342.752 110.837C343.968 110.837 344.957 111.196 345.718 111.914C346.48 112.617 346.861 113.496 346.861 114.55C346.861 115.605 346.48 116.491 345.718 117.209C344.957 117.912 343.968 118.264 342.752 118.264C341.536 118.264 340.547 117.912 339.786 117.209C339.024 116.491 338.643 115.605 338.643 114.55Z" fill="#424241"/>
<path d="M1363 15C1363 6.71573 1356.28 0 1348 0H1134V167H1348C1356.28 167 1363 160.284 1363 152V15Z" fill="#022E7A"/>
<path d="M1260.77 81.3079C1263.96 81.3079 1267.09 82.2553 1269.74 84.0303C1272.4 85.8053 1274.47 88.3282 1275.69 91.2799C1276.92 94.2316 1277.24 97.4796 1276.61 100.613C1275.99 103.747 1274.45 106.625 1272.19 108.884C1269.93 111.143 1267.05 112.682 1263.92 113.305C1260.79 113.928 1257.54 113.608 1254.59 112.386C1251.64 111.163 1249.11 109.093 1247.34 106.436C1245.56 103.78 1244.62 100.657 1244.62 97.4617C1244.62 93.1774 1246.32 89.0686 1249.35 86.0392C1252.38 83.0098 1256.48 81.3079 1260.77 81.3079ZM1260.77 75.9233C1256.51 75.9233 1252.35 77.1865 1248.8 79.5532C1245.26 81.9198 1242.5 85.2837 1240.87 89.2193C1239.24 93.1549 1238.81 97.4856 1239.64 101.664C1240.48 105.842 1242.53 109.679 1245.54 112.692C1248.55 115.704 1252.39 117.755 1256.57 118.586C1260.75 119.417 1265.08 118.991 1269.01 117.361C1272.95 115.73 1276.31 112.97 1278.68 109.428C1281.04 105.886 1282.31 101.722 1282.31 97.4617C1282.31 91.7493 1280.04 86.271 1276 82.2317C1271.96 78.1925 1266.48 75.9233 1260.77 75.9233Z" fill="white"/>
<path d="M1274.23 49H1220.38C1218.96 49 1217.59 49.5673 1216.58 50.5771C1215.57 51.5869 1215 52.9565 1215 54.3846V108.231C1215 109.659 1215.57 111.028 1216.58 112.038C1217.59 113.048 1218.96 113.615 1220.38 113.615H1231.15V108.231H1220.38V70.5384H1279.62V54.3846C1279.62 52.9565 1279.05 51.5869 1278.04 50.5771C1277.03 49.5673 1275.66 49 1274.23 49ZM1220.38 65.1538V54.3846H1274.23V65.1538H1220.38Z" fill="white"/>
<path d="M1255.38 89.3849V105.539L1268.85 97.4618L1255.38 89.3849Z" fill="white"/>
</svg>
