<svg width="1363" height="167" viewBox="0 0 1363 167" fill="none" xmlns="http://www.w3.org/2000/svg">
<rect width="1363" height="167" rx="15" fill="#F0F0F0"/>
<path d="M0 15C0 6.71573 6.71573 0 15 0H37V167H15C6.71573 167 0 160.284 0 152V15Z" fill="#424241"/>
<path d="M100.906 50.9219L93.3945 48.2383V45.0859L103.602 49.375V51.6367L100.906 50.9219ZM93.3945 53.1719L100.918 50.4297L103.602 49.7852V52.0352L93.3945 56.3242V53.1719ZM121.789 52.3398H125.293C125.223 53.4883 124.906 54.5078 124.344 55.3984C123.789 56.2891 123.012 56.9844 122.012 57.4844C121.02 57.9844 119.824 58.2344 118.426 58.2344C117.332 58.2344 116.352 58.0469 115.484 57.6719C114.617 57.2891 113.875 56.7422 113.258 56.0312C112.648 55.3203 112.184 54.4609 111.863 53.4531C111.543 52.4453 111.383 51.3164 111.383 50.0664V48.8828C111.383 47.6328 111.547 46.5039 111.875 45.4961C112.211 44.4805 112.688 43.6172 113.305 42.9062C113.93 42.1953 114.676 41.6484 115.543 41.2656C116.41 40.8828 117.379 40.6914 118.449 40.6914C119.871 40.6914 121.07 40.9492 122.047 41.4648C123.031 41.9805 123.793 42.6914 124.332 43.5977C124.879 44.5039 125.207 45.5352 125.316 46.6914H121.801C121.762 46.0039 121.625 45.4219 121.391 44.9453C121.156 44.4609 120.801 44.0977 120.324 43.8555C119.855 43.6055 119.23 43.4805 118.449 43.4805C117.863 43.4805 117.352 43.5898 116.914 43.8086C116.477 44.0273 116.109 44.3594 115.812 44.8047C115.516 45.25 115.293 45.8125 115.145 46.4922C115.004 47.1641 114.934 47.9531 114.934 48.8594V50.0664C114.934 50.9492 115 51.7266 115.133 52.3984C115.266 53.0625 115.469 53.625 115.742 54.0859C116.023 54.5391 116.383 54.8828 116.82 55.1172C117.266 55.3438 117.801 55.457 118.426 55.457C119.16 55.457 119.766 55.3398 120.242 55.1055C120.719 54.8711 121.082 54.5234 121.332 54.0625C121.59 53.6016 121.742 53.0273 121.789 52.3398ZM126.852 51.7891V51.543C126.852 50.6133 126.984 49.7578 127.25 48.9766C127.516 48.1875 127.902 47.5039 128.41 46.9258C128.918 46.3477 129.543 45.8984 130.285 45.5781C131.027 45.25 131.879 45.0859 132.84 45.0859C133.801 45.0859 134.656 45.25 135.406 45.5781C136.156 45.8984 136.785 46.3477 137.293 46.9258C137.809 47.5039 138.199 48.1875 138.465 48.9766C138.73 49.7578 138.863 50.6133 138.863 51.543V51.7891C138.863 52.7109 138.73 53.5664 138.465 54.3555C138.199 55.1367 137.809 55.8203 137.293 56.4062C136.785 56.9844 136.16 57.4336 135.418 57.7539C134.676 58.0742 133.824 58.2344 132.863 58.2344C131.902 58.2344 131.047 58.0742 130.297 57.7539C129.555 57.4336 128.926 56.9844 128.41 56.4062C127.902 55.8203 127.516 55.1367 127.25 54.3555C126.984 53.5664 126.852 52.7109 126.852 51.7891ZM130.227 51.543V51.7891C130.227 52.3203 130.273 52.8164 130.367 53.2773C130.461 53.7383 130.609 54.1445 130.812 54.4961C131.023 54.8398 131.297 55.1094 131.633 55.3047C131.969 55.5 132.379 55.5977 132.863 55.5977C133.332 55.5977 133.734 55.5 134.07 55.3047C134.406 55.1094 134.676 54.8398 134.879 54.4961C135.082 54.1445 135.23 53.7383 135.324 53.2773C135.426 52.8164 135.477 52.3203 135.477 51.7891V51.543C135.477 51.0273 135.426 50.543 135.324 50.0898C135.23 49.6289 135.078 49.2227 134.867 48.8711C134.664 48.5117 134.395 48.2305 134.059 48.0273C133.723 47.8242 133.316 47.7227 132.84 47.7227C132.363 47.7227 131.957 47.8242 131.621 48.0273C131.293 48.2305 131.023 48.5117 130.812 48.8711C130.609 49.2227 130.461 49.6289 130.367 50.0898C130.273 50.543 130.227 51.0273 130.227 51.543ZM144.242 48.0273V58H140.867V45.3203H144.031L144.242 48.0273ZM143.75 51.2148H142.836C142.836 50.2773 142.957 49.4336 143.199 48.6836C143.441 47.9258 143.781 47.2812 144.219 46.75C144.656 46.2109 145.176 45.8008 145.777 45.5195C146.387 45.2305 147.066 45.0859 147.816 45.0859C148.41 45.0859 148.953 45.1719 149.445 45.3438C149.938 45.5156 150.359 45.7891 150.711 46.1641C151.07 46.5391 151.344 47.0352 151.531 47.6523C151.727 48.2695 151.824 49.0234 151.824 49.9141V58H148.426V49.9023C148.426 49.3398 148.348 48.9023 148.191 48.5898C148.035 48.2773 147.805 48.0586 147.5 47.9336C147.203 47.8008 146.836 47.7344 146.398 47.7344C145.945 47.7344 145.551 47.8242 145.215 48.0039C144.887 48.1836 144.613 48.4336 144.395 48.7539C144.184 49.0664 144.023 49.4336 143.914 49.8555C143.805 50.2773 143.75 50.7305 143.75 51.2148ZM161.246 54.4961C161.246 54.2539 161.176 54.0352 161.035 53.8398C160.895 53.6445 160.633 53.4648 160.25 53.3008C159.875 53.1289 159.332 52.9727 158.621 52.832C157.98 52.6914 157.383 52.5156 156.828 52.3047C156.281 52.0859 155.805 51.8242 155.398 51.5195C155 51.2148 154.688 50.8555 154.461 50.4414C154.234 50.0195 154.121 49.5391 154.121 49C154.121 48.4688 154.234 47.9688 154.461 47.5C154.695 47.0312 155.027 46.6172 155.457 46.2578C155.895 45.8906 156.426 45.6055 157.051 45.4023C157.684 45.1914 158.395 45.0859 159.184 45.0859C160.285 45.0859 161.23 45.2617 162.02 45.6133C162.816 45.9648 163.426 46.4492 163.848 47.0664C164.277 47.6758 164.492 48.3711 164.492 49.1523H161.117C161.117 48.8242 161.047 48.5312 160.906 48.2734C160.773 48.0078 160.562 47.8008 160.273 47.6523C159.992 47.4961 159.625 47.418 159.172 47.418C158.797 47.418 158.473 47.4844 158.199 47.6172C157.926 47.7422 157.715 47.9141 157.566 48.1328C157.426 48.3438 157.355 48.5781 157.355 48.8359C157.355 49.0312 157.395 49.207 157.473 49.3633C157.559 49.5117 157.695 49.6484 157.883 49.7734C158.07 49.8984 158.312 50.0156 158.609 50.125C158.914 50.2266 159.289 50.3203 159.734 50.4062C160.648 50.5938 161.465 50.8398 162.184 51.1445C162.902 51.4414 163.473 51.8477 163.895 52.3633C164.316 52.8711 164.527 53.5391 164.527 54.3672C164.527 54.9297 164.402 55.4453 164.152 55.9141C163.902 56.3828 163.543 56.793 163.074 57.1445C162.605 57.4883 162.043 57.7578 161.387 57.9531C160.738 58.1406 160.008 58.2344 159.195 58.2344C158.016 58.2344 157.016 58.0234 156.195 57.6016C155.383 57.1797 154.766 56.6445 154.344 55.9961C153.93 55.3398 153.723 54.668 153.723 53.9805H156.922C156.938 54.4414 157.055 54.8125 157.273 55.0938C157.5 55.375 157.785 55.5781 158.129 55.7031C158.48 55.8281 158.859 55.8906 159.266 55.8906C159.703 55.8906 160.066 55.832 160.355 55.7148C160.645 55.5898 160.863 55.4258 161.012 55.2227C161.168 55.0117 161.246 54.7695 161.246 54.4961ZM174.219 54.9648V45.3203H177.594V58H174.418L174.219 54.9648ZM174.594 52.3633L175.59 52.3398C175.59 53.1836 175.492 53.9688 175.297 54.6953C175.102 55.4141 174.809 56.0391 174.418 56.5703C174.027 57.0938 173.535 57.5039 172.941 57.8008C172.348 58.0898 171.648 58.2344 170.844 58.2344C170.227 58.2344 169.656 58.1484 169.133 57.9766C168.617 57.7969 168.172 57.5195 167.797 57.1445C167.43 56.7617 167.141 56.2734 166.93 55.6797C166.727 55.0781 166.625 54.3555 166.625 53.5117V45.3203H170V53.5352C170 53.9102 170.043 54.2266 170.129 54.4844C170.223 54.7422 170.352 54.9531 170.516 55.1172C170.68 55.2812 170.871 55.3984 171.09 55.4688C171.316 55.5391 171.566 55.5742 171.84 55.5742C172.535 55.5742 173.082 55.4336 173.48 55.1523C173.887 54.8711 174.172 54.4883 174.336 54.0039C174.508 53.5117 174.594 52.9648 174.594 52.3633ZM183.734 40V58H180.348V40H183.734ZM192.734 45.3203V47.7109H185.352V45.3203H192.734ZM187.18 42.1914H190.555V54.1797C190.555 54.5469 190.602 54.8281 190.695 55.0234C190.797 55.2188 190.945 55.3555 191.141 55.4336C191.336 55.5039 191.582 55.5391 191.879 55.5391C192.09 55.5391 192.277 55.5312 192.441 55.5156C192.613 55.4922 192.758 55.4688 192.875 55.4453L192.887 57.9297C192.598 58.0234 192.285 58.0977 191.949 58.1523C191.613 58.207 191.242 58.2344 190.836 58.2344C190.094 58.2344 189.445 58.1133 188.891 57.8711C188.344 57.6211 187.922 57.2227 187.625 56.6758C187.328 56.1289 187.18 55.4102 187.18 54.5195V42.1914ZM207.477 55.1406V49.4922C207.477 49.0859 207.41 48.7383 207.277 48.4492C207.145 48.1523 206.938 47.9219 206.656 47.7578C206.383 47.5938 206.027 47.5117 205.59 47.5117C205.215 47.5117 204.891 47.5781 204.617 47.7109C204.344 47.8359 204.133 48.0195 203.984 48.2617C203.836 48.4961 203.762 48.7734 203.762 49.0938H200.387C200.387 48.5547 200.512 48.043 200.762 47.5586C201.012 47.0742 201.375 46.6484 201.852 46.2812C202.328 45.9062 202.895 45.6133 203.551 45.4023C204.215 45.1914 204.957 45.0859 205.777 45.0859C206.762 45.0859 207.637 45.25 208.402 45.5781C209.168 45.9062 209.77 46.3984 210.207 47.0547C210.652 47.7109 210.875 48.5312 210.875 49.5156V54.9414C210.875 55.6367 210.918 56.207 211.004 56.6523C211.09 57.0898 211.215 57.4727 211.379 57.8008V58H207.969C207.805 57.6562 207.68 57.2266 207.594 56.7109C207.516 56.1875 207.477 55.6641 207.477 55.1406ZM207.922 50.2773L207.945 52.1875H206.059C205.613 52.1875 205.227 52.2383 204.898 52.3398C204.57 52.4414 204.301 52.5859 204.09 52.7734C203.879 52.9531 203.723 53.1641 203.621 53.4062C203.527 53.6484 203.48 53.9141 203.48 54.2031C203.48 54.4922 203.547 54.7539 203.68 54.9883C203.812 55.2148 204.004 55.3945 204.254 55.5273C204.504 55.6523 204.797 55.7148 205.133 55.7148C205.641 55.7148 206.082 55.6133 206.457 55.4102C206.832 55.207 207.121 54.957 207.324 54.6602C207.535 54.3633 207.645 54.082 207.652 53.8164L208.543 55.2461C208.418 55.5664 208.246 55.8984 208.027 56.2422C207.816 56.5859 207.547 56.9102 207.219 57.2148C206.891 57.5117 206.496 57.7578 206.035 57.9531C205.574 58.1406 205.027 58.2344 204.395 58.2344C203.59 58.2344 202.859 58.0742 202.203 57.7539C201.555 57.4258 201.039 56.9766 200.656 56.4062C200.281 55.8281 200.094 55.1719 200.094 54.4375C200.094 53.7734 200.219 53.1836 200.469 52.668C200.719 52.1523 201.086 51.7188 201.57 51.3672C202.062 51.0078 202.676 50.7383 203.41 50.5586C204.145 50.3711 204.996 50.2773 205.965 50.2773H207.922ZM224.902 58H221.188L221.211 55.2578H224.902C225.824 55.2578 226.602 55.0508 227.234 54.6367C227.867 54.2148 228.344 53.6016 228.664 52.7969C228.992 51.9922 229.156 51.0195 229.156 49.8789V49.0469C229.156 48.1719 229.062 47.4023 228.875 46.7383C228.695 46.0742 228.426 45.5156 228.066 45.0625C227.707 44.6094 227.266 44.2695 226.742 44.043C226.219 43.8086 225.617 43.6914 224.938 43.6914H221.117V40.9375H224.938C226.078 40.9375 227.121 41.1328 228.066 41.5234C229.02 41.9062 229.844 42.457 230.539 43.1758C231.234 43.8945 231.77 44.7539 232.145 45.7539C232.527 46.7461 232.719 47.8516 232.719 49.0703V49.8789C232.719 51.0898 232.527 52.1953 232.145 53.1953C231.77 54.1953 231.234 55.0547 230.539 55.7734C229.852 56.4844 229.027 57.0352 228.066 57.4258C227.113 57.8086 226.059 58 224.902 58ZM223.18 40.9375V58H219.664V40.9375H223.18ZM234.523 51.7891V51.543C234.523 50.6133 234.656 49.7578 234.922 48.9766C235.188 48.1875 235.574 47.5039 236.082 46.9258C236.59 46.3477 237.215 45.8984 237.957 45.5781C238.699 45.25 239.551 45.0859 240.512 45.0859C241.473 45.0859 242.328 45.25 243.078 45.5781C243.828 45.8984 244.457 46.3477 244.965 46.9258C245.48 47.5039 245.871 48.1875 246.137 48.9766C246.402 49.7578 246.535 50.6133 246.535 51.543V51.7891C246.535 52.7109 246.402 53.5664 246.137 54.3555C245.871 55.1367 245.48 55.8203 244.965 56.4062C244.457 56.9844 243.832 57.4336 243.09 57.7539C242.348 58.0742 241.496 58.2344 240.535 58.2344C239.574 58.2344 238.719 58.0742 237.969 57.7539C237.227 57.4336 236.598 56.9844 236.082 56.4062C235.574 55.8203 235.188 55.1367 234.922 54.3555C234.656 53.5664 234.523 52.7109 234.523 51.7891ZM237.898 51.543V51.7891C237.898 52.3203 237.945 52.8164 238.039 53.2773C238.133 53.7383 238.281 54.1445 238.484 54.4961C238.695 54.8398 238.969 55.1094 239.305 55.3047C239.641 55.5 240.051 55.5977 240.535 55.5977C241.004 55.5977 241.406 55.5 241.742 55.3047C242.078 55.1094 242.348 54.8398 242.551 54.4961C242.754 54.1445 242.902 53.7383 242.996 53.2773C243.098 52.8164 243.148 52.3203 243.148 51.7891V51.543C243.148 51.0273 243.098 50.543 242.996 50.0898C242.902 49.6289 242.75 49.2227 242.539 48.8711C242.336 48.5117 242.066 48.2305 241.73 48.0273C241.395 47.8242 240.988 47.7227 240.512 47.7227C240.035 47.7227 239.629 47.8242 239.293 48.0273C238.965 48.2305 238.695 48.5117 238.484 48.8711C238.281 49.2227 238.133 49.6289 238.039 50.0898C237.945 50.543 237.898 51.0273 237.898 51.543ZM253.848 55.5977C254.262 55.5977 254.629 55.5195 254.949 55.3633C255.27 55.1992 255.52 54.9727 255.699 54.6836C255.887 54.3867 255.984 54.0391 255.992 53.6406H259.168C259.16 54.5312 258.922 55.3242 258.453 56.0195C257.984 56.707 257.355 57.25 256.566 57.6484C255.777 58.0391 254.895 58.2344 253.918 58.2344C252.934 58.2344 252.074 58.0703 251.34 57.7422C250.613 57.4141 250.008 56.9609 249.523 56.3828C249.039 55.7969 248.676 55.1172 248.434 54.3438C248.191 53.5625 248.07 52.7266 248.07 51.8359V51.4961C248.07 50.5977 248.191 49.7617 248.434 48.9883C248.676 48.207 249.039 47.5273 249.523 46.9492C250.008 46.3633 250.613 45.9062 251.34 45.5781C252.066 45.25 252.918 45.0859 253.895 45.0859C254.934 45.0859 255.844 45.2852 256.625 45.6836C257.414 46.082 258.031 46.6523 258.477 47.3945C258.93 48.1289 259.16 49 259.168 50.0078H255.992C255.984 49.5859 255.895 49.2031 255.723 48.8594C255.559 48.5156 255.316 48.2422 254.996 48.0391C254.684 47.8281 254.297 47.7227 253.836 47.7227C253.344 47.7227 252.941 47.8281 252.629 48.0391C252.316 48.2422 252.074 48.5234 251.902 48.8828C251.73 49.2344 251.609 49.6367 251.539 50.0898C251.477 50.5352 251.445 51.0039 251.445 51.4961V51.8359C251.445 52.3281 251.477 52.8008 251.539 53.2539C251.602 53.707 251.719 54.1094 251.891 54.4609C252.07 54.8125 252.316 55.0898 252.629 55.293C252.941 55.4961 253.348 55.5977 253.848 55.5977ZM267.336 45.3203V47.7109H259.953V45.3203H267.336ZM261.781 42.1914H265.156V54.1797C265.156 54.5469 265.203 54.8281 265.297 55.0234C265.398 55.2188 265.547 55.3555 265.742 55.4336C265.938 55.5039 266.184 55.5391 266.48 55.5391C266.691 55.5391 266.879 55.5312 267.043 55.5156C267.215 55.4922 267.359 55.4688 267.477 55.4453L267.488 57.9297C267.199 58.0234 266.887 58.0977 266.551 58.1523C266.215 58.207 265.844 58.2344 265.438 58.2344C264.695 58.2344 264.047 58.1133 263.492 57.8711C262.945 57.6211 262.523 57.2227 262.227 56.6758C261.93 56.1289 261.781 55.4102 261.781 54.5195V42.1914ZM268.414 51.7891V51.543C268.414 50.6133 268.547 49.7578 268.812 48.9766C269.078 48.1875 269.465 47.5039 269.973 46.9258C270.48 46.3477 271.105 45.8984 271.848 45.5781C272.59 45.25 273.441 45.0859 274.402 45.0859C275.363 45.0859 276.219 45.25 276.969 45.5781C277.719 45.8984 278.348 46.3477 278.855 46.9258C279.371 47.5039 279.762 48.1875 280.027 48.9766C280.293 49.7578 280.426 50.6133 280.426 51.543V51.7891C280.426 52.7109 280.293 53.5664 280.027 54.3555C279.762 55.1367 279.371 55.8203 278.855 56.4062C278.348 56.9844 277.723 57.4336 276.98 57.7539C276.238 58.0742 275.387 58.2344 274.426 58.2344C273.465 58.2344 272.609 58.0742 271.859 57.7539C271.117 57.4336 270.488 56.9844 269.973 56.4062C269.465 55.8203 269.078 55.1367 268.812 54.3555C268.547 53.5664 268.414 52.7109 268.414 51.7891ZM271.789 51.543V51.7891C271.789 52.3203 271.836 52.8164 271.93 53.2773C272.023 53.7383 272.172 54.1445 272.375 54.4961C272.586 54.8398 272.859 55.1094 273.195 55.3047C273.531 55.5 273.941 55.5977 274.426 55.5977C274.895 55.5977 275.297 55.5 275.633 55.3047C275.969 55.1094 276.238 54.8398 276.441 54.4961C276.645 54.1445 276.793 53.7383 276.887 53.2773C276.988 52.8164 277.039 52.3203 277.039 51.7891V51.543C277.039 51.0273 276.988 50.543 276.887 50.0898C276.793 49.6289 276.641 49.2227 276.43 48.8711C276.227 48.5117 275.957 48.2305 275.621 48.0273C275.285 47.8242 274.879 47.7227 274.402 47.7227C273.926 47.7227 273.52 47.8242 273.184 48.0273C272.855 48.2305 272.586 48.5117 272.375 48.8711C272.172 49.2227 272.023 49.6289 271.93 50.0898C271.836 50.543 271.789 51.0273 271.789 51.543ZM285.875 48.0859V58H282.5V45.3203H285.676L285.875 48.0859ZM289.695 45.2383L289.637 48.3672C289.473 48.3438 289.273 48.3242 289.039 48.3086C288.812 48.2852 288.605 48.2734 288.418 48.2734C287.941 48.2734 287.527 48.3359 287.176 48.4609C286.832 48.5781 286.543 48.7539 286.309 48.9883C286.082 49.2227 285.91 49.5078 285.793 49.8438C285.684 50.1797 285.621 50.5625 285.605 50.9922L284.926 50.7812C284.926 49.9609 285.008 49.207 285.172 48.5195C285.336 47.8242 285.574 47.2188 285.887 46.7031C286.207 46.1875 286.598 45.7891 287.059 45.5078C287.52 45.2266 288.047 45.0859 288.641 45.0859C288.828 45.0859 289.02 45.1016 289.215 45.1328C289.41 45.1562 289.57 45.1914 289.695 45.2383Z" fill="#888888"/>
<path d="M107.205 107.146H99.251V101.191H107.205C108.289 101.191 109.168 101.008 109.842 100.642C110.516 100.275 111.006 99.77 111.314 99.1255C111.636 98.4663 111.797 97.7266 111.797 96.9062C111.797 96.0273 111.636 95.2144 111.314 94.4673C111.006 93.7202 110.516 93.1196 109.842 92.6655C109.168 92.1968 108.289 91.9624 107.205 91.9624H102.151V118H94.439V86.0078H107.205C109.769 86.0078 111.973 86.4766 113.819 87.4141C115.679 88.3516 117.107 89.6406 118.104 91.2812C119.1 92.9072 119.598 94.7676 119.598 96.8623C119.598 98.9277 119.1 100.729 118.104 102.268C117.107 103.806 115.679 105.007 113.819 105.871C111.973 106.721 109.769 107.146 107.205 107.146ZM130.87 100.114V118H123.465V94.2256H130.386L130.87 100.114ZM137.901 94.0498L137.769 100.927C137.476 100.898 137.081 100.861 136.583 100.817C136.084 100.773 135.667 100.751 135.33 100.751C134.466 100.751 133.719 100.854 133.089 101.059C132.474 101.25 131.961 101.542 131.551 101.938C131.155 102.319 130.862 102.802 130.672 103.388C130.496 103.974 130.416 104.655 130.43 105.432L129.09 104.553C129.09 102.956 129.244 101.506 129.551 100.202C129.874 98.8838 130.328 97.7485 130.914 96.7964C131.5 95.8296 132.21 95.0898 133.045 94.5771C133.88 94.0498 134.817 93.7861 135.857 93.7861C136.224 93.7861 136.583 93.8081 136.934 93.8521C137.3 93.896 137.623 93.9619 137.901 94.0498ZM138.736 106.354V105.893C138.736 104.15 138.985 102.546 139.483 101.081C139.981 99.6016 140.713 98.3198 141.68 97.2358C142.647 96.1519 143.841 95.3096 145.262 94.709C146.683 94.0938 148.323 93.7861 150.184 93.7861C152.059 93.7861 153.707 94.0938 155.127 94.709C156.563 95.3096 157.764 96.1519 158.731 97.2358C159.698 98.3198 160.43 99.6016 160.928 101.081C161.426 102.546 161.675 104.15 161.675 105.893V106.354C161.675 108.083 161.426 109.687 160.928 111.167C160.43 112.631 159.698 113.913 158.731 115.012C157.764 116.096 156.57 116.938 155.149 117.539C153.729 118.139 152.088 118.439 150.228 118.439C148.367 118.439 146.719 118.139 145.284 117.539C143.848 116.938 142.647 116.096 141.68 115.012C140.713 113.913 139.981 112.631 139.483 111.167C138.985 109.687 138.736 108.083 138.736 106.354ZM146.141 105.893V106.354C146.141 107.248 146.207 108.083 146.338 108.859C146.47 109.636 146.69 110.317 146.998 110.903C147.305 111.474 147.723 111.921 148.25 112.243C148.777 112.565 149.437 112.727 150.228 112.727C151.004 112.727 151.648 112.565 152.161 112.243C152.688 111.921 153.106 111.474 153.414 110.903C153.721 110.317 153.941 109.636 154.073 108.859C154.205 108.083 154.271 107.248 154.271 106.354V105.893C154.271 105.029 154.205 104.216 154.073 103.454C153.941 102.678 153.721 101.997 153.414 101.411C153.106 100.81 152.688 100.341 152.161 100.004C151.634 99.6675 150.975 99.499 150.184 99.499C149.407 99.499 148.755 99.6675 148.228 100.004C147.715 100.341 147.305 100.81 146.998 101.411C146.69 101.997 146.47 102.678 146.338 103.454C146.207 104.216 146.141 105.029 146.141 105.893ZM165.521 94.2256H172.947V118.769C172.947 120.673 172.581 122.277 171.849 123.581C171.116 124.899 170.069 125.896 168.707 126.569C167.344 127.258 165.718 127.602 163.829 127.602C163.199 127.602 162.62 127.573 162.093 127.514C161.551 127.47 160.958 127.375 160.313 127.229V121.625C160.694 121.684 161.045 121.728 161.368 121.757C161.69 121.801 162.042 121.823 162.422 121.823C163.096 121.823 163.66 121.713 164.114 121.494C164.568 121.274 164.913 120.937 165.147 120.483C165.396 120.029 165.521 119.458 165.521 118.769V94.2256ZM164.971 88.0952C164.971 87.0405 165.352 86.1763 166.114 85.5024C166.875 84.8286 167.864 84.4917 169.08 84.4917C170.296 84.4917 171.285 84.8286 172.046 85.5024C172.808 86.1763 173.189 87.0405 173.189 88.0952C173.189 89.1499 172.808 90.0142 172.046 90.688C171.285 91.3618 170.296 91.6987 169.08 91.6987C167.864 91.6987 166.875 91.3618 166.114 90.688C165.352 90.0142 164.971 89.1499 164.971 88.0952ZM188.658 118.439C186.724 118.439 184.996 118.139 183.472 117.539C181.949 116.923 180.66 116.081 179.605 115.012C178.565 113.942 177.767 112.712 177.21 111.32C176.668 109.929 176.397 108.457 176.397 106.904V106.069C176.397 104.326 176.639 102.714 177.122 101.235C177.605 99.7407 178.323 98.437 179.275 97.3237C180.228 96.2104 181.421 95.3462 182.857 94.731C184.292 94.1011 185.962 93.7861 187.867 93.7861C189.551 93.7861 191.06 94.0571 192.393 94.5991C193.726 95.1411 194.854 95.9175 195.777 96.9282C196.714 97.939 197.425 99.1621 197.908 100.598C198.406 102.033 198.655 103.645 198.655 105.432V108.442H179.231V103.806H191.426V103.234C191.441 102.443 191.302 101.77 191.009 101.213C190.73 100.656 190.32 100.231 189.778 99.9385C189.236 99.6455 188.577 99.499 187.801 99.499C186.995 99.499 186.329 99.6748 185.801 100.026C185.289 100.378 184.886 100.861 184.593 101.477C184.314 102.077 184.117 102.773 184 103.564C183.882 104.355 183.824 105.19 183.824 106.069V106.904C183.824 107.783 183.941 108.581 184.175 109.299C184.424 110.017 184.776 110.632 185.23 111.145C185.699 111.643 186.255 112.031 186.9 112.309C187.559 112.587 188.306 112.727 189.141 112.727C190.152 112.727 191.148 112.536 192.129 112.155C193.111 111.774 193.953 111.145 194.656 110.266L198.018 114.265C197.535 114.953 196.846 115.62 195.953 116.264C195.074 116.909 194.019 117.436 192.789 117.846C191.558 118.242 190.181 118.439 188.658 118.439ZM211.707 112.727C212.396 112.727 212.981 112.602 213.465 112.353C213.963 112.089 214.336 111.723 214.585 111.254C214.849 110.771 214.974 110.192 214.959 109.519H221.924C221.939 111.306 221.5 112.873 220.606 114.221C219.727 115.554 218.526 116.594 217.002 117.341C215.494 118.073 213.787 118.439 211.883 118.439C210.022 118.439 208.396 118.139 207.005 117.539C205.613 116.923 204.449 116.074 203.511 114.99C202.588 113.891 201.893 112.609 201.424 111.145C200.97 109.68 200.743 108.09 200.743 106.376V105.871C200.743 104.157 200.97 102.568 201.424 101.103C201.893 99.6235 202.588 98.3418 203.511 97.2578C204.449 96.1592 205.606 95.3096 206.983 94.709C208.375 94.0938 209.993 93.7861 211.839 93.7861C213.816 93.7861 215.56 94.1597 217.068 94.9067C218.592 95.6538 219.786 96.7378 220.65 98.1587C221.514 99.5796 221.939 101.301 221.924 103.322H214.959C214.974 102.604 214.864 101.96 214.629 101.389C214.395 100.817 214.029 100.363 213.531 100.026C213.047 99.6748 212.425 99.499 211.663 99.499C210.901 99.499 210.286 99.6675 209.817 100.004C209.349 100.341 208.99 100.81 208.741 101.411C208.506 101.997 208.345 102.67 208.257 103.432C208.184 104.194 208.147 105.007 208.147 105.871V106.376C208.147 107.255 208.184 108.083 208.257 108.859C208.345 109.621 208.514 110.295 208.763 110.881C209.012 111.452 209.371 111.906 209.839 112.243C210.308 112.565 210.931 112.727 211.707 112.727ZM237.613 94.2256V99.3672H223.287V94.2256H237.613ZM226.297 88.3149H233.702V110.244C233.702 110.874 233.775 111.364 233.921 111.716C234.068 112.053 234.317 112.294 234.668 112.441C235.035 112.573 235.518 112.639 236.119 112.639C236.543 112.639 236.895 112.631 237.173 112.617C237.452 112.587 237.715 112.551 237.964 112.507V117.802C237.334 118.007 236.675 118.161 235.987 118.264C235.298 118.381 234.566 118.439 233.79 118.439C232.208 118.439 230.853 118.19 229.725 117.692C228.611 117.194 227.762 116.411 227.176 115.341C226.59 114.272 226.297 112.88 226.297 111.167V88.3149ZM264.881 107.146H256.927V101.191H264.881C265.965 101.191 266.844 101.008 267.518 100.642C268.191 100.275 268.682 99.77 268.99 99.1255C269.312 98.4663 269.473 97.7266 269.473 96.9062C269.473 96.0273 269.312 95.2144 268.99 94.4673C268.682 93.7202 268.191 93.1196 267.518 92.6655C266.844 92.1968 265.965 91.9624 264.881 91.9624H259.827V118H252.115V86.0078H264.881C267.444 86.0078 269.649 86.4766 271.495 87.4141C273.355 88.3516 274.783 89.6406 275.779 91.2812C276.775 92.9072 277.273 94.7676 277.273 96.8623C277.273 98.9277 276.775 100.729 275.779 102.268C274.783 103.806 273.355 105.007 271.495 105.871C269.649 106.721 267.444 107.146 264.881 107.146ZM288.326 84.25V118H280.921V84.25H288.326ZM287.447 105.3L285.711 105.344C285.711 103.674 285.916 102.136 286.326 100.729C286.736 99.3232 287.322 98.1001 288.084 97.0601C288.846 96.02 289.761 95.2144 290.831 94.6431C291.9 94.0718 293.086 93.7861 294.39 93.7861C295.562 93.7861 296.631 93.9546 297.598 94.2915C298.58 94.6284 299.422 95.1704 300.125 95.9175C300.843 96.6646 301.392 97.6387 301.773 98.8398C302.168 100.041 302.366 101.506 302.366 103.234V118H294.917V103.19C294.917 102.224 294.778 101.477 294.5 100.949C294.236 100.407 293.855 100.034 293.357 99.8286C292.859 99.6089 292.251 99.499 291.534 99.499C290.669 99.499 289.966 99.6455 289.424 99.9385C288.882 100.231 288.465 100.642 288.172 101.169C287.894 101.682 287.703 102.29 287.601 102.993C287.498 103.696 287.447 104.465 287.447 105.3ZM314.297 94.2256V118H306.871V94.2256H314.297ZM306.431 88.0952C306.431 87.0405 306.812 86.1763 307.574 85.5024C308.335 84.8286 309.324 84.4917 310.54 84.4917C311.756 84.4917 312.745 84.8286 313.506 85.5024C314.268 86.1763 314.649 87.0405 314.649 88.0952C314.649 89.1499 314.268 90.0142 313.506 90.688C312.745 91.3618 311.756 91.6987 310.54 91.6987C309.324 91.6987 308.335 91.3618 307.574 90.688C306.812 90.0142 306.431 89.1499 306.431 88.0952ZM326.69 84.25V118H319.263V84.25H326.69ZM330.337 106.354V105.893C330.337 104.15 330.586 102.546 331.084 101.081C331.583 99.6016 332.315 98.3198 333.282 97.2358C334.249 96.1519 335.442 95.3096 336.863 94.709C338.284 94.0938 339.925 93.7861 341.785 93.7861C343.66 93.7861 345.308 94.0938 346.729 94.709C348.165 95.3096 349.366 96.1519 350.333 97.2358C351.299 98.3198 352.032 99.6016 352.53 101.081C353.028 102.546 353.277 104.15 353.277 105.893V106.354C353.277 108.083 353.028 109.687 352.53 111.167C352.032 112.631 351.299 113.913 350.333 115.012C349.366 116.096 348.172 116.938 346.751 117.539C345.33 118.139 343.689 118.439 341.829 118.439C339.969 118.439 338.321 118.139 336.885 117.539C335.45 116.938 334.249 116.096 333.282 115.012C332.315 113.913 331.583 112.631 331.084 111.167C330.586 109.687 330.337 108.083 330.337 106.354ZM337.742 105.893V106.354C337.742 107.248 337.808 108.083 337.94 108.859C338.072 109.636 338.292 110.317 338.599 110.903C338.907 111.474 339.324 111.921 339.852 112.243C340.379 112.565 341.038 112.727 341.829 112.727C342.605 112.727 343.25 112.565 343.763 112.243C344.29 111.921 344.708 111.474 345.015 110.903C345.323 110.317 345.542 109.636 345.674 108.859C345.806 108.083 345.872 107.248 345.872 106.354V105.893C345.872 105.029 345.806 104.216 345.674 103.454C345.542 102.678 345.323 101.997 345.015 101.411C344.708 100.81 344.29 100.341 343.763 100.004C343.235 99.6675 342.576 99.499 341.785 99.499C341.009 99.499 340.357 99.6675 339.83 100.004C339.317 100.341 338.907 100.81 338.599 101.411C338.292 101.997 338.072 102.678 337.94 103.454C337.808 104.216 337.742 105.029 337.742 105.893ZM369.031 111.32C369.031 110.91 368.892 110.559 368.614 110.266C368.35 109.958 367.881 109.68 367.208 109.431C366.534 109.167 365.589 108.903 364.373 108.64C363.216 108.391 362.125 108.061 361.099 107.651C360.088 107.241 359.202 106.743 358.44 106.157C357.679 105.571 357.078 104.875 356.639 104.069C356.214 103.264 356.001 102.341 356.001 101.301C356.001 100.29 356.214 99.3379 356.639 98.4443C357.078 97.5361 357.715 96.7378 358.55 96.0493C359.4 95.3462 360.433 94.7969 361.648 94.4014C362.864 93.9912 364.249 93.7861 365.801 93.7861C367.94 93.7861 369.786 94.1157 371.338 94.7749C372.891 95.4194 374.085 96.3276 374.92 97.4995C375.77 98.6567 376.194 99.9971 376.194 101.521H368.79C368.79 100.92 368.687 100.407 368.482 99.9824C368.292 99.5576 367.977 99.2354 367.537 99.0156C367.098 98.7812 366.512 98.6641 365.779 98.6641C365.267 98.6641 364.798 98.7593 364.373 98.9497C363.963 99.1401 363.633 99.4038 363.384 99.7407C363.135 100.078 363.011 100.473 363.011 100.927C363.011 101.25 363.084 101.542 363.23 101.806C363.392 102.055 363.633 102.29 363.956 102.509C364.278 102.714 364.688 102.905 365.186 103.081C365.684 103.242 366.285 103.388 366.988 103.52C368.584 103.813 370.079 104.23 371.47 104.772C372.862 105.314 373.99 106.083 374.854 107.08C375.733 108.076 376.172 109.416 376.172 111.101C376.172 112.155 375.931 113.129 375.447 114.023C374.964 114.902 374.268 115.678 373.36 116.352C372.452 117.011 371.36 117.524 370.086 117.89C368.812 118.256 367.376 118.439 365.779 118.439C363.509 118.439 361.59 118.037 360.022 117.231C358.455 116.411 357.269 115.385 356.463 114.155C355.672 112.91 355.276 111.65 355.276 110.375H362.176C362.205 111.108 362.381 111.708 362.703 112.177C363.04 112.646 363.487 112.99 364.043 113.21C364.6 113.43 365.245 113.54 365.977 113.54C366.651 113.54 367.208 113.444 367.647 113.254C368.101 113.063 368.445 112.807 368.68 112.485C368.914 112.148 369.031 111.76 369.031 111.32ZM378.721 106.354V105.893C378.721 104.15 378.97 102.546 379.468 101.081C379.966 99.6016 380.699 98.3198 381.666 97.2358C382.632 96.1519 383.826 95.3096 385.247 94.709C386.668 94.0938 388.309 93.7861 390.169 93.7861C392.044 93.7861 393.692 94.0938 395.113 94.709C396.548 95.3096 397.75 96.1519 398.716 97.2358C399.683 98.3198 400.416 99.6016 400.914 101.081C401.412 102.546 401.661 104.15 401.661 105.893V106.354C401.661 108.083 401.412 109.687 400.914 111.167C400.416 112.631 399.683 113.913 398.716 115.012C397.75 116.096 396.556 116.938 395.135 117.539C393.714 118.139 392.073 118.439 390.213 118.439C388.353 118.439 386.705 118.139 385.269 117.539C383.833 116.938 382.632 116.096 381.666 115.012C380.699 113.913 379.966 112.631 379.468 111.167C378.97 109.687 378.721 108.083 378.721 106.354ZM386.126 105.893V106.354C386.126 107.248 386.192 108.083 386.324 108.859C386.456 109.636 386.675 110.317 386.983 110.903C387.291 111.474 387.708 111.921 388.235 112.243C388.763 112.565 389.422 112.727 390.213 112.727C390.989 112.727 391.634 112.565 392.146 112.243C392.674 111.921 393.091 111.474 393.399 110.903C393.707 110.317 393.926 109.636 394.058 108.859C394.19 108.083 394.256 107.248 394.256 106.354V105.893C394.256 105.029 394.19 104.216 394.058 103.454C393.926 102.678 393.707 101.997 393.399 101.411C393.091 100.81 392.674 100.341 392.146 100.004C391.619 99.6675 390.96 99.499 390.169 99.499C389.393 99.499 388.741 99.6675 388.213 100.004C387.701 100.341 387.291 100.81 386.983 101.411C386.675 101.997 386.456 102.678 386.324 103.454C386.192 104.216 386.126 105.029 386.126 105.893ZM412.427 98.7959V127.141H405.022V94.2256H411.922L412.427 98.7959ZM427.017 105.827V106.289C427.017 108.017 426.819 109.621 426.424 111.101C426.028 112.58 425.442 113.869 424.666 114.968C423.89 116.066 422.923 116.923 421.766 117.539C420.623 118.139 419.297 118.439 417.789 118.439C416.368 118.439 415.145 118.125 414.119 117.495C413.094 116.865 412.237 115.993 411.548 114.88C410.86 113.767 410.303 112.492 409.878 111.057C409.454 109.621 409.117 108.105 408.868 106.508V105.915C409.117 104.201 409.454 102.612 409.878 101.147C410.303 99.6675 410.86 98.3784 411.548 97.2798C412.237 96.1812 413.086 95.3242 414.097 94.709C415.123 94.0938 416.346 93.7861 417.767 93.7861C419.275 93.7861 420.601 94.0718 421.744 94.6431C422.901 95.2144 423.868 96.0347 424.644 97.104C425.435 98.1587 426.028 99.4258 426.424 100.905C426.819 102.385 427.017 104.025 427.017 105.827ZM419.612 106.289V105.827C419.612 104.904 419.546 104.062 419.415 103.3C419.283 102.524 419.07 101.85 418.777 101.279C418.499 100.708 418.125 100.268 417.657 99.9604C417.188 99.6528 416.609 99.499 415.921 99.499C415.13 99.499 414.463 99.6235 413.921 99.8726C413.394 100.107 412.969 100.473 412.647 100.971C412.339 101.455 412.12 102.062 411.988 102.795C411.871 103.513 411.819 104.355 411.834 105.322V107.124C411.805 108.237 411.915 109.218 412.164 110.068C412.413 110.903 412.845 111.555 413.46 112.023C414.075 112.492 414.91 112.727 415.965 112.727C416.668 112.727 417.254 112.565 417.723 112.243C418.191 111.906 418.565 111.445 418.843 110.859C419.122 110.258 419.319 109.57 419.437 108.793C419.554 108.017 419.612 107.182 419.612 106.289ZM437.564 84.25V118H430.159V84.25H437.564ZM436.685 105.3L434.949 105.344C434.949 103.674 435.154 102.136 435.564 100.729C435.975 99.3232 436.561 98.1001 437.322 97.0601C438.084 96.02 439 95.2144 440.069 94.6431C441.138 94.0718 442.325 93.7861 443.628 93.7861C444.8 93.7861 445.87 93.9546 446.836 94.2915C447.818 94.6284 448.66 95.1704 449.363 95.9175C450.081 96.6646 450.63 97.6387 451.011 98.8398C451.407 100.041 451.604 101.506 451.604 103.234V118H444.156V103.19C444.156 102.224 444.017 101.477 443.738 100.949C443.475 100.407 443.094 100.034 442.596 99.8286C442.098 99.6089 441.49 99.499 440.772 99.499C439.908 99.499 439.205 99.6455 438.663 99.9385C438.121 100.231 437.703 100.642 437.41 101.169C437.132 101.682 436.941 102.29 436.839 102.993C436.736 103.696 436.685 104.465 436.685 105.3ZM463.008 115.209L469.161 94.2256H477.115L467.557 121.538C467.352 122.138 467.081 122.783 466.744 123.471C466.407 124.174 465.945 124.841 465.359 125.471C464.773 126.101 464.019 126.613 463.096 127.009C462.188 127.404 461.06 127.602 459.712 127.602C458.995 127.602 458.467 127.565 458.13 127.492C457.808 127.434 457.31 127.324 456.636 127.163V121.867C456.827 121.867 456.988 121.867 457.12 121.867C457.266 121.867 457.427 121.867 457.603 121.867C458.394 121.867 459.024 121.787 459.493 121.625C459.976 121.464 460.342 121.23 460.591 120.922C460.855 120.615 461.06 120.241 461.207 119.802L463.008 115.209ZM461.448 94.2256L466.128 110.859L466.941 118.703H461.976L453.516 94.2256H461.448Z" fill="#424241"/>
<path d="M1363 15C1363 6.71573 1356.28 0 1348 0H1134V167H1348C1356.28 167 1363 160.284 1363 152V15Z" fill="#022E7A"/>
<path d="M1234.26 106.286H1262.74V111.857H1234.26V106.286ZM1239.96 117.429H1257.04V123H1239.96V117.429ZM1248.5 45C1240.95 45 1233.71 47.9349 1228.37 53.1592C1223.03 58.3834 1220.03 65.469 1220.03 72.8571C1219.84 76.9057 1220.63 80.9412 1222.34 84.6315C1224.05 88.3219 1226.64 91.5616 1229.88 94.0843C1232.73 96.675 1234.26 98.1514 1234.26 100.714H1239.96C1239.96 95.5886 1236.8 92.7193 1233.72 89.9614C1231.06 87.9676 1228.94 85.3658 1227.55 82.3838C1226.15 79.4019 1225.53 76.1308 1225.72 72.8571C1225.72 66.9466 1228.12 61.2781 1232.39 57.0988C1236.67 52.9194 1242.46 50.5714 1248.5 50.5714C1254.54 50.5714 1260.33 52.9194 1264.61 57.0988C1268.88 61.2781 1271.28 66.9466 1271.28 72.8571C1271.47 76.1333 1270.84 79.4059 1269.44 82.388C1268.04 85.3701 1265.92 87.9706 1263.25 89.9614C1260.2 92.7471 1257.04 95.5329 1257.04 100.714H1262.74C1262.74 98.1514 1264.25 96.675 1267.12 94.0564C1270.36 91.5381 1272.94 88.3031 1274.66 84.6176C1276.37 80.9321 1277.16 76.9014 1276.97 72.8571C1276.97 69.1989 1276.24 65.5765 1274.81 62.1967C1273.37 58.8169 1271.28 55.7459 1268.63 53.1592C1265.99 50.5724 1262.85 48.5205 1259.4 47.1205C1255.94 45.7205 1252.24 45 1248.5 45Z" fill="white"/>
</svg>
