<svg width="1363" height="167" viewBox="0 0 1363 167" fill="none" xmlns="http://www.w3.org/2000/svg">
<rect width="1363" height="167" rx="15" fill="#F0F0F0"/>
<path d="M0 15C0 6.71573 6.71573 0 15 0H37V167H15C6.71573 167 0 160.284 0 152V15Z" fill="#424241"/>
<path d="M100.906 54.9219L93.3945 52.2383V49.0859L103.602 53.375V55.6367L100.906 54.9219ZM93.3945 57.1719L100.918 54.4297L103.602 53.7852V56.0352L93.3945 60.3242V57.1719ZM121.789 56.3398H125.293C125.223 57.4883 124.906 58.5078 124.344 59.3984C123.789 60.2891 123.012 60.9844 122.012 61.4844C121.02 61.9844 119.824 62.2344 118.426 62.2344C117.332 62.2344 116.352 62.0469 115.484 61.6719C114.617 61.2891 113.875 60.7422 113.258 60.0312C112.648 59.3203 112.184 58.4609 111.863 57.4531C111.543 56.4453 111.383 55.3164 111.383 54.0664V52.8828C111.383 51.6328 111.547 50.5039 111.875 49.4961C112.211 48.4805 112.688 47.6172 113.305 46.9062C113.93 46.1953 114.676 45.6484 115.543 45.2656C116.41 44.8828 117.379 44.6914 118.449 44.6914C119.871 44.6914 121.07 44.9492 122.047 45.4648C123.031 45.9805 123.793 46.6914 124.332 47.5977C124.879 48.5039 125.207 49.5352 125.316 50.6914H121.801C121.762 50.0039 121.625 49.4219 121.391 48.9453C121.156 48.4609 120.801 48.0977 120.324 47.8555C119.855 47.6055 119.23 47.4805 118.449 47.4805C117.863 47.4805 117.352 47.5898 116.914 47.8086C116.477 48.0273 116.109 48.3594 115.812 48.8047C115.516 49.25 115.293 49.8125 115.145 50.4922C115.004 51.1641 114.934 51.9531 114.934 52.8594V54.0664C114.934 54.9492 115 55.7266 115.133 56.3984C115.266 57.0625 115.469 57.625 115.742 58.0859C116.023 58.5391 116.383 58.8828 116.82 59.1172C117.266 59.3438 117.801 59.457 118.426 59.457C119.16 59.457 119.766 59.3398 120.242 59.1055C120.719 58.8711 121.082 58.5234 121.332 58.0625C121.59 57.6016 121.742 57.0273 121.789 56.3398ZM126.852 55.7891V55.543C126.852 54.6133 126.984 53.7578 127.25 52.9766C127.516 52.1875 127.902 51.5039 128.41 50.9258C128.918 50.3477 129.543 49.8984 130.285 49.5781C131.027 49.25 131.879 49.0859 132.84 49.0859C133.801 49.0859 134.656 49.25 135.406 49.5781C136.156 49.8984 136.785 50.3477 137.293 50.9258C137.809 51.5039 138.199 52.1875 138.465 52.9766C138.73 53.7578 138.863 54.6133 138.863 55.543V55.7891C138.863 56.7109 138.73 57.5664 138.465 58.3555C138.199 59.1367 137.809 59.8203 137.293 60.4062C136.785 60.9844 136.16 61.4336 135.418 61.7539C134.676 62.0742 133.824 62.2344 132.863 62.2344C131.902 62.2344 131.047 62.0742 130.297 61.7539C129.555 61.4336 128.926 60.9844 128.41 60.4062C127.902 59.8203 127.516 59.1367 127.25 58.3555C126.984 57.5664 126.852 56.7109 126.852 55.7891ZM130.227 55.543V55.7891C130.227 56.3203 130.273 56.8164 130.367 57.2773C130.461 57.7383 130.609 58.1445 130.812 58.4961C131.023 58.8398 131.297 59.1094 131.633 59.3047C131.969 59.5 132.379 59.5977 132.863 59.5977C133.332 59.5977 133.734 59.5 134.07 59.3047C134.406 59.1094 134.676 58.8398 134.879 58.4961C135.082 58.1445 135.23 57.7383 135.324 57.2773C135.426 56.8164 135.477 56.3203 135.477 55.7891V55.543C135.477 55.0273 135.426 54.543 135.324 54.0898C135.23 53.6289 135.078 53.2227 134.867 52.8711C134.664 52.5117 134.395 52.2305 134.059 52.0273C133.723 51.8242 133.316 51.7227 132.84 51.7227C132.363 51.7227 131.957 51.8242 131.621 52.0273C131.293 52.2305 131.023 52.5117 130.812 52.8711C130.609 53.2227 130.461 53.6289 130.367 54.0898C130.273 54.543 130.227 55.0273 130.227 55.543ZM144.242 52.0273V62H140.867V49.3203H144.031L144.242 52.0273ZM143.75 55.2148H142.836C142.836 54.2773 142.957 53.4336 143.199 52.6836C143.441 51.9258 143.781 51.2812 144.219 50.75C144.656 50.2109 145.176 49.8008 145.777 49.5195C146.387 49.2305 147.066 49.0859 147.816 49.0859C148.41 49.0859 148.953 49.1719 149.445 49.3438C149.938 49.5156 150.359 49.7891 150.711 50.1641C151.07 50.5391 151.344 51.0352 151.531 51.6523C151.727 52.2695 151.824 53.0234 151.824 53.9141V62H148.426V53.9023C148.426 53.3398 148.348 52.9023 148.191 52.5898C148.035 52.2773 147.805 52.0586 147.5 51.9336C147.203 51.8008 146.836 51.7344 146.398 51.7344C145.945 51.7344 145.551 51.8242 145.215 52.0039C144.887 52.1836 144.613 52.4336 144.395 52.7539C144.184 53.0664 144.023 53.4336 143.914 53.8555C143.805 54.2773 143.75 54.7305 143.75 55.2148ZM161.246 58.4961C161.246 58.2539 161.176 58.0352 161.035 57.8398C160.895 57.6445 160.633 57.4648 160.25 57.3008C159.875 57.1289 159.332 56.9727 158.621 56.832C157.98 56.6914 157.383 56.5156 156.828 56.3047C156.281 56.0859 155.805 55.8242 155.398 55.5195C155 55.2148 154.688 54.8555 154.461 54.4414C154.234 54.0195 154.121 53.5391 154.121 53C154.121 52.4688 154.234 51.9688 154.461 51.5C154.695 51.0312 155.027 50.6172 155.457 50.2578C155.895 49.8906 156.426 49.6055 157.051 49.4023C157.684 49.1914 158.395 49.0859 159.184 49.0859C160.285 49.0859 161.23 49.2617 162.02 49.6133C162.816 49.9648 163.426 50.4492 163.848 51.0664C164.277 51.6758 164.492 52.3711 164.492 53.1523H161.117C161.117 52.8242 161.047 52.5312 160.906 52.2734C160.773 52.0078 160.562 51.8008 160.273 51.6523C159.992 51.4961 159.625 51.418 159.172 51.418C158.797 51.418 158.473 51.4844 158.199 51.6172C157.926 51.7422 157.715 51.9141 157.566 52.1328C157.426 52.3438 157.355 52.5781 157.355 52.8359C157.355 53.0312 157.395 53.207 157.473 53.3633C157.559 53.5117 157.695 53.6484 157.883 53.7734C158.07 53.8984 158.312 54.0156 158.609 54.125C158.914 54.2266 159.289 54.3203 159.734 54.4062C160.648 54.5938 161.465 54.8398 162.184 55.1445C162.902 55.4414 163.473 55.8477 163.895 56.3633C164.316 56.8711 164.527 57.5391 164.527 58.3672C164.527 58.9297 164.402 59.4453 164.152 59.9141C163.902 60.3828 163.543 60.793 163.074 61.1445C162.605 61.4883 162.043 61.7578 161.387 61.9531C160.738 62.1406 160.008 62.2344 159.195 62.2344C158.016 62.2344 157.016 62.0234 156.195 61.6016C155.383 61.1797 154.766 60.6445 154.344 59.9961C153.93 59.3398 153.723 58.668 153.723 57.9805H156.922C156.938 58.4414 157.055 58.8125 157.273 59.0938C157.5 59.375 157.785 59.5781 158.129 59.7031C158.48 59.8281 158.859 59.8906 159.266 59.8906C159.703 59.8906 160.066 59.832 160.355 59.7148C160.645 59.5898 160.863 59.4258 161.012 59.2227C161.168 59.0117 161.246 58.7695 161.246 58.4961ZM174.219 58.9648V49.3203H177.594V62H174.418L174.219 58.9648ZM174.594 56.3633L175.59 56.3398C175.59 57.1836 175.492 57.9688 175.297 58.6953C175.102 59.4141 174.809 60.0391 174.418 60.5703C174.027 61.0938 173.535 61.5039 172.941 61.8008C172.348 62.0898 171.648 62.2344 170.844 62.2344C170.227 62.2344 169.656 62.1484 169.133 61.9766C168.617 61.7969 168.172 61.5195 167.797 61.1445C167.43 60.7617 167.141 60.2734 166.93 59.6797C166.727 59.0781 166.625 58.3555 166.625 57.5117V49.3203H170V57.5352C170 57.9102 170.043 58.2266 170.129 58.4844C170.223 58.7422 170.352 58.9531 170.516 59.1172C170.68 59.2812 170.871 59.3984 171.09 59.4688C171.316 59.5391 171.566 59.5742 171.84 59.5742C172.535 59.5742 173.082 59.4336 173.48 59.1523C173.887 58.8711 174.172 58.4883 174.336 58.0039C174.508 57.5117 174.594 56.9648 174.594 56.3633ZM183.734 44V62H180.348V44H183.734ZM192.734 49.3203V51.7109H185.352V49.3203H192.734ZM187.18 46.1914H190.555V58.1797C190.555 58.5469 190.602 58.8281 190.695 59.0234C190.797 59.2188 190.945 59.3555 191.141 59.4336C191.336 59.5039 191.582 59.5391 191.879 59.5391C192.09 59.5391 192.277 59.5312 192.441 59.5156C192.613 59.4922 192.758 59.4688 192.875 59.4453L192.887 61.9297C192.598 62.0234 192.285 62.0977 191.949 62.1523C191.613 62.207 191.242 62.2344 190.836 62.2344C190.094 62.2344 189.445 62.1133 188.891 61.8711C188.344 61.6211 187.922 61.2227 187.625 60.6758C187.328 60.1289 187.18 59.4102 187.18 58.5195V46.1914ZM207.477 59.1406V53.4922C207.477 53.0859 207.41 52.7383 207.277 52.4492C207.145 52.1523 206.938 51.9219 206.656 51.7578C206.383 51.5938 206.027 51.5117 205.59 51.5117C205.215 51.5117 204.891 51.5781 204.617 51.7109C204.344 51.8359 204.133 52.0195 203.984 52.2617C203.836 52.4961 203.762 52.7734 203.762 53.0938H200.387C200.387 52.5547 200.512 52.043 200.762 51.5586C201.012 51.0742 201.375 50.6484 201.852 50.2812C202.328 49.9062 202.895 49.6133 203.551 49.4023C204.215 49.1914 204.957 49.0859 205.777 49.0859C206.762 49.0859 207.637 49.25 208.402 49.5781C209.168 49.9062 209.77 50.3984 210.207 51.0547C210.652 51.7109 210.875 52.5312 210.875 53.5156V58.9414C210.875 59.6367 210.918 60.207 211.004 60.6523C211.09 61.0898 211.215 61.4727 211.379 61.8008V62H207.969C207.805 61.6562 207.68 61.2266 207.594 60.7109C207.516 60.1875 207.477 59.6641 207.477 59.1406ZM207.922 54.2773L207.945 56.1875H206.059C205.613 56.1875 205.227 56.2383 204.898 56.3398C204.57 56.4414 204.301 56.5859 204.09 56.7734C203.879 56.9531 203.723 57.1641 203.621 57.4062C203.527 57.6484 203.48 57.9141 203.48 58.2031C203.48 58.4922 203.547 58.7539 203.68 58.9883C203.812 59.2148 204.004 59.3945 204.254 59.5273C204.504 59.6523 204.797 59.7148 205.133 59.7148C205.641 59.7148 206.082 59.6133 206.457 59.4102C206.832 59.207 207.121 58.957 207.324 58.6602C207.535 58.3633 207.645 58.082 207.652 57.8164L208.543 59.2461C208.418 59.5664 208.246 59.8984 208.027 60.2422C207.816 60.5859 207.547 60.9102 207.219 61.2148C206.891 61.5117 206.496 61.7578 206.035 61.9531C205.574 62.1406 205.027 62.2344 204.395 62.2344C203.59 62.2344 202.859 62.0742 202.203 61.7539C201.555 61.4258 201.039 60.9766 200.656 60.4062C200.281 59.8281 200.094 59.1719 200.094 58.4375C200.094 57.7734 200.219 57.1836 200.469 56.668C200.719 56.1523 201.086 55.7188 201.57 55.3672C202.062 55.0078 202.676 54.7383 203.41 54.5586C204.145 54.3711 204.996 54.2773 205.965 54.2773H207.922ZM224.902 62H221.188L221.211 59.2578H224.902C225.824 59.2578 226.602 59.0508 227.234 58.6367C227.867 58.2148 228.344 57.6016 228.664 56.7969C228.992 55.9922 229.156 55.0195 229.156 53.8789V53.0469C229.156 52.1719 229.062 51.4023 228.875 50.7383C228.695 50.0742 228.426 49.5156 228.066 49.0625C227.707 48.6094 227.266 48.2695 226.742 48.043C226.219 47.8086 225.617 47.6914 224.938 47.6914H221.117V44.9375H224.938C226.078 44.9375 227.121 45.1328 228.066 45.5234C229.02 45.9062 229.844 46.457 230.539 47.1758C231.234 47.8945 231.77 48.7539 232.145 49.7539C232.527 50.7461 232.719 51.8516 232.719 53.0703V53.8789C232.719 55.0898 232.527 56.1953 232.145 57.1953C231.77 58.1953 231.234 59.0547 230.539 59.7734C229.852 60.4844 229.027 61.0352 228.066 61.4258C227.113 61.8086 226.059 62 224.902 62ZM223.18 44.9375V62H219.664V44.9375H223.18ZM234.523 55.7891V55.543C234.523 54.6133 234.656 53.7578 234.922 52.9766C235.188 52.1875 235.574 51.5039 236.082 50.9258C236.59 50.3477 237.215 49.8984 237.957 49.5781C238.699 49.25 239.551 49.0859 240.512 49.0859C241.473 49.0859 242.328 49.25 243.078 49.5781C243.828 49.8984 244.457 50.3477 244.965 50.9258C245.48 51.5039 245.871 52.1875 246.137 52.9766C246.402 53.7578 246.535 54.6133 246.535 55.543V55.7891C246.535 56.7109 246.402 57.5664 246.137 58.3555C245.871 59.1367 245.48 59.8203 244.965 60.4062C244.457 60.9844 243.832 61.4336 243.09 61.7539C242.348 62.0742 241.496 62.2344 240.535 62.2344C239.574 62.2344 238.719 62.0742 237.969 61.7539C237.227 61.4336 236.598 60.9844 236.082 60.4062C235.574 59.8203 235.188 59.1367 234.922 58.3555C234.656 57.5664 234.523 56.7109 234.523 55.7891ZM237.898 55.543V55.7891C237.898 56.3203 237.945 56.8164 238.039 57.2773C238.133 57.7383 238.281 58.1445 238.484 58.4961C238.695 58.8398 238.969 59.1094 239.305 59.3047C239.641 59.5 240.051 59.5977 240.535 59.5977C241.004 59.5977 241.406 59.5 241.742 59.3047C242.078 59.1094 242.348 58.8398 242.551 58.4961C242.754 58.1445 242.902 57.7383 242.996 57.2773C243.098 56.8164 243.148 56.3203 243.148 55.7891V55.543C243.148 55.0273 243.098 54.543 242.996 54.0898C242.902 53.6289 242.75 53.2227 242.539 52.8711C242.336 52.5117 242.066 52.2305 241.73 52.0273C241.395 51.8242 240.988 51.7227 240.512 51.7227C240.035 51.7227 239.629 51.8242 239.293 52.0273C238.965 52.2305 238.695 52.5117 238.484 52.8711C238.281 53.2227 238.133 53.6289 238.039 54.0898C237.945 54.543 237.898 55.0273 237.898 55.543ZM253.848 59.5977C254.262 59.5977 254.629 59.5195 254.949 59.3633C255.27 59.1992 255.52 58.9727 255.699 58.6836C255.887 58.3867 255.984 58.0391 255.992 57.6406H259.168C259.16 58.5312 258.922 59.3242 258.453 60.0195C257.984 60.707 257.355 61.25 256.566 61.6484C255.777 62.0391 254.895 62.2344 253.918 62.2344C252.934 62.2344 252.074 62.0703 251.34 61.7422C250.613 61.4141 250.008 60.9609 249.523 60.3828C249.039 59.7969 248.676 59.1172 248.434 58.3438C248.191 57.5625 248.07 56.7266 248.07 55.8359V55.4961C248.07 54.5977 248.191 53.7617 248.434 52.9883C248.676 52.207 249.039 51.5273 249.523 50.9492C250.008 50.3633 250.613 49.9062 251.34 49.5781C252.066 49.25 252.918 49.0859 253.895 49.0859C254.934 49.0859 255.844 49.2852 256.625 49.6836C257.414 50.082 258.031 50.6523 258.477 51.3945C258.93 52.1289 259.16 53 259.168 54.0078H255.992C255.984 53.5859 255.895 53.2031 255.723 52.8594C255.559 52.5156 255.316 52.2422 254.996 52.0391C254.684 51.8281 254.297 51.7227 253.836 51.7227C253.344 51.7227 252.941 51.8281 252.629 52.0391C252.316 52.2422 252.074 52.5234 251.902 52.8828C251.73 53.2344 251.609 53.6367 251.539 54.0898C251.477 54.5352 251.445 55.0039 251.445 55.4961V55.8359C251.445 56.3281 251.477 56.8008 251.539 57.2539C251.602 57.707 251.719 58.1094 251.891 58.4609C252.07 58.8125 252.316 59.0898 252.629 59.293C252.941 59.4961 253.348 59.5977 253.848 59.5977ZM267.336 49.3203V51.7109H259.953V49.3203H267.336ZM261.781 46.1914H265.156V58.1797C265.156 58.5469 265.203 58.8281 265.297 59.0234C265.398 59.2188 265.547 59.3555 265.742 59.4336C265.938 59.5039 266.184 59.5391 266.48 59.5391C266.691 59.5391 266.879 59.5312 267.043 59.5156C267.215 59.4922 267.359 59.4688 267.477 59.4453L267.488 61.9297C267.199 62.0234 266.887 62.0977 266.551 62.1523C266.215 62.207 265.844 62.2344 265.438 62.2344C264.695 62.2344 264.047 62.1133 263.492 61.8711C262.945 61.6211 262.523 61.2227 262.227 60.6758C261.93 60.1289 261.781 59.4102 261.781 58.5195V46.1914ZM268.414 55.7891V55.543C268.414 54.6133 268.547 53.7578 268.812 52.9766C269.078 52.1875 269.465 51.5039 269.973 50.9258C270.48 50.3477 271.105 49.8984 271.848 49.5781C272.59 49.25 273.441 49.0859 274.402 49.0859C275.363 49.0859 276.219 49.25 276.969 49.5781C277.719 49.8984 278.348 50.3477 278.855 50.9258C279.371 51.5039 279.762 52.1875 280.027 52.9766C280.293 53.7578 280.426 54.6133 280.426 55.543V55.7891C280.426 56.7109 280.293 57.5664 280.027 58.3555C279.762 59.1367 279.371 59.8203 278.855 60.4062C278.348 60.9844 277.723 61.4336 276.98 61.7539C276.238 62.0742 275.387 62.2344 274.426 62.2344C273.465 62.2344 272.609 62.0742 271.859 61.7539C271.117 61.4336 270.488 60.9844 269.973 60.4062C269.465 59.8203 269.078 59.1367 268.812 58.3555C268.547 57.5664 268.414 56.7109 268.414 55.7891ZM271.789 55.543V55.7891C271.789 56.3203 271.836 56.8164 271.93 57.2773C272.023 57.7383 272.172 58.1445 272.375 58.4961C272.586 58.8398 272.859 59.1094 273.195 59.3047C273.531 59.5 273.941 59.5977 274.426 59.5977C274.895 59.5977 275.297 59.5 275.633 59.3047C275.969 59.1094 276.238 58.8398 276.441 58.4961C276.645 58.1445 276.793 57.7383 276.887 57.2773C276.988 56.8164 277.039 56.3203 277.039 55.7891V55.543C277.039 55.0273 276.988 54.543 276.887 54.0898C276.793 53.6289 276.641 53.2227 276.43 52.8711C276.227 52.5117 275.957 52.2305 275.621 52.0273C275.285 51.8242 274.879 51.7227 274.402 51.7227C273.926 51.7227 273.52 51.8242 273.184 52.0273C272.855 52.2305 272.586 52.5117 272.375 52.8711C272.172 53.2227 272.023 53.6289 271.93 54.0898C271.836 54.543 271.789 55.0273 271.789 55.543ZM285.875 52.0859V62H282.5V49.3203H285.676L285.875 52.0859ZM289.695 49.2383L289.637 52.3672C289.473 52.3438 289.273 52.3242 289.039 52.3086C288.812 52.2852 288.605 52.2734 288.418 52.2734C287.941 52.2734 287.527 52.3359 287.176 52.4609C286.832 52.5781 286.543 52.7539 286.309 52.9883C286.082 53.2227 285.91 53.5078 285.793 53.8438C285.684 54.1797 285.621 54.5625 285.605 54.9922L284.926 54.7812C284.926 53.9609 285.008 53.207 285.172 52.5195C285.336 51.8242 285.574 51.2188 285.887 50.7031C286.207 50.1875 286.598 49.7891 287.059 49.5078C287.52 49.2266 288.047 49.0859 288.641 49.0859C288.828 49.0859 289.02 49.1016 289.215 49.1328C289.41 49.1562 289.57 49.1914 289.695 49.2383Z" fill="#888888"/>
<path d="M102.635 86.0078V118H94.9443V86.0078H102.635ZM115.181 99.2573V118H107.776V94.2256H114.72L115.181 99.2573ZM114.28 105.3L112.588 105.344C112.588 103.674 112.786 102.136 113.182 100.729C113.577 99.3232 114.163 98.1001 114.939 97.0601C115.716 96.02 116.668 95.2144 117.796 94.6431C118.938 94.0718 120.257 93.7861 121.751 93.7861C122.791 93.7861 123.736 93.9473 124.585 94.2695C125.435 94.5771 126.167 95.0679 126.783 95.7417C127.398 96.4009 127.867 97.2651 128.189 98.3345C128.526 99.3892 128.694 100.656 128.694 102.136V118H121.29V103.081C121.29 102.07 121.172 101.308 120.938 100.795C120.718 100.283 120.396 99.9385 119.971 99.7627C119.546 99.5869 119.026 99.499 118.411 99.499C117.767 99.499 117.188 99.6455 116.675 99.9385C116.163 100.231 115.723 100.642 115.357 101.169C115.005 101.682 114.734 102.29 114.544 102.993C114.368 103.696 114.28 104.465 114.28 105.3ZM127.859 105.3L125.794 105.344C125.794 103.674 125.977 102.136 126.343 100.729C126.724 99.3232 127.288 98.1001 128.035 97.0601C128.797 96.02 129.742 95.2144 130.87 94.6431C131.998 94.0718 133.309 93.7861 134.803 93.7861C135.887 93.7861 136.883 93.9473 137.791 94.2695C138.699 94.5918 139.483 95.1118 140.142 95.8296C140.801 96.5474 141.314 97.4995 141.68 98.686C142.046 99.8579 142.229 101.308 142.229 103.037V118H134.803V103.037C134.803 102.055 134.686 101.315 134.451 100.817C134.231 100.305 133.909 99.9604 133.484 99.7847C133.06 99.5942 132.554 99.499 131.968 99.499C131.265 99.499 130.657 99.6455 130.145 99.9385C129.632 100.231 129.2 100.642 128.848 101.169C128.511 101.682 128.262 102.29 128.101 102.993C127.94 103.696 127.859 104.465 127.859 105.3ZM153.941 98.7959V127.141H146.536V94.2256H153.436L153.941 98.7959ZM168.531 105.827V106.289C168.531 108.017 168.333 109.621 167.938 111.101C167.542 112.58 166.956 113.869 166.18 114.968C165.403 116.066 164.437 116.923 163.279 117.539C162.137 118.139 160.811 118.439 159.302 118.439C157.881 118.439 156.658 118.125 155.633 117.495C154.607 116.865 153.75 115.993 153.062 114.88C152.374 113.767 151.817 112.492 151.392 111.057C150.967 109.621 150.63 108.105 150.381 106.508V105.915C150.63 104.201 150.967 102.612 151.392 101.147C151.817 99.6675 152.374 98.3784 153.062 97.2798C153.75 96.1812 154.6 95.3242 155.611 94.709C156.636 94.0938 157.859 93.7861 159.28 93.7861C160.789 93.7861 162.115 94.0718 163.257 94.6431C164.415 95.2144 165.381 96.0347 166.158 97.104C166.949 98.1587 167.542 99.4258 167.938 100.905C168.333 102.385 168.531 104.025 168.531 105.827ZM161.126 106.289V105.827C161.126 104.904 161.06 104.062 160.928 103.3C160.796 102.524 160.584 101.85 160.291 101.279C160.013 100.708 159.639 100.268 159.17 99.9604C158.702 99.6528 158.123 99.499 157.435 99.499C156.644 99.499 155.977 99.6235 155.435 99.8726C154.908 100.107 154.483 100.473 154.161 100.971C153.853 101.455 153.633 102.062 153.501 102.795C153.384 103.513 153.333 104.355 153.348 105.322V107.124C153.318 108.237 153.428 109.218 153.677 110.068C153.926 110.903 154.358 111.555 154.974 112.023C155.589 112.492 156.424 112.727 157.479 112.727C158.182 112.727 158.768 112.565 159.236 112.243C159.705 111.906 160.079 111.445 160.357 110.859C160.635 110.258 160.833 109.57 160.95 108.793C161.067 108.017 161.126 107.182 161.126 106.289ZM179.649 84.25V118H172.222V84.25H179.649ZM195.733 118.439C193.799 118.439 192.071 118.139 190.547 117.539C189.024 116.923 187.735 116.081 186.68 115.012C185.64 113.942 184.842 112.712 184.285 111.32C183.743 109.929 183.472 108.457 183.472 106.904V106.069C183.472 104.326 183.714 102.714 184.197 101.235C184.681 99.7407 185.398 98.437 186.351 97.3237C187.303 96.2104 188.497 95.3462 189.932 94.731C191.368 94.1011 193.038 93.7861 194.942 93.7861C196.626 93.7861 198.135 94.0571 199.468 94.5991C200.801 95.1411 201.929 95.9175 202.852 96.9282C203.79 97.939 204.5 99.1621 204.983 100.598C205.481 102.033 205.73 103.645 205.73 105.432V108.442H186.307V103.806H198.501V103.234C198.516 102.443 198.377 101.77 198.084 101.213C197.806 100.656 197.396 100.231 196.854 99.9385C196.312 99.6455 195.652 99.499 194.876 99.499C194.07 99.499 193.404 99.6748 192.876 100.026C192.364 100.378 191.961 100.861 191.668 101.477C191.39 102.077 191.192 102.773 191.075 103.564C190.958 104.355 190.899 105.19 190.899 106.069V106.904C190.899 107.783 191.016 108.581 191.25 109.299C191.5 110.017 191.851 110.632 192.305 111.145C192.774 111.643 193.331 112.031 193.975 112.309C194.634 112.587 195.381 112.727 196.216 112.727C197.227 112.727 198.223 112.536 199.205 112.155C200.186 111.774 201.028 111.145 201.731 110.266L205.093 114.265C204.61 114.953 203.921 115.62 203.028 116.264C202.149 116.909 201.094 117.436 199.864 117.846C198.633 118.242 197.256 118.439 195.733 118.439ZM216.211 99.2573V118H208.807V94.2256H215.75L216.211 99.2573ZM215.311 105.3L213.619 105.344C213.619 103.674 213.816 102.136 214.212 100.729C214.607 99.3232 215.193 98.1001 215.97 97.0601C216.746 96.02 217.698 95.2144 218.826 94.6431C219.969 94.0718 221.287 93.7861 222.781 93.7861C223.821 93.7861 224.766 93.9473 225.616 94.2695C226.465 94.5771 227.198 95.0679 227.813 95.7417C228.428 96.4009 228.897 97.2651 229.219 98.3345C229.556 99.3892 229.725 100.656 229.725 102.136V118H222.32V103.081C222.32 102.07 222.203 101.308 221.968 100.795C221.749 100.283 221.426 99.9385 221.001 99.7627C220.577 99.5869 220.057 99.499 219.441 99.499C218.797 99.499 218.218 99.6455 217.706 99.9385C217.193 100.231 216.753 100.642 216.387 101.169C216.036 101.682 215.765 102.29 215.574 102.993C215.398 103.696 215.311 104.465 215.311 105.3ZM228.89 105.3L226.824 105.344C226.824 103.674 227.007 102.136 227.374 100.729C227.754 99.3232 228.318 98.1001 229.065 97.0601C229.827 96.02 230.772 95.2144 231.9 94.6431C233.028 94.0718 234.339 93.7861 235.833 93.7861C236.917 93.7861 237.913 93.9473 238.821 94.2695C239.729 94.5918 240.513 95.1118 241.172 95.8296C241.832 96.5474 242.344 97.4995 242.71 98.686C243.077 99.8579 243.26 101.308 243.26 103.037V118H235.833V103.037C235.833 102.055 235.716 101.315 235.481 100.817C235.262 100.305 234.939 99.9604 234.515 99.7847C234.09 99.5942 233.584 99.499 232.999 99.499C232.295 99.499 231.688 99.6455 231.175 99.9385C230.662 100.231 230.23 100.642 229.878 101.169C229.542 101.682 229.292 102.29 229.131 102.993C228.97 103.696 228.89 104.465 228.89 105.3ZM259.014 118.439C257.081 118.439 255.352 118.139 253.829 117.539C252.305 116.923 251.016 116.081 249.961 115.012C248.921 113.942 248.123 112.712 247.566 111.32C247.024 109.929 246.753 108.457 246.753 106.904V106.069C246.753 104.326 246.995 102.714 247.479 101.235C247.962 99.7407 248.68 98.437 249.632 97.3237C250.584 96.2104 251.778 95.3462 253.213 94.731C254.649 94.1011 256.319 93.7861 258.223 93.7861C259.908 93.7861 261.417 94.0571 262.75 94.5991C264.083 95.1411 265.21 95.9175 266.133 96.9282C267.071 97.939 267.781 99.1621 268.265 100.598C268.763 102.033 269.012 103.645 269.012 105.432V108.442H249.588V103.806H261.783V103.234C261.797 102.443 261.658 101.77 261.365 101.213C261.087 100.656 260.677 100.231 260.135 99.9385C259.593 99.6455 258.934 99.499 258.157 99.499C257.352 99.499 256.685 99.6748 256.158 100.026C255.645 100.378 255.242 100.861 254.949 101.477C254.671 102.077 254.473 102.773 254.356 103.564C254.239 104.355 254.18 105.19 254.18 106.069V106.904C254.18 107.783 254.297 108.581 254.532 109.299C254.781 110.017 255.132 110.632 255.586 111.145C256.055 111.643 256.612 112.031 257.256 112.309C257.916 112.587 258.663 112.727 259.498 112.727C260.508 112.727 261.504 112.536 262.486 112.155C263.467 111.774 264.31 111.145 265.013 110.266L268.375 114.265C267.891 114.953 267.203 115.62 266.309 116.264C265.43 116.909 264.375 117.436 263.145 117.846C261.915 118.242 260.538 118.439 259.014 118.439ZM279.295 99.3013V118H271.89V94.2256H278.833L279.295 99.3013ZM278.416 105.3L276.68 105.344C276.68 103.527 276.9 101.909 277.339 100.488C277.779 99.0522 278.401 97.8364 279.207 96.8403C280.013 95.8442 280.972 95.0898 282.085 94.5771C283.213 94.0498 284.466 93.7861 285.843 93.7861C286.941 93.7861 287.945 93.9473 288.853 94.2695C289.776 94.5918 290.567 95.1118 291.226 95.8296C291.9 96.5474 292.413 97.4995 292.764 98.686C293.13 99.8579 293.313 101.308 293.313 103.037V118H285.865V103.015C285.865 102.062 285.733 101.337 285.469 100.839C285.206 100.327 284.825 99.9751 284.327 99.7847C283.829 99.5942 283.221 99.499 282.503 99.499C281.741 99.499 281.097 99.6455 280.569 99.9385C280.042 100.231 279.617 100.642 279.295 101.169C278.987 101.682 278.76 102.29 278.614 102.993C278.482 103.696 278.416 104.465 278.416 105.3ZM309.947 94.2256V99.3672H295.621V94.2256H309.947ZM298.631 88.3149H306.036V110.244C306.036 110.874 306.109 111.364 306.255 111.716C306.402 112.053 306.651 112.294 307.002 112.441C307.369 112.573 307.852 112.639 308.453 112.639C308.877 112.639 309.229 112.631 309.507 112.617C309.786 112.587 310.049 112.551 310.298 112.507V117.802C309.668 118.007 309.009 118.161 308.321 118.264C307.632 118.381 306.9 118.439 306.124 118.439C304.542 118.439 303.187 118.19 302.059 117.692C300.945 117.194 300.096 116.411 299.51 115.341C298.924 114.272 298.631 112.88 298.631 111.167V88.3149ZM325.24 112.023V102.224C325.24 101.55 325.145 100.971 324.954 100.488C324.764 100.004 324.463 99.6309 324.053 99.3672C323.643 99.0889 323.094 98.9497 322.405 98.9497C321.849 98.9497 321.373 99.0449 320.977 99.2354C320.582 99.4258 320.281 99.7114 320.076 100.092C319.871 100.473 319.769 100.957 319.769 101.542H312.364C312.364 100.444 312.605 99.4258 313.089 98.4883C313.587 97.5361 314.29 96.7085 315.198 96.0054C316.121 95.3022 317.22 94.7603 318.494 94.3794C319.783 93.9839 321.219 93.7861 322.801 93.7861C324.69 93.7861 326.375 94.1011 327.854 94.731C329.349 95.3608 330.528 96.3057 331.392 97.5654C332.256 98.8105 332.688 100.378 332.688 102.268V112.001C332.688 113.554 332.776 114.733 332.952 115.539C333.128 116.33 333.377 117.026 333.699 117.626V118H326.272C325.921 117.268 325.657 116.374 325.481 115.319C325.32 114.25 325.24 113.151 325.24 112.023ZM326.141 103.476L326.185 107.431H322.911C322.222 107.431 321.636 107.526 321.153 107.717C320.684 107.907 320.303 108.171 320.01 108.508C319.732 108.83 319.527 109.196 319.395 109.606C319.278 110.017 319.219 110.449 319.219 110.903C319.219 111.342 319.322 111.738 319.527 112.089C319.747 112.426 320.04 112.69 320.406 112.88C320.772 113.071 321.182 113.166 321.636 113.166C322.457 113.166 323.152 113.012 323.724 112.705C324.31 112.382 324.756 111.994 325.064 111.54C325.372 111.086 325.525 110.661 325.525 110.266L327.151 113.298C326.858 113.884 326.521 114.477 326.141 115.078C325.774 115.678 325.313 116.235 324.756 116.748C324.214 117.246 323.548 117.656 322.757 117.978C321.966 118.286 321.006 118.439 319.878 118.439C318.414 118.439 317.066 118.139 315.835 117.539C314.62 116.938 313.646 116.103 312.913 115.034C312.181 113.95 311.814 112.705 311.814 111.298C311.814 110.068 312.034 108.969 312.474 108.002C312.928 107.036 313.609 106.215 314.517 105.542C315.425 104.868 316.583 104.355 317.989 104.003C319.395 103.652 321.05 103.476 322.955 103.476H326.141ZM349.322 94.2256V99.3672H334.996V94.2256H349.322ZM338.006 88.3149H345.411V110.244C345.411 110.874 345.484 111.364 345.63 111.716C345.777 112.053 346.026 112.294 346.377 112.441C346.744 112.573 347.227 112.639 347.828 112.639C348.252 112.639 348.604 112.631 348.882 112.617C349.161 112.587 349.424 112.551 349.673 112.507V117.802C349.043 118.007 348.384 118.161 347.696 118.264C347.007 118.381 346.275 118.439 345.499 118.439C343.917 118.439 342.562 118.19 341.434 117.692C340.32 117.194 339.471 116.411 338.885 115.341C338.299 114.272 338.006 112.88 338.006 111.167V88.3149ZM360.088 94.2256V118H352.662V94.2256H360.088ZM352.222 88.0952C352.222 87.0405 352.603 86.1763 353.365 85.5024C354.126 84.8286 355.115 84.4917 356.331 84.4917C357.547 84.4917 358.536 84.8286 359.297 85.5024C360.059 86.1763 360.44 87.0405 360.44 88.0952C360.44 89.1499 360.059 90.0142 359.297 90.688C358.536 91.3618 357.547 91.6987 356.331 91.6987C355.115 91.6987 354.126 91.3618 353.365 90.688C352.603 90.0142 352.222 89.1499 352.222 88.0952ZM363.736 106.354V105.893C363.736 104.15 363.985 102.546 364.483 101.081C364.981 99.6016 365.713 98.3198 366.68 97.2358C367.647 96.1519 368.841 95.3096 370.262 94.709C371.683 94.0938 373.323 93.7861 375.184 93.7861C377.059 93.7861 378.707 94.0938 380.127 94.709C381.563 95.3096 382.764 96.1519 383.731 97.2358C384.698 98.3198 385.43 99.6016 385.928 101.081C386.426 102.546 386.675 104.15 386.675 105.893V106.354C386.675 108.083 386.426 109.687 385.928 111.167C385.43 112.631 384.698 113.913 383.731 115.012C382.764 116.096 381.57 116.938 380.149 117.539C378.729 118.139 377.088 118.439 375.228 118.439C373.367 118.439 371.719 118.139 370.284 117.539C368.848 116.938 367.647 116.096 366.68 115.012C365.713 113.913 364.981 112.631 364.483 111.167C363.985 109.687 363.736 108.083 363.736 106.354ZM371.141 105.893V106.354C371.141 107.248 371.207 108.083 371.338 108.859C371.47 109.636 371.69 110.317 371.998 110.903C372.305 111.474 372.723 111.921 373.25 112.243C373.777 112.565 374.437 112.727 375.228 112.727C376.004 112.727 376.648 112.565 377.161 112.243C377.688 111.921 378.106 111.474 378.414 110.903C378.721 110.317 378.941 109.636 379.073 108.859C379.205 108.083 379.271 107.248 379.271 106.354V105.893C379.271 105.029 379.205 104.216 379.073 103.454C378.941 102.678 378.721 101.997 378.414 101.411C378.106 100.81 377.688 100.341 377.161 100.004C376.634 99.6675 375.975 99.499 375.184 99.499C374.407 99.499 373.755 99.6675 373.228 100.004C372.715 100.341 372.305 100.81 371.998 101.411C371.69 101.997 371.47 102.678 371.338 103.454C371.207 104.216 371.141 105.029 371.141 105.893ZM397.244 99.3013V118H389.839V94.2256H396.783L397.244 99.3013ZM396.365 105.3L394.629 105.344C394.629 103.527 394.849 101.909 395.289 100.488C395.728 99.0522 396.351 97.8364 397.156 96.8403C397.962 95.8442 398.921 95.0898 400.035 94.5771C401.163 94.0498 402.415 93.7861 403.792 93.7861C404.891 93.7861 405.894 93.9473 406.802 94.2695C407.725 94.5918 408.516 95.1118 409.175 95.8296C409.849 96.5474 410.362 97.4995 410.713 98.686C411.08 99.8579 411.263 101.308 411.263 103.037V118H403.814V103.015C403.814 102.062 403.682 101.337 403.418 100.839C403.155 100.327 402.774 99.9751 402.276 99.7847C401.778 99.5942 401.17 99.499 400.452 99.499C399.69 99.499 399.046 99.6455 398.519 99.9385C397.991 100.231 397.566 100.642 397.244 101.169C396.937 101.682 396.709 102.29 396.563 102.993C396.431 103.696 396.365 104.465 396.365 105.3Z" fill="#424241"/>
<path d="M1363 15C1363 6.71573 1356.28 0 1348 0H1134V167H1348C1356.28 167 1363 160.284 1363 152V15Z" fill="#022E7A"/>
<path d="M1281.5 49H1216.5L1214 51.5V116.5L1216.5 119H1281.5L1284 116.5V51.5L1281.5 49ZM1279 114H1234V104H1245.5C1247 107 1250.5 109 1254 109C1259.5 109 1264 104.5 1264 99C1264 93.5 1259.5 89 1254 89C1248.5 89 1244 93.5 1244 99H1229V114H1219V54H1229V65.5C1226 67 1224 70.5 1224 74C1224 79.5 1228.5 84 1234 84C1239.5 84 1244 79.5 1244 74H1254C1254 79.5 1258.5 84 1264 84C1269.5 84 1274 79.5 1274 74C1274 68.5 1269.5 64 1264 64C1260.5 64 1257 66 1255.5 69H1242.5C1241 66 1237.5 64 1234 64V54H1279V114ZM1249 99C1249 96 1251 94 1254 94C1257 94 1259 96 1259 99C1259 102 1257 104 1254 104C1251 104 1249 102 1249 99ZM1234 69C1237 69 1239 71 1239 74C1239 77 1237 79 1234 79C1231 79 1229 77 1229 74C1229 71 1231 69 1234 69ZM1264 69C1267 69 1269 71 1269 74C1269 77 1267 79 1264 79C1261 79 1259 77 1259 74C1259 71 1261 69 1264 69Z" fill="white"/>
</svg>
