<svg width="1363" height="167" viewBox="0 0 1363 167" fill="none" xmlns="http://www.w3.org/2000/svg">
<rect width="1363" height="167" rx="15" fill="#F0F0F0"/>
<path d="M0 15C0 6.71573 6.71573 0 15 0H37V167H15C6.71573 167 0 160.284 0 152V15Z" fill="#424241"/>
<path d="M100.906 54.9219L93.3945 52.2383V49.0859L103.602 53.375V55.6367L100.906 54.9219ZM93.3945 57.1719L100.918 54.4297L103.602 53.7852V56.0352L93.3945 60.3242V57.1719ZM121.789 56.3398H125.293C125.223 57.4883 124.906 58.5078 124.344 59.3984C123.789 60.2891 123.012 60.9844 122.012 61.4844C121.02 61.9844 119.824 62.2344 118.426 62.2344C117.332 62.2344 116.352 62.0469 115.484 61.6719C114.617 61.2891 113.875 60.7422 113.258 60.0312C112.648 59.3203 112.184 58.4609 111.863 57.4531C111.543 56.4453 111.383 55.3164 111.383 54.0664V52.8828C111.383 51.6328 111.547 50.5039 111.875 49.4961C112.211 48.4805 112.688 47.6172 113.305 46.9062C113.93 46.1953 114.676 45.6484 115.543 45.2656C116.41 44.8828 117.379 44.6914 118.449 44.6914C119.871 44.6914 121.07 44.9492 122.047 45.4648C123.031 45.9805 123.793 46.6914 124.332 47.5977C124.879 48.5039 125.207 49.5352 125.316 50.6914H121.801C121.762 50.0039 121.625 49.4219 121.391 48.9453C121.156 48.4609 120.801 48.0977 120.324 47.8555C119.855 47.6055 119.23 47.4805 118.449 47.4805C117.863 47.4805 117.352 47.5898 116.914 47.8086C116.477 48.0273 116.109 48.3594 115.812 48.8047C115.516 49.25 115.293 49.8125 115.145 50.4922C115.004 51.1641 114.934 51.9531 114.934 52.8594V54.0664C114.934 54.9492 115 55.7266 115.133 56.3984C115.266 57.0625 115.469 57.625 115.742 58.0859C116.023 58.5391 116.383 58.8828 116.82 59.1172C117.266 59.3438 117.801 59.457 118.426 59.457C119.16 59.457 119.766 59.3398 120.242 59.1055C120.719 58.8711 121.082 58.5234 121.332 58.0625C121.59 57.6016 121.742 57.0273 121.789 56.3398ZM126.852 55.7891V55.543C126.852 54.6133 126.984 53.7578 127.25 52.9766C127.516 52.1875 127.902 51.5039 128.41 50.9258C128.918 50.3477 129.543 49.8984 130.285 49.5781C131.027 49.25 131.879 49.0859 132.84 49.0859C133.801 49.0859 134.656 49.25 135.406 49.5781C136.156 49.8984 136.785 50.3477 137.293 50.9258C137.809 51.5039 138.199 52.1875 138.465 52.9766C138.73 53.7578 138.863 54.6133 138.863 55.543V55.7891C138.863 56.7109 138.73 57.5664 138.465 58.3555C138.199 59.1367 137.809 59.8203 137.293 60.4062C136.785 60.9844 136.16 61.4336 135.418 61.7539C134.676 62.0742 133.824 62.2344 132.863 62.2344C131.902 62.2344 131.047 62.0742 130.297 61.7539C129.555 61.4336 128.926 60.9844 128.41 60.4062C127.902 59.8203 127.516 59.1367 127.25 58.3555C126.984 57.5664 126.852 56.7109 126.852 55.7891ZM130.227 55.543V55.7891C130.227 56.3203 130.273 56.8164 130.367 57.2773C130.461 57.7383 130.609 58.1445 130.812 58.4961C131.023 58.8398 131.297 59.1094 131.633 59.3047C131.969 59.5 132.379 59.5977 132.863 59.5977C133.332 59.5977 133.734 59.5 134.07 59.3047C134.406 59.1094 134.676 58.8398 134.879 58.4961C135.082 58.1445 135.23 57.7383 135.324 57.2773C135.426 56.8164 135.477 56.3203 135.477 55.7891V55.543C135.477 55.0273 135.426 54.543 135.324 54.0898C135.23 53.6289 135.078 53.2227 134.867 52.8711C134.664 52.5117 134.395 52.2305 134.059 52.0273C133.723 51.8242 133.316 51.7227 132.84 51.7227C132.363 51.7227 131.957 51.8242 131.621 52.0273C131.293 52.2305 131.023 52.5117 130.812 52.8711C130.609 53.2227 130.461 53.6289 130.367 54.0898C130.273 54.543 130.227 55.0273 130.227 55.543ZM144.242 52.0273V62H140.867V49.3203H144.031L144.242 52.0273ZM143.75 55.2148H142.836C142.836 54.2773 142.957 53.4336 143.199 52.6836C143.441 51.9258 143.781 51.2812 144.219 50.75C144.656 50.2109 145.176 49.8008 145.777 49.5195C146.387 49.2305 147.066 49.0859 147.816 49.0859C148.41 49.0859 148.953 49.1719 149.445 49.3438C149.938 49.5156 150.359 49.7891 150.711 50.1641C151.07 50.5391 151.344 51.0352 151.531 51.6523C151.727 52.2695 151.824 53.0234 151.824 53.9141V62H148.426V53.9023C148.426 53.3398 148.348 52.9023 148.191 52.5898C148.035 52.2773 147.805 52.0586 147.5 51.9336C147.203 51.8008 146.836 51.7344 146.398 51.7344C145.945 51.7344 145.551 51.8242 145.215 52.0039C144.887 52.1836 144.613 52.4336 144.395 52.7539C144.184 53.0664 144.023 53.4336 143.914 53.8555C143.805 54.2773 143.75 54.7305 143.75 55.2148ZM161.246 58.4961C161.246 58.2539 161.176 58.0352 161.035 57.8398C160.895 57.6445 160.633 57.4648 160.25 57.3008C159.875 57.1289 159.332 56.9727 158.621 56.832C157.98 56.6914 157.383 56.5156 156.828 56.3047C156.281 56.0859 155.805 55.8242 155.398 55.5195C155 55.2148 154.688 54.8555 154.461 54.4414C154.234 54.0195 154.121 53.5391 154.121 53C154.121 52.4688 154.234 51.9688 154.461 51.5C154.695 51.0312 155.027 50.6172 155.457 50.2578C155.895 49.8906 156.426 49.6055 157.051 49.4023C157.684 49.1914 158.395 49.0859 159.184 49.0859C160.285 49.0859 161.23 49.2617 162.02 49.6133C162.816 49.9648 163.426 50.4492 163.848 51.0664C164.277 51.6758 164.492 52.3711 164.492 53.1523H161.117C161.117 52.8242 161.047 52.5312 160.906 52.2734C160.773 52.0078 160.562 51.8008 160.273 51.6523C159.992 51.4961 159.625 51.418 159.172 51.418C158.797 51.418 158.473 51.4844 158.199 51.6172C157.926 51.7422 157.715 51.9141 157.566 52.1328C157.426 52.3438 157.355 52.5781 157.355 52.8359C157.355 53.0312 157.395 53.207 157.473 53.3633C157.559 53.5117 157.695 53.6484 157.883 53.7734C158.07 53.8984 158.312 54.0156 158.609 54.125C158.914 54.2266 159.289 54.3203 159.734 54.4062C160.648 54.5938 161.465 54.8398 162.184 55.1445C162.902 55.4414 163.473 55.8477 163.895 56.3633C164.316 56.8711 164.527 57.5391 164.527 58.3672C164.527 58.9297 164.402 59.4453 164.152 59.9141C163.902 60.3828 163.543 60.793 163.074 61.1445C162.605 61.4883 162.043 61.7578 161.387 61.9531C160.738 62.1406 160.008 62.2344 159.195 62.2344C158.016 62.2344 157.016 62.0234 156.195 61.6016C155.383 61.1797 154.766 60.6445 154.344 59.9961C153.93 59.3398 153.723 58.668 153.723 57.9805H156.922C156.938 58.4414 157.055 58.8125 157.273 59.0938C157.5 59.375 157.785 59.5781 158.129 59.7031C158.48 59.8281 158.859 59.8906 159.266 59.8906C159.703 59.8906 160.066 59.832 160.355 59.7148C160.645 59.5898 160.863 59.4258 161.012 59.2227C161.168 59.0117 161.246 58.7695 161.246 58.4961ZM174.219 58.9648V49.3203H177.594V62H174.418L174.219 58.9648ZM174.594 56.3633L175.59 56.3398C175.59 57.1836 175.492 57.9688 175.297 58.6953C175.102 59.4141 174.809 60.0391 174.418 60.5703C174.027 61.0938 173.535 61.5039 172.941 61.8008C172.348 62.0898 171.648 62.2344 170.844 62.2344C170.227 62.2344 169.656 62.1484 169.133 61.9766C168.617 61.7969 168.172 61.5195 167.797 61.1445C167.43 60.7617 167.141 60.2734 166.93 59.6797C166.727 59.0781 166.625 58.3555 166.625 57.5117V49.3203H170V57.5352C170 57.9102 170.043 58.2266 170.129 58.4844C170.223 58.7422 170.352 58.9531 170.516 59.1172C170.68 59.2812 170.871 59.3984 171.09 59.4688C171.316 59.5391 171.566 59.5742 171.84 59.5742C172.535 59.5742 173.082 59.4336 173.48 59.1523C173.887 58.8711 174.172 58.4883 174.336 58.0039C174.508 57.5117 174.594 56.9648 174.594 56.3633ZM183.734 44V62H180.348V44H183.734ZM192.734 49.3203V51.7109H185.352V49.3203H192.734ZM187.18 46.1914H190.555V58.1797C190.555 58.5469 190.602 58.8281 190.695 59.0234C190.797 59.2188 190.945 59.3555 191.141 59.4336C191.336 59.5039 191.582 59.5391 191.879 59.5391C192.09 59.5391 192.277 59.5312 192.441 59.5156C192.613 59.4922 192.758 59.4688 192.875 59.4453L192.887 61.9297C192.598 62.0234 192.285 62.0977 191.949 62.1523C191.613 62.207 191.242 62.2344 190.836 62.2344C190.094 62.2344 189.445 62.1133 188.891 61.8711C188.344 61.6211 187.922 61.2227 187.625 60.6758C187.328 60.1289 187.18 59.4102 187.18 58.5195V46.1914ZM207.477 59.1406V53.4922C207.477 53.0859 207.41 52.7383 207.277 52.4492C207.145 52.1523 206.938 51.9219 206.656 51.7578C206.383 51.5938 206.027 51.5117 205.59 51.5117C205.215 51.5117 204.891 51.5781 204.617 51.7109C204.344 51.8359 204.133 52.0195 203.984 52.2617C203.836 52.4961 203.762 52.7734 203.762 53.0938H200.387C200.387 52.5547 200.512 52.043 200.762 51.5586C201.012 51.0742 201.375 50.6484 201.852 50.2812C202.328 49.9062 202.895 49.6133 203.551 49.4023C204.215 49.1914 204.957 49.0859 205.777 49.0859C206.762 49.0859 207.637 49.25 208.402 49.5781C209.168 49.9062 209.77 50.3984 210.207 51.0547C210.652 51.7109 210.875 52.5312 210.875 53.5156V58.9414C210.875 59.6367 210.918 60.207 211.004 60.6523C211.09 61.0898 211.215 61.4727 211.379 61.8008V62H207.969C207.805 61.6562 207.68 61.2266 207.594 60.7109C207.516 60.1875 207.477 59.6641 207.477 59.1406ZM207.922 54.2773L207.945 56.1875H206.059C205.613 56.1875 205.227 56.2383 204.898 56.3398C204.57 56.4414 204.301 56.5859 204.09 56.7734C203.879 56.9531 203.723 57.1641 203.621 57.4062C203.527 57.6484 203.48 57.9141 203.48 58.2031C203.48 58.4922 203.547 58.7539 203.68 58.9883C203.812 59.2148 204.004 59.3945 204.254 59.5273C204.504 59.6523 204.797 59.7148 205.133 59.7148C205.641 59.7148 206.082 59.6133 206.457 59.4102C206.832 59.207 207.121 58.957 207.324 58.6602C207.535 58.3633 207.645 58.082 207.652 57.8164L208.543 59.2461C208.418 59.5664 208.246 59.8984 208.027 60.2422C207.816 60.5859 207.547 60.9102 207.219 61.2148C206.891 61.5117 206.496 61.7578 206.035 61.9531C205.574 62.1406 205.027 62.2344 204.395 62.2344C203.59 62.2344 202.859 62.0742 202.203 61.7539C201.555 61.4258 201.039 60.9766 200.656 60.4062C200.281 59.8281 200.094 59.1719 200.094 58.4375C200.094 57.7734 200.219 57.1836 200.469 56.668C200.719 56.1523 201.086 55.7188 201.57 55.3672C202.062 55.0078 202.676 54.7383 203.41 54.5586C204.145 54.3711 204.996 54.2773 205.965 54.2773H207.922ZM224.902 62H221.188L221.211 59.2578H224.902C225.824 59.2578 226.602 59.0508 227.234 58.6367C227.867 58.2148 228.344 57.6016 228.664 56.7969C228.992 55.9922 229.156 55.0195 229.156 53.8789V53.0469C229.156 52.1719 229.062 51.4023 228.875 50.7383C228.695 50.0742 228.426 49.5156 228.066 49.0625C227.707 48.6094 227.266 48.2695 226.742 48.043C226.219 47.8086 225.617 47.6914 224.938 47.6914H221.117V44.9375H224.938C226.078 44.9375 227.121 45.1328 228.066 45.5234C229.02 45.9062 229.844 46.457 230.539 47.1758C231.234 47.8945 231.77 48.7539 232.145 49.7539C232.527 50.7461 232.719 51.8516 232.719 53.0703V53.8789C232.719 55.0898 232.527 56.1953 232.145 57.1953C231.77 58.1953 231.234 59.0547 230.539 59.7734C229.852 60.4844 229.027 61.0352 228.066 61.4258C227.113 61.8086 226.059 62 224.902 62ZM223.18 44.9375V62H219.664V44.9375H223.18ZM234.523 55.7891V55.543C234.523 54.6133 234.656 53.7578 234.922 52.9766C235.188 52.1875 235.574 51.5039 236.082 50.9258C236.59 50.3477 237.215 49.8984 237.957 49.5781C238.699 49.25 239.551 49.0859 240.512 49.0859C241.473 49.0859 242.328 49.25 243.078 49.5781C243.828 49.8984 244.457 50.3477 244.965 50.9258C245.48 51.5039 245.871 52.1875 246.137 52.9766C246.402 53.7578 246.535 54.6133 246.535 55.543V55.7891C246.535 56.7109 246.402 57.5664 246.137 58.3555C245.871 59.1367 245.48 59.8203 244.965 60.4062C244.457 60.9844 243.832 61.4336 243.09 61.7539C242.348 62.0742 241.496 62.2344 240.535 62.2344C239.574 62.2344 238.719 62.0742 237.969 61.7539C237.227 61.4336 236.598 60.9844 236.082 60.4062C235.574 59.8203 235.188 59.1367 234.922 58.3555C234.656 57.5664 234.523 56.7109 234.523 55.7891ZM237.898 55.543V55.7891C237.898 56.3203 237.945 56.8164 238.039 57.2773C238.133 57.7383 238.281 58.1445 238.484 58.4961C238.695 58.8398 238.969 59.1094 239.305 59.3047C239.641 59.5 240.051 59.5977 240.535 59.5977C241.004 59.5977 241.406 59.5 241.742 59.3047C242.078 59.1094 242.348 58.8398 242.551 58.4961C242.754 58.1445 242.902 57.7383 242.996 57.2773C243.098 56.8164 243.148 56.3203 243.148 55.7891V55.543C243.148 55.0273 243.098 54.543 242.996 54.0898C242.902 53.6289 242.75 53.2227 242.539 52.8711C242.336 52.5117 242.066 52.2305 241.73 52.0273C241.395 51.8242 240.988 51.7227 240.512 51.7227C240.035 51.7227 239.629 51.8242 239.293 52.0273C238.965 52.2305 238.695 52.5117 238.484 52.8711C238.281 53.2227 238.133 53.6289 238.039 54.0898C237.945 54.543 237.898 55.0273 237.898 55.543ZM253.848 59.5977C254.262 59.5977 254.629 59.5195 254.949 59.3633C255.27 59.1992 255.52 58.9727 255.699 58.6836C255.887 58.3867 255.984 58.0391 255.992 57.6406H259.168C259.16 58.5312 258.922 59.3242 258.453 60.0195C257.984 60.707 257.355 61.25 256.566 61.6484C255.777 62.0391 254.895 62.2344 253.918 62.2344C252.934 62.2344 252.074 62.0703 251.34 61.7422C250.613 61.4141 250.008 60.9609 249.523 60.3828C249.039 59.7969 248.676 59.1172 248.434 58.3438C248.191 57.5625 248.07 56.7266 248.07 55.8359V55.4961C248.07 54.5977 248.191 53.7617 248.434 52.9883C248.676 52.207 249.039 51.5273 249.523 50.9492C250.008 50.3633 250.613 49.9062 251.34 49.5781C252.066 49.25 252.918 49.0859 253.895 49.0859C254.934 49.0859 255.844 49.2852 256.625 49.6836C257.414 50.082 258.031 50.6523 258.477 51.3945C258.93 52.1289 259.16 53 259.168 54.0078H255.992C255.984 53.5859 255.895 53.2031 255.723 52.8594C255.559 52.5156 255.316 52.2422 254.996 52.0391C254.684 51.8281 254.297 51.7227 253.836 51.7227C253.344 51.7227 252.941 51.8281 252.629 52.0391C252.316 52.2422 252.074 52.5234 251.902 52.8828C251.73 53.2344 251.609 53.6367 251.539 54.0898C251.477 54.5352 251.445 55.0039 251.445 55.4961V55.8359C251.445 56.3281 251.477 56.8008 251.539 57.2539C251.602 57.707 251.719 58.1094 251.891 58.4609C252.07 58.8125 252.316 59.0898 252.629 59.293C252.941 59.4961 253.348 59.5977 253.848 59.5977ZM267.336 49.3203V51.7109H259.953V49.3203H267.336ZM261.781 46.1914H265.156V58.1797C265.156 58.5469 265.203 58.8281 265.297 59.0234C265.398 59.2188 265.547 59.3555 265.742 59.4336C265.938 59.5039 266.184 59.5391 266.48 59.5391C266.691 59.5391 266.879 59.5312 267.043 59.5156C267.215 59.4922 267.359 59.4688 267.477 59.4453L267.488 61.9297C267.199 62.0234 266.887 62.0977 266.551 62.1523C266.215 62.207 265.844 62.2344 265.438 62.2344C264.695 62.2344 264.047 62.1133 263.492 61.8711C262.945 61.6211 262.523 61.2227 262.227 60.6758C261.93 60.1289 261.781 59.4102 261.781 58.5195V46.1914ZM268.414 55.7891V55.543C268.414 54.6133 268.547 53.7578 268.812 52.9766C269.078 52.1875 269.465 51.5039 269.973 50.9258C270.48 50.3477 271.105 49.8984 271.848 49.5781C272.59 49.25 273.441 49.0859 274.402 49.0859C275.363 49.0859 276.219 49.25 276.969 49.5781C277.719 49.8984 278.348 50.3477 278.855 50.9258C279.371 51.5039 279.762 52.1875 280.027 52.9766C280.293 53.7578 280.426 54.6133 280.426 55.543V55.7891C280.426 56.7109 280.293 57.5664 280.027 58.3555C279.762 59.1367 279.371 59.8203 278.855 60.4062C278.348 60.9844 277.723 61.4336 276.98 61.7539C276.238 62.0742 275.387 62.2344 274.426 62.2344C273.465 62.2344 272.609 62.0742 271.859 61.7539C271.117 61.4336 270.488 60.9844 269.973 60.4062C269.465 59.8203 269.078 59.1367 268.812 58.3555C268.547 57.5664 268.414 56.7109 268.414 55.7891ZM271.789 55.543V55.7891C271.789 56.3203 271.836 56.8164 271.93 57.2773C272.023 57.7383 272.172 58.1445 272.375 58.4961C272.586 58.8398 272.859 59.1094 273.195 59.3047C273.531 59.5 273.941 59.5977 274.426 59.5977C274.895 59.5977 275.297 59.5 275.633 59.3047C275.969 59.1094 276.238 58.8398 276.441 58.4961C276.645 58.1445 276.793 57.7383 276.887 57.2773C276.988 56.8164 277.039 56.3203 277.039 55.7891V55.543C277.039 55.0273 276.988 54.543 276.887 54.0898C276.793 53.6289 276.641 53.2227 276.43 52.8711C276.227 52.5117 275.957 52.2305 275.621 52.0273C275.285 51.8242 274.879 51.7227 274.402 51.7227C273.926 51.7227 273.52 51.8242 273.184 52.0273C272.855 52.2305 272.586 52.5117 272.375 52.8711C272.172 53.2227 272.023 53.6289 271.93 54.0898C271.836 54.543 271.789 55.0273 271.789 55.543ZM285.875 52.0859V62H282.5V49.3203H285.676L285.875 52.0859ZM289.695 49.2383L289.637 52.3672C289.473 52.3438 289.273 52.3242 289.039 52.3086C288.812 52.2852 288.605 52.2734 288.418 52.2734C287.941 52.2734 287.527 52.3359 287.176 52.4609C286.832 52.5781 286.543 52.7539 286.309 52.9883C286.082 53.2227 285.91 53.5078 285.793 53.8438C285.684 54.1797 285.621 54.5625 285.605 54.9922L284.926 54.7812C284.926 53.9609 285.008 53.207 285.172 52.5195C285.336 51.8242 285.574 51.2188 285.887 50.7031C286.207 50.1875 286.598 49.7891 287.059 49.5078C287.52 49.2266 288.047 49.0859 288.641 49.0859C288.828 49.0859 289.02 49.1016 289.215 49.1328C289.41 49.1562 289.57 49.1914 289.695 49.2383Z" fill="#888888"/>
<path d="M109.93 86.0078V118H102.217V86.0078H109.93ZM119.554 86.0078V91.9624H92.813V86.0078H119.554ZM132.012 118.439C130.079 118.439 128.35 118.139 126.827 117.539C125.303 116.923 124.014 116.081 122.959 115.012C121.919 113.942 121.121 112.712 120.564 111.32C120.022 109.929 119.751 108.457 119.751 106.904V106.069C119.751 104.326 119.993 102.714 120.477 101.235C120.96 99.7407 121.678 98.437 122.63 97.3237C123.582 96.2104 124.776 95.3462 126.211 94.731C127.647 94.1011 129.317 93.7861 131.221 93.7861C132.906 93.7861 134.415 94.0571 135.748 94.5991C137.081 95.1411 138.208 95.9175 139.131 96.9282C140.069 97.939 140.779 99.1621 141.263 100.598C141.761 102.033 142.01 103.645 142.01 105.432V108.442H122.586V103.806H134.781V103.234C134.795 102.443 134.656 101.77 134.363 101.213C134.085 100.656 133.675 100.231 133.133 99.9385C132.591 99.6455 131.932 99.499 131.155 99.499C130.35 99.499 129.683 99.6748 129.156 100.026C128.643 100.378 128.24 100.861 127.947 101.477C127.669 102.077 127.471 102.773 127.354 103.564C127.237 104.355 127.178 105.19 127.178 106.069V106.904C127.178 107.783 127.295 108.581 127.53 109.299C127.779 110.017 128.13 110.632 128.584 111.145C129.053 111.643 129.61 112.031 130.254 112.309C130.914 112.587 131.661 112.727 132.496 112.727C133.506 112.727 134.502 112.536 135.484 112.155C136.465 111.774 137.308 111.145 138.011 110.266L141.373 114.265C140.889 114.953 140.201 115.62 139.307 116.264C138.428 116.909 137.374 117.436 136.143 117.846C134.913 118.242 133.536 118.439 132.012 118.439ZM155.062 112.727C155.75 112.727 156.336 112.602 156.819 112.353C157.317 112.089 157.691 111.723 157.94 111.254C158.204 110.771 158.328 110.192 158.313 109.519H165.279C165.293 111.306 164.854 112.873 163.96 114.221C163.082 115.554 161.88 116.594 160.357 117.341C158.848 118.073 157.142 118.439 155.237 118.439C153.377 118.439 151.751 118.139 150.359 117.539C148.968 116.923 147.803 116.074 146.866 114.99C145.943 113.891 145.247 112.609 144.778 111.145C144.324 109.68 144.097 108.09 144.097 106.376V105.871C144.097 104.157 144.324 102.568 144.778 101.103C145.247 99.6235 145.943 98.3418 146.866 97.2578C147.803 96.1592 148.96 95.3096 150.337 94.709C151.729 94.0938 153.348 93.7861 155.193 93.7861C157.171 93.7861 158.914 94.1597 160.423 94.9067C161.946 95.6538 163.14 96.7378 164.004 98.1587C164.869 99.5796 165.293 101.301 165.279 103.322H158.313C158.328 102.604 158.218 101.96 157.984 101.389C157.75 100.817 157.383 100.363 156.885 100.026C156.402 99.6748 155.779 99.499 155.018 99.499C154.256 99.499 153.641 99.6675 153.172 100.004C152.703 100.341 152.344 100.81 152.095 101.411C151.861 101.997 151.7 102.67 151.612 103.432C151.539 104.194 151.502 105.007 151.502 105.871V106.376C151.502 107.255 151.539 108.083 151.612 108.859C151.7 109.621 151.868 110.295 152.117 110.881C152.366 111.452 152.725 111.906 153.194 112.243C153.663 112.565 154.285 112.727 155.062 112.727ZM175.694 84.25V118H168.289V84.25H175.694ZM174.815 105.3L173.079 105.344C173.079 103.674 173.284 102.136 173.694 100.729C174.104 99.3232 174.69 98.1001 175.452 97.0601C176.214 96.02 177.129 95.2144 178.199 94.6431C179.268 94.0718 180.455 93.7861 181.758 93.7861C182.93 93.7861 184 93.9546 184.966 94.2915C185.948 94.6284 186.79 95.1704 187.493 95.9175C188.211 96.6646 188.76 97.6387 189.141 98.8398C189.537 100.041 189.734 101.506 189.734 103.234V118H182.286V103.19C182.286 102.224 182.146 101.477 181.868 100.949C181.604 100.407 181.224 100.034 180.726 99.8286C180.228 99.6089 179.62 99.499 178.902 99.499C178.038 99.499 177.334 99.6455 176.792 99.9385C176.25 100.231 175.833 100.642 175.54 101.169C175.262 101.682 175.071 102.29 174.969 102.993C174.866 103.696 174.815 104.465 174.815 105.3ZM221.88 109.497C221.88 108.999 221.807 108.552 221.661 108.156C221.514 107.746 221.243 107.365 220.848 107.014C220.452 106.662 219.881 106.311 219.134 105.959C218.401 105.593 217.435 105.212 216.233 104.816C214.827 104.348 213.472 103.82 212.168 103.234C210.865 102.634 209.7 101.938 208.675 101.147C207.649 100.341 206.836 99.4038 206.236 98.3345C205.635 97.2505 205.335 95.9907 205.335 94.5552C205.335 93.1782 205.643 91.9404 206.258 90.8418C206.873 89.7285 207.73 88.7837 208.829 88.0073C209.942 87.2163 211.246 86.6157 212.74 86.2056C214.234 85.7808 215.867 85.5684 217.64 85.5684C219.983 85.5684 222.049 85.9785 223.836 86.7988C225.638 87.6045 227.044 88.7544 228.055 90.2485C229.08 91.728 229.593 93.4785 229.593 95.5H221.924C221.924 94.6943 221.756 93.9839 221.419 93.3687C221.097 92.7534 220.606 92.27 219.947 91.9185C219.288 91.5669 218.46 91.3911 217.464 91.3911C216.497 91.3911 215.684 91.5376 215.025 91.8306C214.366 92.1235 213.868 92.519 213.531 93.0171C213.194 93.5005 213.025 94.0352 213.025 94.6211C213.025 95.1045 213.157 95.5439 213.421 95.9395C213.699 96.3203 214.087 96.6792 214.585 97.0161C215.098 97.353 215.713 97.6753 216.431 97.9829C217.164 98.2905 217.984 98.5908 218.892 98.8838C220.591 99.4258 222.1 100.034 223.418 100.708C224.751 101.367 225.872 102.121 226.78 102.971C227.703 103.806 228.399 104.758 228.868 105.827C229.351 106.896 229.593 108.105 229.593 109.453C229.593 110.888 229.314 112.163 228.758 113.276C228.201 114.389 227.403 115.334 226.363 116.11C225.323 116.872 224.078 117.451 222.627 117.846C221.177 118.242 219.559 118.439 217.771 118.439C216.131 118.439 214.512 118.234 212.916 117.824C211.333 117.399 209.898 116.755 208.609 115.891C207.32 115.012 206.287 113.891 205.511 112.529C204.749 111.152 204.368 109.519 204.368 107.629H212.103C212.103 108.566 212.227 109.357 212.476 110.002C212.725 110.646 213.091 111.167 213.575 111.562C214.058 111.943 214.651 112.221 215.354 112.397C216.058 112.558 216.863 112.639 217.771 112.639C218.753 112.639 219.544 112.5 220.145 112.221C220.745 111.928 221.185 111.547 221.463 111.079C221.741 110.595 221.88 110.068 221.88 109.497ZM245.743 94.2256V99.3672H231.417V94.2256H245.743ZM234.427 88.3149H241.832V110.244C241.832 110.874 241.905 111.364 242.051 111.716C242.198 112.053 242.447 112.294 242.798 112.441C243.165 112.573 243.648 112.639 244.249 112.639C244.673 112.639 245.025 112.631 245.303 112.617C245.582 112.587 245.845 112.551 246.094 112.507V117.802C245.464 118.007 244.805 118.161 244.117 118.264C243.428 118.381 242.696 118.439 241.919 118.439C240.337 118.439 238.982 118.19 237.854 117.692C236.741 117.194 235.892 116.411 235.306 115.341C234.72 114.272 234.427 112.88 234.427 111.167V88.3149ZM261.036 112.023V102.224C261.036 101.55 260.94 100.971 260.75 100.488C260.56 100.004 260.259 99.6309 259.849 99.3672C259.439 99.0889 258.89 98.9497 258.201 98.9497C257.645 98.9497 257.168 99.0449 256.773 99.2354C256.377 99.4258 256.077 99.7114 255.872 100.092C255.667 100.473 255.564 100.957 255.564 101.542H248.16C248.16 100.444 248.401 99.4258 248.885 98.4883C249.383 97.5361 250.086 96.7085 250.994 96.0054C251.917 95.3022 253.016 94.7603 254.29 94.3794C255.579 93.9839 257.015 93.7861 258.597 93.7861C260.486 93.7861 262.171 94.1011 263.65 94.731C265.145 95.3608 266.324 96.3057 267.188 97.5654C268.052 98.8105 268.484 100.378 268.484 102.268V112.001C268.484 113.554 268.572 114.733 268.748 115.539C268.924 116.33 269.173 117.026 269.495 117.626V118H262.068C261.717 117.268 261.453 116.374 261.277 115.319C261.116 114.25 261.036 113.151 261.036 112.023ZM261.937 103.476L261.98 107.431H258.707C258.018 107.431 257.432 107.526 256.949 107.717C256.48 107.907 256.099 108.171 255.806 108.508C255.528 108.83 255.323 109.196 255.191 109.606C255.074 110.017 255.015 110.449 255.015 110.903C255.015 111.342 255.118 111.738 255.323 112.089C255.542 112.426 255.835 112.69 256.202 112.88C256.568 113.071 256.978 113.166 257.432 113.166C258.252 113.166 258.948 113.012 259.52 112.705C260.105 112.382 260.552 111.994 260.86 111.54C261.167 111.086 261.321 110.661 261.321 110.266L262.947 113.298C262.654 113.884 262.317 114.477 261.937 115.078C261.57 115.678 261.109 116.235 260.552 116.748C260.01 117.246 259.344 117.656 258.553 117.978C257.762 118.286 256.802 118.439 255.674 118.439C254.209 118.439 252.862 118.139 251.631 117.539C250.416 116.938 249.441 116.103 248.709 115.034C247.977 113.95 247.61 112.705 247.61 111.298C247.61 110.068 247.83 108.969 248.27 108.002C248.724 107.036 249.405 106.215 250.313 105.542C251.221 104.868 252.378 104.355 253.785 104.003C255.191 103.652 256.846 103.476 258.75 103.476H261.937ZM282.635 112.727C283.323 112.727 283.909 112.602 284.393 112.353C284.891 112.089 285.264 111.723 285.513 111.254C285.777 110.771 285.901 110.192 285.887 109.519H292.852C292.867 111.306 292.427 112.873 291.534 114.221C290.655 115.554 289.454 116.594 287.93 117.341C286.421 118.073 284.715 118.439 282.811 118.439C280.95 118.439 279.324 118.139 277.933 117.539C276.541 116.923 275.376 116.074 274.439 114.99C273.516 113.891 272.82 112.609 272.352 111.145C271.897 109.68 271.67 108.09 271.67 106.376V105.871C271.67 104.157 271.897 102.568 272.352 101.103C272.82 99.6235 273.516 98.3418 274.439 97.2578C275.376 96.1592 276.534 95.3096 277.911 94.709C279.302 94.0938 280.921 93.7861 282.767 93.7861C284.744 93.7861 286.487 94.1597 287.996 94.9067C289.52 95.6538 290.713 96.7378 291.578 98.1587C292.442 99.5796 292.867 101.301 292.852 103.322H285.887C285.901 102.604 285.792 101.96 285.557 101.389C285.323 100.817 284.957 100.363 284.458 100.026C283.975 99.6748 283.353 99.499 282.591 99.499C281.829 99.499 281.214 99.6675 280.745 100.004C280.276 100.341 279.917 100.81 279.668 101.411C279.434 101.997 279.273 102.67 279.185 103.432C279.112 104.194 279.075 105.007 279.075 105.871V106.376C279.075 107.255 279.112 108.083 279.185 108.859C279.273 109.621 279.441 110.295 279.69 110.881C279.939 111.452 280.298 111.906 280.767 112.243C281.236 112.565 281.858 112.727 282.635 112.727ZM303.487 84.228V118H296.082V84.228H303.487ZM318.692 94.2256L308.365 106.333L302.959 111.738L299.729 107.036L304.234 101.169L309.815 94.2256H318.692ZM310.76 118L304.41 107.167L309.881 103.278L319.241 118H310.76Z" fill="#424241"/>
<path d="M1363 15C1363 6.71573 1356.28 0 1348 0H1134V167H1348C1356.28 167 1363 160.284 1363 152V15Z" fill="#022E7A"/>
<path fill-rule="evenodd" clip-rule="evenodd" d="M1218.5 55C1218.37 55 1218.24 55.0527 1218.15 55.1464C1218.05 55.2402 1218 55.3674 1218 55.5V111.5C1218 111.633 1218.05 111.76 1218.15 111.854C1218.24 111.947 1218.37 112 1218.5 112H1278C1278.13 112 1278.26 111.947 1278.35 111.854C1278.45 111.76 1278.5 111.633 1278.5 111.5V66C1278.5 65.8674 1278.45 65.7402 1278.35 65.6464C1278.26 65.5527 1278.13 65.5 1278 65.5H1248.25C1247.36 65.5 1246.52 65.1045 1245.95 64.4206L1238.09 55H1218.5ZM1213.9 50.9038C1215.12 49.6848 1216.78 49 1218.5 49H1239.5C1240.39 49 1241.23 49.3955 1241.8 50.0794L1249.66 59.5H1278C1279.72 59.5 1281.38 60.1848 1282.6 61.4038C1283.82 62.6228 1284.5 64.2761 1284.5 66V111.5C1284.5 113.224 1283.82 114.877 1282.6 116.096C1281.38 117.315 1279.72 118 1278 118H1218.5C1216.78 118 1215.12 117.315 1213.9 116.096C1212.68 114.877 1212 113.224 1212 111.5V55.5C1212 53.7761 1212.68 52.1228 1213.9 50.9038Z" fill="white"/>
<path fill-rule="evenodd" clip-rule="evenodd" d="M1243.72 77.5251C1245.09 78.892 1245.09 81.108 1243.72 82.4749L1237.45 88.75L1243.72 95.0251C1245.09 96.392 1245.09 98.608 1243.72 99.9749C1242.36 101.342 1240.14 101.342 1238.78 99.9749L1230.03 91.2249C1228.66 89.858 1228.66 87.642 1230.03 86.2751L1238.78 77.5251C1240.14 76.1583 1242.36 76.1583 1243.72 77.5251Z" fill="white"/>
<path fill-rule="evenodd" clip-rule="evenodd" d="M1252.03 99.9749C1250.66 98.608 1250.66 96.392 1252.03 95.0251L1258.3 88.75L1252.03 82.4749C1250.66 81.108 1250.66 78.892 1252.03 77.5251C1253.39 76.1583 1255.61 76.1583 1256.97 77.5251L1265.72 86.2751C1267.09 87.642 1267.09 89.858 1265.72 91.2249L1256.97 99.9749C1255.61 101.342 1253.39 101.342 1252.03 99.9749Z" fill="white"/>
</svg>
